<?xml version="1.0" standalone="no"?><!DOCTYPE svg PUBLIC "-//W3C//DTD SVG 1.1//EN" "http://www.w3.org/Graphics/SVG/1.1/DTD/svg11.dtd" ><svg xmlns="http://www.w3.org/2000/svg"><metadata></metadata><defs><font id="mlss: Proxima Soft: 2018" horiz-adv-x="1208"><font-face font-family="Proxima Soft SemiBold" font-weight="600" font-stretch="normal" units-per-em="1000" panose-1="2 0 5 6 3 0 0 2 0 4" ascent="790" descent="-210" x-height="4" bbox="-373 -335 1170 1085" underline-thickness="74" underline-position="-258" unicode-range="U+000d-fb04" /><missing-glyph horiz-adv-x="493" d="M71 -48 l0 758 q0 19 11.5 30.5 q11.5 11.5 30.5 11.5 l267 0 q19 0 30.5 -11.5 q11.5 -11.5 11.5 -30.5 l0 -758 q0 -19 -11.5 -30.5 q-11.5 -11.5 -30.5 -11.5 l-267 0 q-19 0 -30.5 11.5 q-11.5 11.5 -11.5 30.5 ZM390 722 l-288 0 l0 -782 l288 0 l0 782 Z" /><glyph glyph-name="nonmarkingreturn" unicode="" d="" /><glyph glyph-name="space" unicode=" " d="" /><glyph glyph-name="exclam" unicode="!" d="M75 243 l-15 366 q-1 26 17.5 45 q18.5 19 44.5 19 q26 0 44.5 -18.5 q18.5 -18.5 17.5 -45.5 l-14 -366 q-1 -19 -14.5 -32 q-13.5 -13 -33.5 -13 q-19 0 -32.5 13 q-13.5 13 -14.5 32 ZM122 129 q29 0 49.5 -20.5 q20.5 -20.5 20.5 -49.5 q0 -28 -21 -48.5 q-21 -20.5 -49 -20.5 q-28 0 -48.5 20.5 q-20.5 20.5 -20.5 48.5 q0 29 20.5 49.5 q20.5 20.5 48.5 20.5 Z" /><glyph glyph-name="quotedbl" unicode="&quot;" d="M80 409 l-5 33 q-27 160 -27 176 q0 24 17 41.5 q17 17.5 42 17.5 q24 0 41.5 -17.5 q17.5 -17.5 17.5 -41.5 q0 -16 -27 -176 l-5 -33 q-5 -24 -27 -24 q-22 0 -27 24 ZM246 409 q-7 35 -23 136 q-9 64 -9 73 q0 24 17 41.5 q17 17.5 42 17.5 q24 0 41 -17.5 q17 -17.5 17 -41.5 q0 -12 -10 -73 q-10 -73 -22 -136 q-5 -24 -26 -24 q-22 0 -27 24 Z" /><glyph glyph-name="numbersign" unicode="#" d="M572 481 q10 -10 10 -24 q0 -14 -10 -24 q-10 -10 -24 -10 l-85 0 l-60 -180 l65 0 q14 0 24 -10 q10 -10 10 -24 q0 -15 -10 -25 q-10 -10 -24 -10 l-88 0 l-51 -154 q-9 -26 -36 -26 q-16 0 -27 11 q-11 11 -11 27 q0 4 2 12 l44 130 l-102 0 l-51 -154 q-9 -26 -36 -26 q-16 0 -27 11 q-11 11 -11 27 q0 4 2 12 l43 130 l-59 0 q-14 0 -24 10 q-10 10 -10 24 q0 15 10 25 q10 10 24 10 l83 0 l59 180 l-62 0 q-14 0 -24 10 q-10 10 -10 24 q0 14 10 24 q10 10 24 10 l86 0 l51 156 q8 26 36 26 q16 0 27 -11 q11 -11 11 -27 q0 -10 -1 -12 l-44 -132 l101 0 l51 156 q9 26 36 26 q16 0 27 -11 q11 -11 11 -27 q0 -4 -2 -12 l-44 -132 l62 0 q14 0 24 -10 ZM323 243 l60 180 l-101 0 l-59 -180 l100 0 Z" /><glyph glyph-name="dollar" unicode="$" d="M348 -10 l0 -56 q0 -17 -11.5 -28.5 q-11.5 -11.5 -28.5 -11.5 q-16 0 -28 11.5 q-12 11.5 -12 28.5 l0 55 q-115 8 -197 72 q-22 19 -22 45 q0 23 16.5 39 q16.5 16 39.5 16 q19 0 33 -11 q60 -45 130 -55 l0 193 q-52 14 -85 27 q-33 13 -64 34.5 q-31 21.5 -46.5 54.5 q-15.5 33 -16.5 78 q0 77 58.5 132 q58.5 55 153.5 62 l0 58 q0 17 12 28.5 q12 11.5 28 11.5 q17 0 28.5 -11.5 q11.5 -11.5 11.5 -28.5 l0 -60 q91 -9 161 -57 q24 -18 24 -46 q0 -22 -16 -38.5 q-16 -16.5 -39 -16.5 q-18 0 -31 10 q-44 31 -99 41 l0 -172 q55 -16 87 -29 q32 -13 64.5 -35.5 q32.5 -22.5 48 -56 q15.5 -33.5 16.5 -80.5 q0 -84 -56 -139.5 q-56 -55.5 -160 -64.5 ZM268 416 l0 156 q-43 -5 -67.5 -26.5 q-24.5 -21.5 -24.5 -55.5 q0 -26 23 -43.5 q23 -17.5 69 -30.5 ZM445 183 q0 31 -23.5 50 q-23.5 19 -73.5 34 l0 -172 q47 6 72 31 q25 25 25 57 Z" /><glyph glyph-name="percent" unicode="%" d="M74 392.5 q-46 46.5 -46 117.5 q0 71 46 119 q46 48 119 48 q73 0 120 -48 q47 -48 47 -119 q0 -70 -47 -117 q-47 -47 -120 -47 q-73 0 -119 46.5 ZM148 22 q0 7 5 15 l397 623 q9 13 24 13 q12 0 20 -8.5 q8 -8.5 8 -19.5 q0 -9 -4 -16 l-399 -622 q-9 -13 -23 -13 q-11 0 -19.5 8.5 q-8.5 8.5 -8.5 19.5 ZM282 510 q0 48 -25 76.5 q-25 28.5 -64 28.5 q-39 0 -63.5 -29 q-24.5 -29 -24.5 -76 q0 -46 25 -75 q25 -29 63 -29 q39 0 64 29 q25 29 25 75 ZM433 34.5 q-46 46.5 -46 117.5 q0 71 46 119 q46 48 119 48 q72 0 119 -48 q47 -48 47 -119 q0 -70 -46.5 -117 q-46.5 -47 -119.5 -47 q-73 0 -119 46.5 ZM641 152 q0 48 -25 76.5 q-25 28.5 -64 28.5 q-39 0 -63.5 -28.5 q-24.5 -28.5 -24.5 -76.5 q0 -46 24.5 -75 q24.5 -29 63.5 -29 q39 0 64 29 q25 29 25 75 Z" /><glyph glyph-name="ampersand" unicode="&amp;" d="M591 44 q0 -21 -15 -35.5 q-15 -14.5 -35 -14.5 q-15 0 -29 9 q-30 22 -74 62 q-86 -77 -194 -77 q-94 0 -155 49 q-60 49 -60 141 q0 66 36 111.5 q36 45.5 109 83.5 q-47 85 -47 146 q0 67 52 112.5 q52 45.5 129 45.5 q72 0 118 -37 q47 -38 47 -100 q0 -46 -23 -81 q-20 -31 -51 -52.5 q-31 -21.5 -92 -51.5 q29 -40 65 -82 q27 -34 68 -75 q30 48 50 98 q12 28 42 28 q19 0 32.5 -13 q13.5 -13 13.5 -32 q0 -8 -5 -20 q-32 -67 -70 -121 q26 -22 68 -54 q20 -15 20 -40 ZM266 417 q59 28 86.5 54.5 q27.5 26.5 27.5 63.5 q0 30 -18.5 47 q-18.5 17 -48.5 17 q-34 0 -57 -23 q-23 -23 -23 -59 q0 -39 33 -100 ZM376 123 q-62 59 -86 88 q-45 55 -74 96 q-75 -50 -75 -120 q0 -52 33.5 -83.5 q33.5 -31.5 82.5 -31.5 q63 0 119 51 Z" /><glyph glyph-name="quotesingle" unicode="&#39;" d="M80 409 l-5 33 q-27 160 -27 176 q0 24 17 41.5 q17 17.5 42 17.5 q24 0 41.5 -17.5 q17.5 -17.5 17.5 -41.5 q0 -16 -27 -176 l-5 -33 q-5 -24 -27 -24 q-22 0 -27 24 Z" /><glyph glyph-name="parenleft" unicode="(" d="M169 -167 q-61 87 -94 194 q-33 107 -33 216 q0 109 33 216 q33 107 94 194 q13 19 36 19 q19 0 31.5 -13 q12.5 -13 12.5 -31 q0 -13 -4 -20 q-47 -91 -68 -176.5 q-21 -85.5 -21 -188.5 q0 -103 21 -188 q21 -85 67 -176 q5 -12 5 -20 q0 -19 -12.5 -32 q-12.5 -13 -31.5 -13 q-23 0 -36 19 Z" /><glyph glyph-name="parenright" unicode=")" d="M26 -141 q0 8 5 20 q47 91 68 176 q21 85 21 188 q0 103 -21 188.5 q-21 85.5 -68 176.5 q-5 12 -5 20 q0 18 13 31 q13 13 31 13 q23 0 36 -19 q61 -87 94.5 -194.5 q33.5 -107.5 33.5 -215.5 q0 -108 -33.5 -215.5 q-33.5 -107.5 -94.5 -194.5 q-13 -19 -36 -19 q-18 0 -31 13 q-13 13 -13 32 Z" /><glyph glyph-name="asterisk" unicode="*" d="M146 398 l4 90 l-75 -49 q-7 -4 -15 -4 q-10 0 -18 8 q-8 8 -8 18 q0 16 14 24 l80 41 l-80 41 q-14 8 -14 24 q0 11 8 18.5 q8 7.5 18 7.5 q8 0 15 -4 l75 -48 l-4 90 q-1 11 7.5 19.5 q8.5 8.5 19.5 8.5 q12 0 20 -8 q8 -8 7 -20 l-5 -90 l75 48 q7 4 15 4 q11 0 19 -7.5 q8 -7.5 8 -18.5 q0 -17 -15 -24 l-79 -41 l79 -41 q15 -7 15 -24 q0 -11 -8 -18.5 q-8 -7.5 -19 -7.5 q-11 0 -15 4 l-75 49 l5 -90 q1 -11 -7.5 -19.5 q-8.5 -8.5 -19.5 -8.5 q-11 0 -19.5 8.5 q-8.5 8.5 -7.5 19.5 Z" /><glyph glyph-name="plus" unicode="+" d="M288 303 l0 -176 q0 -15 -11 -26 q-11 -11 -26 -11 q-15 0 -26 11 q-11 11 -11 26 l0 176 l-157 0 q-14 0 -24 10 q-10 10 -10 24 q0 14 10 24 q10 10 24 10 l157 0 l0 169 q0 15 11 26 q11 11 26 11 q15 0 26 -11 q11 -11 11 -26 l0 -169 l157 0 q14 0 24 -10 q10 -10 10 -24 q0 -14 -10 -24 q-10 -10 -24 -10 l-157 0 Z" /><glyph glyph-name="comma" unicode="," d="M120 -121 q-8 -8 -20 -8 q-12 0 -20.5 8.5 q-8.5 8.5 -8.5 21.5 q0 13 9 22 q41 40 49 77 q-9 -3 -17 -3 q-26 0 -43 17.5 q-17 17.5 -17 45.5 q0 28 20 48.5 q20 20.5 48 20.5 q33 0 55.5 -25 q22.5 -25 22.5 -66 q0 -91 -78 -159 Z" /><glyph glyph-name="hyphen" unicode="-" d="M37.5 210 q-13.5 13 -13.5 32 q0 19 13.5 32 q13.5 13 31.5 13 l162 0 q18 0 31.5 -13 q13.5 -13 13.5 -32 q0 -19 -13.5 -32 q-13.5 -13 -31.5 -13 l-162 0 q-18 0 -31.5 13 Z" /><glyph glyph-name="period" unicode="." d="M122 129 q29 0 49.5 -20.5 q20.5 -20.5 20.5 -49.5 q0 -28 -20.5 -49 q-20.5 -21 -49.5 -21 q-28 0 -49 21 q-21 21 -21 49 q0 29 21 49.5 q21 20.5 49 20.5 Z" /><glyph glyph-name="slash" unicode="/" d="M12 11 q0 4 2 12 l217 645 q8 25 35 25 q15 0 26 -11 q11 -11 11 -26 q0 -4 -2 -12 l-217 -645 q-8 -25 -35 -25 q-15 0 -26 11 q-11 11 -11 26 Z" /><glyph glyph-name="zero" unicode="0" d="M308 677 q86 1 148 -49 q62 -50 91 -127 q29 -77 28 -168 q0 -67 -16.5 -128 q-16.5 -61 -49 -110.5 q-32.5 -49.5 -84.5 -78.5 q-52 -29 -117 -28 q-65 -1 -117 28 q-52 29 -84.5 78.5 q-32.5 49.5 -49 110.5 q-16.5 61 -16.5 128 q-1 91 28 168 q29 77 91 127 q62 50 148 49 ZM420 505 q-35 68 -112 68 q-77 0 -113 -68 q-35 -68 -35 -172 q0 -105 36 -173 q36 -68 112 -68 q76 0 112 68 q36 67 36 173 q0 104 -36 172 Z" /><glyph glyph-name="one" unicode="1" d="M192 53 l0 462 l-78 -81 q-15 -15 -35 -15 q-20 0 -34.5 14.5 q-14.5 14.5 -14.5 34.5 q0 18 14 35 l149 150 q20 20 48 20 q28 0 48 -20 q20 -20 20 -48 l0 -552 q0 -24 -17 -41.5 q-17 -17.5 -41 -17.5 q-25 0 -42 17.5 q-17 17.5 -17 41.5 Z" /><glyph glyph-name="two" unicode="2" d="M34 61 q0 31 25 49 q139 104 204 160 q71 61 104 108.5 q33 47.5 33 92.5 q0 47 -34.5 74.5 q-34.5 27.5 -86.5 27.5 q-82 0 -149 -50 q-14 -11 -32 -11 q-22 0 -37 15 q-15 15 -15 37 q0 26 19 40 q90 73 212 73 q103 0 172.5 -56 q69.5 -56 69.5 -150 q0 -85 -72 -171 q-71 -84 -220 -197 l250 0 q21 0 36.5 -15 q15.5 -15 15.5 -36 q0 -22 -15.5 -37 q-15.5 -15 -36.5 -15 l-382 0 q-25 0 -43 18 q-18 18 -18 43 Z" /><glyph glyph-name="three" unicode="3" d="M54 63 q-18 17 -18 39 q0 22 15 37 q15 15 37 15 q17 0 31 -11 q68 -51 153 -51 q65 0 102 27.5 q37 27.5 37 74.5 q0 94 -148 94 l-31 0 q-21 0 -36.5 15 q-15.5 15 -15.5 37 q0 21 15.5 36 q15.5 15 36.5 15 l31 0 q64 0 100.5 22.5 q36.5 22.5 36.5 65.5 q0 44 -37 69 q-37 25 -98 25 q-76 0 -141 -47 q-13 -10 -30 -10 q-20 0 -34.5 14.5 q-14.5 14.5 -14.5 34.5 q0 21 18 37 q89 75 213 75 q110 0 175 -49 q66 -48 66 -131 q0 -62 -44 -103 q-42 -39 -101 -50 q58 -5 106.5 -49 q48.5 -44 48.5 -113 q0 -85 -69 -139.5 q-69 -54.5 -182 -54.5 q-134 0 -222 75 Z" /><glyph glyph-name="four" unicode="4" d="M558 203 q0 -22 -15.5 -37 q-15.5 -15 -36.5 -15 l-43 0 l0 -98 q0 -24 -17 -41.5 q-17 -17.5 -41 -17.5 q-25 0 -42 17.5 q-17 17.5 -17 41.5 l0 98 l-258 0 q-27 0 -46.5 19 q-19.5 19 -19.5 47 q0 16 11 35 l243 374 q31 47 85 47 q42 0 72 -30 q30 -30 30 -72 l0 -317 l43 0 q21 0 36.5 -15 q15.5 -15 15.5 -36 ZM143 254 l203 0 l0 308 l-203 -308 Z" /><glyph glyph-name="five" unicode="5" d="M70 98 q0 22 15.5 37.5 q15.5 15.5 37.5 15.5 q19 0 33 -11 q62 -48 147 -48 q61 0 99 33 q38 33 38 84 q0 54 -36.5 86.5 q-36.5 32.5 -97.5 32.5 q-72 0 -124 -42 q-17 -14 -41 -14 q-26 0 -45 19 q-19 19 -19 45 l0 269 q0 62 62 62 l329 0 q21 0 36.5 -15 q15.5 -15 15.5 -37 q0 -21 -15.5 -36 q-15.5 -15 -36.5 -15 l-274 0 l0 -193 q58 58 151 58 q89 0 151 -59 q62 -59 62 -156 q0 -103 -70.5 -164.5 q-70.5 -61.5 -183.5 -61.5 q-130 0 -215 69 q-19 16 -19 41 Z" /><glyph glyph-name="six" unicode="6" d="M335 677 q91 0 158 -46 q23 -14 23 -43 q0 -21 -15 -36 q-15 -15 -36 -15 q-18 0 -29 8 q-43 28 -101 28 q-79 0 -127.5 -64 q-48.5 -64 -48.5 -156 q0 -15 1 -19 q25 37 74 65 q49 28 105 28 q96 0 159.5 -57.5 q63.5 -57.5 63.5 -157.5 q0 -95 -69 -159.5 q-69 -64.5 -177 -64.5 q-136 0 -205.5 95.5 q-69.5 95.5 -69.5 248.5 q0 152 78 248.5 q78 96.5 216 96.5 ZM307 327 q-42 0 -80.5 -21.5 q-38.5 -21.5 -65.5 -57.5 q6 -63 42 -110 q36 -46 107 -46 q61 0 97.5 35 q36.5 35 36.5 81 q0 56 -38 87.5 q-38 31.5 -99 31.5 Z" /><glyph glyph-name="seven" unicode="7" d="M150 52 q0 9 5 24 l218 488 l-300 0 q-21 0 -36.5 15 q-15.5 15 -15.5 36 q0 22 15.5 37 q15.5 15 36.5 15 l385 0 q23 0 39.5 -16.5 q16.5 -16.5 16.5 -39.5 q0 -9 -5 -22 l-247 -560 q-15 -35 -54 -35 q-24 0 -41 17 q-17 17 -17 41 Z" /><glyph glyph-name="eight" unicode="8" d="M192 344 q-139 45 -139 158 q0 84 71.5 129.5 q71.5 45.5 173.5 45.5 q100 0 172.5 -46 q72.5 -46 72.5 -129 q0 -112 -140 -158 q67 -22 108.5 -68 q41.5 -46 41.5 -105 q0 -84 -73.5 -133.5 q-73.5 -49.5 -181.5 -49.5 q-110 0 -183 48.5 q-73 48.5 -73 134.5 q0 59 41.5 105 q41.5 46 108.5 68 ZM298 573 q-57 0 -92 -24 q-35 -24 -35 -65 q0 -42 40 -64 q41 -22 87 -30 q45 7 86 30 q40 22 40 64 q0 41 -35 65 q-35 24 -91 24 ZM298 291 q-48 -6 -93 -34 q-45 -28 -45 -71 q0 -42 39 -68 q39 -26 99 -26 q58 0 97.5 26.5 q39.5 26.5 39.5 67.5 q0 43 -45 71 q-45 28 -92 34 Z" /><glyph glyph-name="nine" unicode="9" d="M85 78 q0 21 15 36 q15 15 36 15 q14 0 28 -8 q43 -28 101 -28 q83 0 129.5 64 q46.5 64 46.5 155 l0 20 q-28 -39 -77.5 -66.5 q-49.5 -27.5 -101.5 -27.5 q-95 0 -159.5 58 q-64.5 58 -64.5 158 q0 95 69 159.5 q69 64.5 177 64.5 q136 0 205.5 -96 q69.5 -96 69.5 -249 q0 -152 -78 -248 q-78 -96 -216 -96 q-88 0 -158 46 q-22 15 -22 43 ZM290 574 q-60 0 -96.5 -35.5 q-36.5 -35.5 -36.5 -80.5 q0 -56 38 -87.5 q38 -31.5 98 -31.5 q43 0 82 21 q39 21 64 57 q-5 64 -42 110 q-36 47 -107 47 Z" /><glyph glyph-name="colon" unicode=":" d="M122 490 q29 0 49.5 -20.5 q20.5 -20.5 20.5 -49.5 q0 -28 -20.5 -49 q-20.5 -21 -49.5 -21 q-28 0 -49 21 q-21 21 -21 49 q0 29 21 49.5 q21 20.5 49 20.5 ZM122 129 q29 0 49.5 -20.5 q20.5 -20.5 20.5 -49.5 q0 -28 -20.5 -49 q-20.5 -21 -49.5 -21 q-28 0 -49 21 q-21 21 -21 49 q0 29 21 49.5 q21 20.5 49 20.5 Z" /><glyph glyph-name="semicolon" unicode=";" d="M52 420 q0 29 21 49.5 q21 20.5 49 20.5 q29 0 49.5 -20.5 q20.5 -20.5 20.5 -49.5 q0 -28 -21 -49 q-21 -21 -49 -21 q-28 0 -49 21 q-21 21 -21 49 ZM120 -121 q-8 -8 -20 -8 q-12 0 -20.5 8.5 q-8.5 8.5 -8.5 21.5 q0 13 9 22 q41 40 49 77 q-9 -3 -17 -3 q-26 0 -43 17.5 q-17 17.5 -17 45.5 q0 28 20 48.5 q20 20.5 48 20.5 q33 0 55.5 -25 q22.5 -25 22.5 -66 q0 -91 -78 -159 Z" /><glyph glyph-name="less" unicode="&lt;" d="M23 335 q0 34 32 49 l372 174 q7 4 15 4 q16 0 26.5 -11 q10.5 -11 10.5 -26 q0 -21 -22 -33 l-349 -158 l350 -157 q21 -9 21 -33 q0 -15 -10.5 -25.5 q-10.5 -10.5 -25.5 -10.5 q-10 0 -16 3 l-372 174 q-32 15 -32 50 Z" /><glyph glyph-name="equal" unicode="=" d="M33 405 q-10 10 -10 24 q0 14 10 24 q10 10 24 10 l388 0 q14 0 24 -10 q10 -10 10 -24 q0 -14 -10 -24 q-10 -10 -24 -10 l-388 0 q-14 0 -24 10 ZM23 238 q0 14 10 24 q10 10 24 10 l388 0 q14 0 24 -10 q10 -10 10 -24 q0 -13 -10 -23 q-10 -10 -24 -10 l-388 0 q-14 0 -24 10 q-10 10 -10 23 Z" /><glyph glyph-name="greater" unicode="&gt;" d="M59 108 q-15 0 -25.5 10.5 q-10.5 10.5 -10.5 25.5 q0 21 21 33 l349 157 l-348 158 q-22 12 -22 33 q0 15 10.5 26 q10.5 11 26.5 11 q8 0 15 -4 l372 -174 q32 -15 32 -49 q0 -35 -32 -50 l-372 -174 q-6 -3 -16 -3 Z" /><glyph glyph-name="question" unicode="?" d="M244 413 q39 27 54.5 45 q15.5 18 15.5 43 q0 32 -25 52 q-25 20 -70 20 q-63 0 -109 -40 q-14 -11 -32 -11 q-21 0 -36 14.5 q-15 14.5 -15 35.5 q0 24 18 39 q78 66 186 66 q92 0 147.5 -44 q55.5 -44 55.5 -113 q-3 -57 -27 -88.5 q-24 -31.5 -79 -69.5 q-42 -30 -57.5 -48 q-15.5 -18 -15.5 -43 q0 -1 0.5 -2.5 q0.5 -1.5 1 -4.5 q0.5 -3 0.5 -6 l1 -10 q0 -21 -14 -35.5 q-14 -14.5 -35 -14.5 q-29 0 -42 26 q-14 30 -14 57 q0 41 20.5 68.5 q20.5 27.5 70.5 63.5 ZM225 129 q29 0 49.5 -20.5 q20.5 -20.5 20.5 -49.5 q0 -28 -20.5 -49 q-20.5 -21 -49.5 -21 q-28 0 -49 21 q-21 21 -21 49 q0 29 21 49.5 q21 20.5 49 20.5 Z" /><glyph glyph-name="at" unicode="@" d="M747 327 q0 -110 -57 -176 q-57 -66 -130 -66 q-41 0 -66 21.5 q-25 21.5 -29 55.5 l-1 6 q-28 -38 -68 -60.5 q-40 -22.5 -82 -22.5 q-70 0 -112 46 q-42 46 -42 120 q-2 97 70.5 173 q72.5 76 159.5 74 q91 0 126 -71 l5 26 q3 16 15.5 26 q12.5 10 29.5 10 q19 0 32.5 -13.5 q13.5 -13.5 13.5 -32.5 q0 -8 -1 -10 l-43 -205 q-2 -16 -2 -23 q0 -23 11.5 -35.5 q11.5 -12.5 29.5 -12.5 q37 0 68.5 44.5 q31.5 44.5 31.5 125.5 q0 121 -77 197.5 q-77 76.5 -202 76.5 q-90 2 -174 -48.5 q-84 -50.5 -134 -134 q-50 -83.5 -48 -172.5 q0 -119 81.5 -199.5 q81.5 -80.5 202.5 -80.5 q91 0 171 47 q4 4 11 4 q17 0 17 -18 q0 -9 -8 -14 q-88 -55 -195 -55 q-132 -2 -225.5 91 q-93.5 93 -91.5 223 q-2 76 31.5 149.5 q33.5 73.5 88.5 127.5 q55 54 128.5 86 q73.5 32 148.5 31 q136 2 226.5 -90 q90.5 -92 88.5 -221 ZM475 236 l27 126 q-11 26 -34.5 43.5 q-23.5 17.5 -56.5 17.5 q-63 0 -108.5 -50.5 q-45.5 -50.5 -45.5 -114.5 q0 -44 24.5 -71 q24.5 -27 66.5 -27 q73 0 127 76 Z" /><glyph glyph-name="A" unicode="a" d="M646 54 q0 -25 -17.5 -42.5 q-17.5 -17.5 -42.5 -17.5 q-19 0 -34 10.5 q-15 10.5 -21 27.5 l-35 96 l-320 0 l-35 -96 q-6 -17 -21 -27.5 q-15 -10.5 -34 -10.5 q-25 0 -42.5 17.5 q-17.5 17.5 -17.5 42.5 q0 4 5 21 l209 532 q12 30 38 48 q26 18 58 18 q32 0 58 -18 q26 -18 38 -48 l209 -532 q5 -17 5 -21 ZM213 231 l246 0 l-123 337 l-123 -337 Z" /><glyph glyph-name="B" unicode="b" d="M71 62 l0 543 q0 62 62 62 l266 0 q87 0 138.5 -48 q51.5 -48 51.5 -122 q0 -59 -33 -101 q-33 -42 -83 -52 q53 -8 91 -56 q38 -48 38 -108 q0 -81 -52 -130.5 q-52 -49.5 -142 -49.5 l-275 0 q-62 0 -62 62 ZM188 391 l187 0 q44 0 69 23.5 q25 23.5 25 62.5 q0 39 -25 63 q-25 24 -69 24 l-187 0 l0 -173 ZM188 103 l192 0 q48 0 75 24.5 q27 24.5 27 68.5 q0 40 -27.5 66 q-27.5 26 -74.5 26 l-192 0 l0 -185 Z" /><glyph glyph-name="C" unicode="c" d="M41 333 q-2 148 99.5 247.5 q101.5 99.5 245.5 97.5 q144 0 234 -99 q14 -14 14 -37 q0 -22 -16 -38.5 q-16 -16.5 -39 -16.5 q-26 0 -42 19 q-59 68 -151 68 q-96 0 -160.5 -68.5 q-64.5 -68.5 -64.5 -172.5 q0 -104 64.5 -172.5 q64.5 -68.5 160.5 -68.5 q93 0 152 68 q16 19 41 19 q23 0 39 -16 q16 -16 16 -39 q0 -23 -14 -37 q-90 -99 -234 -99 q-144 -3 -245.5 97 q-101.5 100 -99.5 248 Z" /><glyph glyph-name="D" unicode="d" d="M71 62 l0 543 q0 62 62 62 l186 0 q155 0 252 -93.5 q97 -93.5 97 -240.5 q0 -147 -97 -240 q-97 -93 -252 -93 l-186 0 q-62 0 -62 62 ZM188 103 l131 0 q104 0 166.5 65.5 q62.5 65.5 62.5 164.5 q0 101 -61 166 q-61 65 -168 65 l-131 0 l0 -461 Z" /><glyph glyph-name="E" unicode="e" d="M71 62 l0 543 q0 62 62 62 l349 0 q21 0 36.5 -15 q15.5 -15 15.5 -37 q0 -21 -15.5 -36 q-15.5 -15 -36.5 -15 l-294 0 l0 -173 l287 0 q21 0 36.5 -15 q15.5 -15 15.5 -36 q0 -22 -15.5 -37 q-15.5 -15 -36.5 -15 l-287 0 l0 -185 l294 0 q21 0 36.5 -15 q15.5 -15 15.5 -36 q0 -22 -15.5 -37 q-15.5 -15 -36.5 -15 l-349 0 q-62 0 -62 62 Z" /><glyph glyph-name="F" unicode="f" d="M71 53 l0 552 q0 62 62 62 l349 0 q21 0 36.5 -15 q15.5 -15 15.5 -37 q0 -21 -15.5 -36 q-15.5 -15 -36.5 -15 l-294 0 l0 -173 l287 0 q21 0 36.5 -15 q15.5 -15 15.5 -36 q0 -22 -15.5 -37 q-15.5 -15 -36.5 -15 l-287 0 l0 -235 q0 -24 -17 -41.5 q-17 -17.5 -41 -17.5 q-25 0 -42 17.5 q-17 17.5 -17 41.5 Z" /><glyph glyph-name="G" unicode="g" d="M666 296 l0 -143 q0 -48 -32 -76 q-104 -90 -243 -90 q-146 -2 -249 97 q-103 99 -101 249 q-2 150 101 248.5 q103 98.5 249 96.5 q137 0 227 -90 q16 -16 16 -39 q0 -22 -15.5 -38 q-15.5 -16 -38.5 -16 q-23 0 -39 16 q-63 63 -150 63 q-99 0 -164.5 -68.5 q-65.5 -68.5 -65.5 -172.5 q0 -103 66 -172.5 q66 -69.5 164 -69.5 q92 0 158 60 l0 104 l-153 0 q-21 0 -36.5 15 q-15.5 15 -15.5 37 q0 21 15.5 36 q15.5 15 36.5 15 l208 0 q62 0 62 -62 Z" /><glyph glyph-name="H" unicode="h" d="M535 53 l0 238 l-347 0 l0 -238 q0 -24 -17 -41.5 q-17 -17.5 -41 -17.5 q-25 0 -42 17.5 q-17 17.5 -17 41.5 l0 561 q0 24 17 41.5 q17 17.5 41 17.5 q25 0 42 -17.5 q17 -17.5 17 -41.5 l0 -220 l347 0 l0 220 q0 24 17 41.5 q17 17.5 42 17.5 q24 0 41 -17.5 q17 -17.5 17 -41.5 l0 -561 q0 -24 -17 -41.5 q-17 -17.5 -42 -17.5 q-24 0 -41 17.5 q-17 17.5 -17 41.5 Z" /><glyph glyph-name="I" unicode="i" d="M71 53 l0 561 q0 24 17 41.5 q17 17.5 42 17.5 q24 0 41 -17.5 q17 -17.5 17 -41.5 l0 -561 q0 -24 -17 -41.5 q-17 -17.5 -41 -17.5 q-25 0 -42 17.5 q-17 17.5 -17 41.5 Z" /><glyph glyph-name="J" unicode="j" d="M18 72 q0 22 15 37 q15 15 37 15 q14 0 28 -8 q34 -24 78 -24 q54 0 85.5 33 q31.5 33 31.5 88 l0 401 q0 24 17 41.5 q17 17.5 41 17.5 q25 0 42 -17.5 q17 -17.5 17 -41.5 l0 -403 q0 -108 -60.5 -165.5 q-60.5 -57.5 -164.5 -57.5 q-82 0 -144 41 q-23 17 -23 43 Z" /><glyph glyph-name="K" unicode="k" d="M586 50 q0 -23 -15.5 -39.5 q-15.5 -16.5 -38.5 -16.5 q-24 0 -41 17 l-244 267 l-59 -63 l0 -162 q0 -24 -17 -41.5 q-17 -17.5 -42 -17.5 q-24 0 -41 17.5 q-17 17.5 -17 41.5 l0 561 q0 24 17 41.5 q17 17.5 41 17.5 q25 0 42 -17.5 q17 -17.5 17 -41.5 l0 -267 l281 308 q17 18 41 18 q22 0 38.5 -16 q16.5 -16 16.5 -38 q0 -22 -15 -37 l-224 -235 l245 -260 q15 -16 15 -37 Z" /><glyph glyph-name="L" unicode="l" d="M71 62 l0 552 q0 24 17 41.5 q17 17.5 42 17.5 q24 0 41 -17.5 q17 -17.5 17 -41.5 l0 -511 l248 0 q21 0 36.5 -15 q15.5 -15 15.5 -36 q0 -22 -15.5 -37 q-15.5 -15 -36.5 -15 l-303 0 q-62 0 -62 62 Z" /><glyph glyph-name="M" unicode="m" d="M647 53 l0 452 l-199 -490 q-8 -21 -31 -21 q-23 0 -31 21 l-198 490 l0 -452 q0 -24 -17 -41.5 q-17 -17.5 -41 -17.5 q-25 0 -42 17.5 q-17 17.5 -17 41.5 l0 523 q0 40 28.5 68.5 q28.5 28.5 68.5 28.5 q30 0 54.5 -17 q24.5 -17 35.5 -44 l159 -394 l160 394 q11 27 35.5 44 q24.5 17 54.5 17 q40 0 68.5 -28.5 q28.5 -28.5 28.5 -68.5 l0 -523 q0 -24 -17 -41.5 q-17 -17.5 -42 -17.5 q-24 0 -41 17.5 q-17 17.5 -17 41.5 Z" /><glyph glyph-name="N" unicode="n" d="M519 24 l-331 462 l0 -433 q0 -24 -17 -41.5 q-17 -17.5 -41 -17.5 q-25 0 -42 17.5 q-17 17.5 -17 41.5 l0 543 q0 32 22.5 54.5 q22.5 22.5 54.5 22.5 q38 0 62 -32 l322 -447 l0 420 q0 24 17 41.5 q17 17.5 41 17.5 q25 0 42 -17.5 q17 -17.5 17 -41.5 l0 -548 q0 -29 -21 -50.5 q-21 -21.5 -51 -21.5 q-37 0 -58 30 Z" /><glyph glyph-name="O" unicode="o" d="M382 678 q147 2 245 -98 q98 -100 96 -247 q2 -147 -96 -247.5 q-98 -100.5 -245 -97.5 q-147 -3 -245 97.5 q-98 100.5 -96 247.5 q-2 147 96 247 q98 100 245 98 ZM541.5 506 q-61.5 68 -159.5 68 q-98 0 -159.5 -68 q-61.5 -68 -61.5 -173 q0 -104 61.5 -172.5 q61.5 -68.5 159.5 -68.5 q98 0 159.5 68.5 q61.5 68.5 61.5 172.5 q0 105 -61.5 173 Z" /><glyph glyph-name="P" unicode="p" d="M71 53 l0 552 q0 62 62 62 l231 0 q99 0 158.5 -60 q59.5 -60 59.5 -149 q0 -89 -59.5 -149 q-59.5 -60 -158.5 -60 l-176 0 l0 -196 q0 -24 -17 -41.5 q-17 -17.5 -41 -17.5 q-25 0 -42 17.5 q-17 17.5 -17 41.5 ZM348 564 l-160 0 l0 -212 l160 0 q51 0 82.5 29 q31.5 29 31.5 77 q0 48 -31.5 77 q-31.5 29 -82.5 29 Z" /><glyph glyph-name="Q" unicode="q" d="M634 93 l23 -26 q13 -14 13 -35 q0 -22 -15.5 -37.5 q-15.5 -15.5 -37.5 -15.5 q-24 0 -39 18 l-28 31 q-73 -40 -168 -40 q-147 -3 -245 97.5 q-98 100.5 -96 247.5 q-2 147 96 247 q98 100 245 98 q147 2 245 -98 q98 -100 96 -247 q0 -142 -89 -240 ZM477 112 l-51 58 q-13 16 -13 34 q0 22 15 37.5 q15 15.5 37 15.5 q25 0 40 -18 l52 -59 q46 62 46 153 q0 105 -61.5 173 q-61.5 68 -159.5 68 q-98 0 -159.5 -68 q-61.5 -68 -61.5 -173 q0 -104 61.5 -172.5 q61.5 -68.5 159.5 -68.5 q50 0 95 20 Z" /><glyph glyph-name="R" unicode="r" d="M574 84 q11 -17 11 -37 q0 -20 -16.5 -36.5 q-16.5 -16.5 -38.5 -16.5 q-31 0 -49 25 l-157 230 l-136 0 l0 -196 q0 -24 -17 -41.5 q-17 -17.5 -41 -17.5 q-25 0 -42 17.5 q-17 17.5 -17 41.5 l0 552 q0 62 62 62 l231 0 q98 0 158 -58 q60 -58 60 -151 q0 -75 -38 -125.5 q-38 -50.5 -100 -66.5 l130 -182 ZM188 564 l0 -212 l160 0 q51 0 82.5 29 q31.5 29 31.5 77 q0 48 -31.5 77 q-31.5 29 -82.5 29 l-160 0 Z" /><glyph glyph-name="S" unicode="s" d="M42 105 q0 23 16 39.5 q16 16.5 39 16.5 q20 0 34 -11 q77 -58 173 -58 q64 0 99 26 q35 26 35 65 q-4 41 -35 58.5 q-31 17.5 -117 40.5 q-79 19 -122 37 q-115 46 -115 163 q0 84 70 139.5 q70 55.5 183 55.5 q106 0 206 -61 q25 -15 25 -45 q0 -22 -16 -38.5 q-16 -16.5 -39 -16.5 q-18 0 -31 10 q-71 47 -155 47 q-57 0 -90 -22.5 q-33 -22.5 -33 -60.5 q0 -24 19 -40 q29 -25 128 -49 q75 -19 123 -39 q118 -49 118 -168 q0 -91 -66.5 -148.5 q-66.5 -57.5 -191.5 -57.5 q-140 0 -235 73 q-22 16 -22 44 Z" /><glyph glyph-name="T" unicode="t" d="M230 53 l0 511 l-156 0 q-21 0 -36.5 15 q-15.5 15 -15.5 36 q0 22 15.5 37 q15.5 15 36.5 15 l429 0 q21 0 36.5 -15 q15.5 -15 15.5 -37 q0 -21 -15.5 -36 q-15.5 -15 -36.5 -15 l-156 0 l0 -511 q0 -24 -17 -41.5 q-17 -17.5 -41 -17.5 q-25 0 -42 17.5 q-17 17.5 -17 41.5 Z" /><glyph glyph-name="U" unicode="u" d="M71 263 l0 351 q0 24 17 41.5 q17 17.5 42 17.5 q25 0 42 -17.5 q17 -17.5 17 -41.5 l0 -347 q0 -82 45 -128.5 q45 -46.5 126 -46.5 q81 0 125.5 46.5 q44.5 46.5 44.5 128.5 l0 347 q0 24 17 41.5 q17 17.5 42 17.5 q25 0 42 -17.5 q17 -17.5 17 -41.5 l0 -350 q0 -130 -74.5 -203 q-74.5 -73 -213.5 -73 q-140 0 -214.5 73 q-74.5 73 -74.5 202 Z" /><glyph glyph-name="V" unicode="v" d="M239 60 l-207 529 q-5 13 -5 22 q0 26 18.5 44 q18.5 18 43.5 18 q19 0 35 -11 q16 -11 23 -29 l189 -506 l189 506 q7 18 23 29 q16 11 35 11 q26 0 44 -18 q18 -18 18 -44 q0 -9 -5 -22 l-207 -529 q-11 -29 -38 -47.5 q-27 -18.5 -59 -18.5 q-32 0 -59 18.5 q-27 18.5 -38 47.5 Z" /><glyph glyph-name="W" unicode="w" d="M567 54 l-116 438 l-115 -438 q-7 -26 -28 -43 q-21 -17 -49 -17 q-27 0 -48.5 16.5 q-21.5 16.5 -28.5 41.5 l-155 541 q-2 14 -2 18 q0 26 18.5 44 q18.5 18 43.5 18 q21 0 38 -13 q17 -13 22 -34 l120 -473 l128 477 q5 19 20.5 31 q15.5 12 36.5 12 q20 0 35.5 -12 q15.5 -12 20.5 -31 l128 -477 l119 473 q5 21 22 34 q17 13 38 13 q26 0 44 -18 q18 -18 18 -44 q0 -4 -2 -18 l-154 -541 q-7 -25 -28.5 -41.5 q-21.5 -16.5 -48.5 -16.5 q-28 0 -49 17 q-21 17 -28 43 Z" /><glyph glyph-name="X" unicode="x" d="M638 51 q0 -24 -16 -40.5 q-16 -16.5 -40 -16.5 q-29 0 -44 18 l-207 245 l-208 -245 q-15 -18 -44 -18 q-24 0 -40 16.5 q-16 16.5 -16 40.5 q0 19 14 36 l221 255 l-207 238 q-13 16 -13 35 q0 24 16 41 q16 17 39 17 q27 0 44 -20 l194 -228 l193 228 q17 20 44 20 q23 0 39 -17 q16 -17 16 -41 q0 -19 -13 -35 l-207 -238 l221 -255 q14 -17 14 -36 Z" /><glyph glyph-name="Y" unicode="y" d="M582 587 l-205 -310 l0 -224 q0 -24 -17 -41.5 q-17 -17.5 -41 -17.5 q-25 0 -42 17.5 q-17 17.5 -17 41.5 l0 224 l-206 309 q-9 12 -9 31 q0 23 16.5 39.5 q16.5 16.5 39.5 16.5 q29 0 47 -26 l171 -266 l169 266 q18 26 47 26 q23 0 39.5 -16.5 q16.5 -16.5 16.5 -39.5 q0 -18 -9 -30 Z" /><glyph glyph-name="Z" unicode="z" d="M38 66 q0 22 13 38 l334 460 l-295 0 q-21 0 -36.5 15 q-15.5 15 -15.5 36 q0 22 15.5 37 q15.5 15 36.5 15 l387 0 q27 0 46.5 -19 q19.5 -19 19.5 -47 q0 -22 -13 -38 l-334 -460 l302 0 q21 0 36.5 -15 q15.5 -15 15.5 -36 q0 -22 -15.5 -37 q-15.5 -15 -36.5 -15 l-394 0 q-27 0 -46.5 19 q-19.5 19 -19.5 47 Z" /><glyph glyph-name="bracketleft" unicode="[" d="M44 -147 l0 781 q0 19 13 31.5 q13 12.5 31 12.5 l131 0 q15 0 25.5 -10.5 q10.5 -10.5 10.5 -25.5 q0 -15 -10.5 -25.5 q-10.5 -10.5 -25.5 -10.5 l-98 0 l0 -724 l98 0 q15 0 25.5 -10.5 q10.5 -10.5 10.5 -25.5 q0 -15 -10.5 -25.5 q-10.5 -10.5 -24.5 -10.5 l-132 0 q-18 0 -31 12.5 q-13 12.5 -13 30.5 Z" /><glyph glyph-name="backslash" unicode="\" d="M231 -1 l-217 645 q-2 8 -2 12 q0 15 11 26 q11 11 26 11 q27 0 35 -25 l217 -645 q2 -8 2 -12 q0 -15 -11 -26 q-11 -11 -26 -11 q-27 0 -35 25 Z" /><glyph glyph-name="bracketright" unicode="]" d="M19.5 -179.5 q-10.5 10.5 -10.5 25.5 q0 15 10.5 25.5 q10.5 10.5 25.5 10.5 l98 0 l0 724 l-98 0 q-15 0 -25.5 10.5 q-10.5 10.5 -10.5 25.5 q0 15 10.5 25.5 q10.5 10.5 25.5 10.5 l131 0 q18 0 31 -12.5 q13 -12.5 13 -31.5 l0 -781 q0 -18 -13 -30.5 q-13 -12.5 -31 -12.5 l-132 0 q-14 0 -24.5 10.5 Z" /><glyph glyph-name="asciicircum" unicode="^" d="M331 348 l-113 246 l-112 -246 q-9 -21 -33 -21 q-15 0 -25.5 10.5 q-10.5 10.5 -10.5 25.5 q0 9 4 16 l126 261 q15 33 52 33 q37 0 52 -33 l125 -261 q4 -7 4 -16 q0 -15 -10.5 -25.5 q-10.5 -10.5 -25.5 -10.5 q-22 0 -33 21 Z" /><glyph glyph-name="underscore" unicode="_" d="M2 -101.5 q-11 10.5 -11 25.5 q0 15 11 25.5 q11 10.5 25 10.5 l510 0 q14 0 25 -10.5 q11 -10.5 11 -25.5 q0 -15 -11 -25.5 q-11 -10.5 -25 -10.5 l-510 0 q-14 0 -25 10.5 Z" /><glyph glyph-name="grave" unicode="`" d="M164 557 l-105 92 q-11 9 -11 24 q0 14 9.5 23.5 q9.5 9.5 22.5 9.5 q14 0 24 -10 l97 -100 q8 -11 8 -19 q0 -11 -8 -19 q-8 -8 -19 -8 q-11 0 -18 7 Z" /><glyph glyph-name="a" unicode="a" d="M468 320 l0 -273 q0 -22 -15.5 -37.5 q-15.5 -15.5 -37.5 -15.5 q-21 0 -36.5 15.5 q-15.5 15.5 -15.5 37.5 l0 5 q-56 -64 -156 -64 q-67 0 -117.5 43.5 q-50.5 43.5 -50.5 116.5 q0 75 49.5 116 q49.5 41 118.5 41 q102 0 156 -62 l0 72 q0 42 -31 66 q-31 24 -82 24 q-60 0 -113 -36 q-10 -7 -24 -7 q-17 0 -29.5 12.5 q-12.5 12.5 -12.5 29.5 q0 23 18 34 q77 57 178 57 q93 0 147 -43.5 q54 -43.5 54 -131.5 ZM363 110 l0 73 q-37 50 -115 50 q-45 0 -74 -24 q-29 -24 -29 -63 q0 -39 29 -62.5 q29 -23.5 74 -23.5 q78 0 115 50 Z" /><glyph glyph-name="b" unicode="b" d="M542 241 q0 -116 -59.5 -184.5 q-59.5 -68.5 -154.5 -68.5 q-96 0 -155 78 l0 -19 q0 -22 -15.5 -37.5 q-15.5 -15.5 -36.5 -15.5 q-22 0 -37.5 15.5 q-15.5 15.5 -15.5 37.5 l0 573 q0 22 15.5 37.5 q15.5 15.5 37.5 15.5 q21 0 36.5 -15.5 q15.5 -15.5 15.5 -37.5 l0 -204 q57 79 155 79 q94 0 154 -69.5 q60 -69.5 60 -184.5 ZM396.5 125 q37.5 44 37.5 116 q0 72 -37.5 116.5 q-37.5 44.5 -99.5 44.5 q-36 0 -71 -19 q-35 -19 -53 -47 l0 -191 q17 -27 52.5 -45.5 q35.5 -18.5 71.5 -18.5 q62 0 99.5 44 Z" /><glyph glyph-name="c" unicode="c" d="M288 495 q94 0 153 -52 q17 -12 17 -36 q0 -19 -13.5 -33 q-13.5 -14 -33.5 -14 q-17 0 -31 11 q-37 31 -87 31 q-66 0 -106 -44 q-40 -44 -40 -116 q0 -72 40 -116.5 q40 -44.5 106 -44.5 q50 0 87 31 q14 11 30 11 q20 0 34 -13.5 q14 -13.5 14 -33.5 q0 -24 -17 -36 q-59 -52 -153 -52 q-109 0 -179.5 72 q-70.5 72 -70.5 182 q0 110 70.5 181.5 q70.5 71.5 179.5 71.5 Z" /><glyph glyph-name="d" unicode="d" d="M513 620 l0 -573 q0 -22 -15.5 -37.5 q-15.5 -15.5 -37.5 -15.5 q-21 0 -36.5 15.5 q-15.5 15.5 -15.5 37.5 l0 18 q-59 -77 -155 -77 q-95 0 -155 68.5 q-60 68.5 -60 184.5 q0 115 60 184.5 q60 69.5 155 69.5 q95 0 155 -79 l0 204 q0 22 15.5 37.5 q15.5 15.5 36.5 15.5 q22 0 37.5 -15.5 q15.5 -15.5 15.5 -37.5 ZM408 145 l0 192 q-18 28 -53.5 46.5 q-35.5 18.5 -71.5 18.5 q-62 0 -99 -44.5 q-37 -44.5 -37 -116.5 q0 -72 37 -116 q37 -44 99 -44 q37 0 72 18 q35 18 53 46 Z" /><glyph glyph-name="e" unicode="e" d="M283 495 q104 0 171 -70 q67 -70 67 -169 q0 -49 -62 -49 l-311 0 q6 -58 47.5 -95.5 q41.5 -37.5 106.5 -37.5 q57 0 110 32 q9 6 23 6 q17 0 29.5 -12.5 q12.5 -12.5 12.5 -29.5 q0 -22 -19 -35 q-71 -47 -167 -47 q-109 0 -181 70.5 q-72 70.5 -72 183.5 q0 106 70 179.5 q70 73.5 175 73.5 ZM147 281 l272 0 q-2 51 -37.5 89.5 q-35.5 38.5 -98.5 38.5 q-60 0 -96 -37 q-36 -37 -40 -91 Z" /><glyph glyph-name="f" unicode="f" d="M198 510 l0 -27 l58 0 q19 0 32.5 -13.5 q13.5 -13.5 13.5 -32.5 q0 -19 -13.5 -32.5 q-13.5 -13.5 -32.5 -13.5 l-58 0 l0 -344 q0 -22 -15.5 -37.5 q-15.5 -15.5 -36.5 -15.5 q-22 0 -37.5 15.5 q-15.5 15.5 -15.5 37.5 l0 344 l-40 0 q-19 0 -32.5 13.5 q-13.5 13.5 -13.5 32.5 q0 19 13.5 32.5 q13.5 13.5 32.5 13.5 l40 0 l0 27 q0 78 41.5 122.5 q41.5 44.5 111.5 44.5 q26 0 49 -6 q32 -8 32 -40 q0 -42 -41 -42 q-4 0 -11.5 1 q-7.5 1 -9.5 1 q-31 0 -49 -21 q-18 -21 -18 -60 Z" /><glyph glyph-name="g" unicode="g" d="M512 436 l0 -411 q0 -119 -72 -170 q-70 -51 -176 -51 q-105 0 -174 49 q-19 13 -19 36 q0 18 13 31 q13 13 31 13 q14 0 25 -8 q50 -35 124 -35 q64 0 103.5 33 q39.5 33 39.5 98 l0 58 q-64 -80 -155 -80 q-95 0 -154.5 66.5 q-59.5 66.5 -59.5 181.5 q0 114 59.5 181 q59.5 67 154.5 67 q95 0 155 -79 l0 20 q0 22 15.5 37.5 q15.5 15.5 37.5 15.5 q21 0 36.5 -15.5 q15.5 -15.5 15.5 -37.5 ZM407 157 l0 180 q-18 27 -53.5 46 q-35.5 19 -70.5 19 q-62 0 -99 -42.5 q-37 -42.5 -37 -112.5 q0 -70 37 -112.5 q37 -42.5 99 -42.5 q35 0 70.5 19 q35.5 19 53.5 46 Z" /><glyph glyph-name="h" unicode="h" d="M395 47 l0 257 q0 52 -24.5 75 q-24.5 23 -73.5 23 q-73 0 -124 -65 l0 -290 q0 -22 -15.5 -37.5 q-15.5 -15.5 -36.5 -15.5 q-22 0 -37.5 15.5 q-15.5 15.5 -15.5 37.5 l0 573 q0 22 15.5 37.5 q15.5 15.5 37.5 15.5 q21 0 36.5 -15.5 q15.5 -15.5 15.5 -37.5 l0 -203 q28 34 74 56 q46 22 97 22 q156 0 156 -153 l0 -295 q0 -22 -15.5 -37.5 q-15.5 -15.5 -37.5 -15.5 q-21 0 -36.5 15.5 q-15.5 15.5 -15.5 37.5 Z" /><glyph glyph-name="i" unicode="i" d="M74.5 596 q-19.5 19 -19.5 46 q0 27 19.5 46 q19.5 19 45.5 19 q27 0 46 -19 q19 -19 19 -46 q0 -27 -19 -46 q-19 -19 -46 -19 q-26 0 -45.5 19 ZM68 47 l0 389 q0 22 15.5 37.5 q15.5 15.5 37.5 15.5 q21 0 36.5 -15.5 q15.5 -15.5 15.5 -37.5 l0 -389 q0 -22 -15.5 -37.5 q-15.5 -15.5 -37.5 -15.5 q-21 0 -36.5 15.5 q-15.5 15.5 -15.5 37.5 Z" /><glyph glyph-name="j" unicode="j" d="M74.5 596 q-19.5 19 -19.5 46 q0 27 19.5 46 q19.5 19 45.5 19 q27 0 46 -19 q19 -19 19 -46 q0 -27 -19 -46 q-19 -19 -46 -19 q-26 0 -45.5 19 ZM13 -196 l-12 0 q-17 0 -30 13 q-13 13 -13 31 q0 18 11.5 31.5 q11.5 13.5 27.5 13.5 l3 0 q68 0 68 79 l0 464 q0 22 15.5 37.5 q15.5 15.5 37.5 15.5 q21 0 36.5 -15.5 q15.5 -15.5 15.5 -37.5 l0 -464 q0 -80 -41.5 -124 q-41.5 -44 -118.5 -44 Z" /><glyph glyph-name="k" unicode="k" d="M490 47 q0 -23 -14.5 -38 q-14.5 -15 -36.5 -15 q-26 0 -40 17 l-157 187 l-69 -65 l0 -86 q0 -22 -15.5 -37.5 q-15.5 -15.5 -37.5 -15.5 q-21 0 -36.5 15.5 q-15.5 15.5 -15.5 37.5 l0 573 q0 22 15.5 37.5 q15.5 15.5 37.5 15.5 q21 0 36.5 -15.5 q15.5 -15.5 15.5 -37.5 l0 -371 l226 227 q13 13 34 13 q19 0 33 -14.5 q14 -14.5 14 -34.5 q0 -19 -14 -33 l-147 -146 l159 -180 q12 -13 12 -34 Z" /><glyph glyph-name="l" unicode="l" d="M68 47 l0 573 q0 22 15.5 37.5 q15.5 15.5 37.5 15.5 q21 0 36.5 -15.5 q15.5 -15.5 15.5 -37.5 l0 -573 q0 -22 -15.5 -37.5 q-15.5 -15.5 -36.5 -15.5 q-22 0 -37.5 15.5 q-15.5 15.5 -15.5 37.5 Z" /><glyph glyph-name="m" unicode="m" d="M765 349 l0 -302 q0 -22 -15.5 -37.5 q-15.5 -15.5 -37.5 -15.5 q-21 0 -36.5 15.5 q-15.5 15.5 -15.5 37.5 l0 268 q0 87 -79 87 q-32 0 -63 -18.5 q-31 -18.5 -49 -45.5 l0 -291 q0 -22 -15.5 -37.5 q-15.5 -15.5 -37.5 -15.5 q-21 0 -36.5 15.5 q-15.5 15.5 -15.5 37.5 l0 268 q0 87 -80 87 q-31 0 -61.5 -18.5 q-30.5 -18.5 -49.5 -46.5 l0 -290 q0 -22 -15.5 -37.5 q-15.5 -15.5 -36.5 -15.5 q-22 0 -37.5 15.5 q-15.5 15.5 -15.5 37.5 l0 389 q0 22 15.5 37.5 q15.5 15.5 36.5 15.5 q22 0 37.5 -15.5 q15.5 -15.5 15.5 -37.5 l0 -19 q17 26 63 52 q46 26 94 26 q51 0 85.5 -23.5 q34.5 -23.5 46.5 -65.5 q24 38 69.5 63.5 q45.5 25.5 94.5 25.5 q139 0 139 -146 Z" /><glyph glyph-name="n" unicode="n" d="M499 340 l0 -293 q0 -22 -15.5 -37.5 q-15.5 -15.5 -37.5 -15.5 q-21 0 -36.5 15.5 q-15.5 15.5 -15.5 37.5 l0 255 q0 53 -24 76.5 q-24 23.5 -73 23.5 q-75 0 -124 -65 l0 -290 q0 -22 -15.5 -37.5 q-15.5 -15.5 -36.5 -15.5 q-22 0 -37.5 15.5 q-15.5 15.5 -15.5 37.5 l0 389 q0 22 15.5 37.5 q15.5 15.5 36.5 15.5 q22 0 37.5 -15.5 q15.5 -15.5 15.5 -37.5 l0 -19 q29 34 74 56 q45 22 96 22 q77 0 116.5 -40 q39.5 -40 39.5 -115 Z" /><glyph glyph-name="o" unicode="o" d="M38 242 q0 107 69 180 q69 73 179 73 q111 0 180 -73 q69 -73 69 -180 q0 -108 -69 -181 q-69 -73 -180 -73 q-110 0 -179 73 q-69 73 -69 181 ZM426 242 q0 66 -38 113 q-38 47 -102 47 q-64 0 -102 -47 q-37 -46 -37 -113 q0 -69 37 -115 q37 -46 102 -46 q65 0 102 46 q38 47 38 115 Z" /><glyph glyph-name="p" unicode="p" d="M483 426.5 q59 -68.5 59 -184.5 q0 -116 -59 -185 q-59 -69 -155 -69 q-96 0 -155 79 l0 -204 q0 -22 -15.5 -37.5 q-15.5 -15.5 -36.5 -15.5 q-22 0 -37.5 15.5 q-15.5 15.5 -15.5 37.5 l0 573 q0 22 15.5 37.5 q15.5 15.5 37.5 15.5 q21 0 36.5 -15.5 q15.5 -15.5 15.5 -37.5 l0 -19 q57 78 155 78 q96 0 155 -68.5 ZM396 125.5 q37 44.5 37 116.5 q0 72 -37 116 q-37 44 -99 44 q-35 0 -70.5 -19 q-35.5 -19 -53.5 -46 l0 -191 q18 -27 53.5 -46 q35.5 -19 70.5 -19 q62 0 99 44.5 Z" /><glyph glyph-name="q" unicode="q" d="M512 436 l0 -573 q0 -22 -15.5 -37.5 q-15.5 -15.5 -37.5 -15.5 q-21 0 -36.5 15.5 q-15.5 15.5 -15.5 37.5 l0 204 q-59 -79 -155 -79 q-96 0 -155 69 q-59 69 -59 185 q0 116 59 184.5 q59 68.5 155 68.5 q98 0 155 -78 l0 19 q0 22 15.5 37.5 q15.5 15.5 36.5 15.5 q22 0 37.5 -15.5 q15.5 -15.5 15.5 -37.5 ZM407 146 l0 191 q-18 27 -53.5 46 q-35.5 19 -70.5 19 q-62 0 -99 -44 q-37 -44 -37 -116 q0 -72 37 -116.5 q37 -44.5 99 -44.5 q35 0 70.5 19 q35.5 19 53.5 46 Z" /><glyph glyph-name="r" unicode="r" d="M337 442 q0 -19 -14 -32.5 q-14 -13.5 -40 -17.5 q-31 -4 -63 -22 q-32 -18 -47 -41 l0 -282 q0 -22 -15.5 -37.5 q-15.5 -15.5 -36.5 -15.5 q-22 0 -37.5 15.5 q-15.5 15.5 -15.5 37.5 l0 389 q0 22 15.5 37.5 q15.5 15.5 36.5 15.5 q22 0 37.5 -15.5 q15.5 -15.5 15.5 -37.5 l0 -24 q46 59 93 73 q18 6 28 6 q20 0 31.5 -13.5 q11.5 -13.5 11.5 -35.5 Z" /><glyph glyph-name="s" unicode="s" d="M35 76 q0 19 13 32 q13 13 32 13 q14 0 25 -7 q64 -43 133 -43 q45 0 70 15.5 q25 15.5 25 43.5 q0 28 -25.5 42.5 q-25.5 14.5 -84.5 27.5 q-59 12 -94 25 q-88 35 -88 123 q0 62 51.5 104.5 q51.5 42.5 138.5 42.5 q90 0 161 -47 q19 -13 19 -35 q0 -17 -12.5 -29.5 q-12.5 -12.5 -29.5 -12.5 q-13 0 -23 7 q-51 33 -114 33 q-42 0 -66 -14.5 q-24 -14.5 -24 -39.5 q0 -24 24 -37 q24 -13 81 -26 q58 -12 95 -27 q92 -34 92 -129 q0 -67 -53.5 -108.5 q-53.5 -41.5 -147.5 -41.5 q-103 0 -178 51 q-20 13 -20 37 Z" /><glyph glyph-name="t" unicode="t" d="M310 40 q0 -28 -28 -40 q-28 -12 -69 -12 q-61 0 -92.5 32 q-31.5 32 -31.5 92 l0 279 l-40 0 q-19 0 -32.5 13.5 q-13.5 13.5 -13.5 32.5 q0 19 13.5 32.5 q13.5 13.5 32.5 13.5 l40 0 l0 85 q0 22 15.5 37.5 q15.5 15.5 37.5 15.5 q21 0 36.5 -15.5 q15.5 -15.5 15.5 -37.5 l0 -85 l58 0 q19 0 32.5 -13.5 q13.5 -13.5 13.5 -32.5 q0 -19 -13.5 -32.5 q-13.5 -13.5 -32.5 -13.5 l-58 0 l0 -253 q0 -26 12 -41.5 q12 -15.5 34 -15.5 q5 0 14 1.5 q9 1.5 12 1.5 q20 0 32 -12.5 q12 -12.5 12 -31.5 Z" /><glyph glyph-name="u" unicode="u" d="M499 436 l0 -389 q0 -22 -15.5 -37.5 q-15.5 -15.5 -36.5 -15.5 q-22 0 -37.5 15.5 q-15.5 15.5 -15.5 37.5 l0 16 q-70 -75 -171 -75 q-155 0 -155 153 l0 295 q0 22 15.5 37.5 q15.5 15.5 37.5 15.5 q21 0 36.5 -15.5 q15.5 -15.5 15.5 -37.5 l0 -257 q0 -52 24 -75 q24 -23 73 -23 q77 0 124 63 l0 292 q0 22 15.5 37.5 q15.5 15.5 36.5 15.5 q22 0 37.5 -15.5 q15.5 -15.5 15.5 -37.5 Z" /><glyph glyph-name="v" unicode="v" d="M482 437 q0 -9 -4 -20 l-152 -373 q-9 -23 -29 -36.5 q-20 -13.5 -45 -13.5 q-25 0 -45.5 13.5 q-20.5 13.5 -29.5 36.5 l-152 374 q-4 11 -4 19 q0 22 15 37 q15 15 36 15 q16 0 30 -9.5 q14 -9.5 19 -23.5 l130 -336 l130 336 q5 14 19 23.5 q14 9.5 30 9.5 q22 0 37 -15 q15 -15 15 -37 Z" /><glyph glyph-name="w" unicode="w" d="M475 45 l-98 309 l-98 -309 q-7 -23 -26 -37 q-19 -14 -43 -14 q-24 0 -43 14 q-19 14 -26 37 l-117 377 q-2 10 -2 15 q0 22 15 37 q15 15 36 15 q18 0 31.5 -10.5 q13.5 -10.5 18.5 -26.5 l93 -320 l103 315 q6 19 22 30.5 q16 11.5 36 11.5 q20 0 36 -11.5 q16 -11.5 22 -30.5 l103 -315 l93 320 q5 16 18.5 26.5 q13.5 10.5 31.5 10.5 q21 0 36 -15 q15 -15 15 -37 q0 -5 -2 -15 l-117 -377 q-7 -23 -26 -37 q-19 -14 -43 -14 q-24 0 -43 14 q-19 14 -26 37 Z" /><glyph glyph-name="x" unicode="x" d="M470 42 q0 -19 -13 -33.5 q-13 -14.5 -35 -14.5 q-25 0 -37 17 l-137 169 l-136 -166 q-17 -20 -38 -20 q-22 0 -35 14.5 q-13 14.5 -13 33.5 q0 16 11 30 l149 179 l-139 158 q-12 14 -12 30 q0 19 14.5 34.5 q14.5 15.5 34.5 15.5 q22 0 35 -16 l129 -151 l129 151 q13 16 35 16 q20 0 34.5 -15.5 q14.5 -15.5 14.5 -34.5 q0 -16 -12 -30 l-139 -158 l149 -179 q11 -14 11 -30 Z" /><glyph glyph-name="y" unicode="y" d="M98 -103 l5 0 q51 0 69 42 l24 55 l-172 424 q-3 9 -3 19 q0 22 15 37 q15 15 36 15 q16 0 30 -9.5 q14 -9.5 19 -23.5 l130 -335 l130 335 q5 14 19 23.5 q14 9.5 30 9.5 q22 0 37 -15 q15 -15 15 -37 q0 -9 -4 -20 l-206 -504 q-23 -58 -63.5 -83 q-40.5 -25 -102.5 -26 q-11 0 -15 1 q-18 2 -30.5 15 q-12.5 13 -12.5 31 q0 19 15 32.5 q15 13.5 35 13.5 Z" /><glyph glyph-name="z" unicode="z" d="M40 53 q0 19 11 33 l234 305 l-199 0 q-19 0 -32.5 13.5 q-13.5 13.5 -13.5 32.5 q0 19 13.5 32.5 q13.5 13.5 32.5 13.5 l293 0 q21 0 36.5 -15 q15.5 -15 15.5 -37 q0 -15 -11 -31 l-236 -309 l205 0 q19 0 32.5 -13 q13.5 -13 13.5 -32 q0 -19 -13.5 -32.5 q-13.5 -13.5 -32.5 -13.5 l-296 0 q-22 0 -37.5 15.5 q-15.5 15.5 -15.5 37.5 Z" /><glyph glyph-name="braceleft" unicode="{" d="M56 -42 l0 187 q0 50 -35 64 q-24 11 -24 35 q0 24 24 35 q35 14 35 64 l0 186 q0 65 42.5 107 q42.5 42 99.5 42 l35 0 q14 0 24.5 -10.5 q10.5 -10.5 10.5 -25.5 q0 -15 -10.5 -25.5 q-10.5 -10.5 -24.5 -10.5 l-35 0 q-27 0 -45.5 -22 q-18.5 -22 -18.5 -55 l0 -196 q0 -70 -46 -89 q46 -19 46 -89 l0 -196 q0 -33 18.5 -55 q18.5 -22 45.5 -22 l35 0 q14 0 24.5 -10.5 q10.5 -10.5 10.5 -25.5 q0 -16 -10 -26 q-10 -10 -25 -10 l-35 0 q-57 0 -99.5 42 q-42.5 42 -42.5 106 Z" /><glyph glyph-name="bar" unicode="|" d="M71 10 l0 647 q0 14 10.5 25 q10.5 11 25.5 11 q15 0 25.5 -11 q10.5 -11 10.5 -25 l0 -647 q0 -14 -10.5 -25 q-10.5 -11 -25.5 -11 q-15 0 -25.5 11 q-10.5 11 -10.5 25 Z" /><glyph glyph-name="braceright" unicode="}" d="M78 -190 l-35 0 q-15 0 -25 10 q-10 10 -10 26 q0 15 10.5 25.5 q10.5 10.5 24.5 10.5 l35 0 q27 0 45.5 22 q18.5 22 18.5 55 l0 196 q0 70 46 89 q-46 19 -46 89 l0 196 q0 33 -18.5 55 q-18.5 22 -45.5 22 l-35 0 q-14 0 -24.5 10.5 q-10.5 10.5 -10.5 25.5 q0 15 10.5 25.5 q10.5 10.5 24.5 10.5 l35 0 q57 0 99.5 -42 q42.5 -42 42.5 -107 l0 -186 q0 -50 35 -64 q24 -11 24 -35 q0 -24 -24 -35 q-35 -14 -35 -64 l0 -187 q0 -64 -42.5 -106 q-42.5 -42 -99.5 -42 Z" /><glyph glyph-name="asciitilde" unicode="~" d="M477 628 q-12 -104 -44.5 -157.5 q-32.5 -53.5 -96.5 -53.5 q-49 3 -70.5 28.5 q-21.5 25.5 -42.5 84.5 q-14 39 -24 54 q-10 15 -28 15 q-49 0 -68 -152 q-1 -14 -12 -23.5 q-11 -9.5 -25 -9.5 q-17 0 -28 13 q-11 13 -9 29 q13 103 46 156.5 q33 53.5 96 53.5 q49 -3 71 -28.5 q22 -25.5 42 -84.5 q13 -39 23.5 -54.5 q10.5 -15.5 28.5 -15.5 q52 0 68 153 q1 14 12 23.5 q11 9.5 25 9.5 q16 0 27 -12.5 q11 -12.5 9 -28.5 Z" /><glyph glyph-name="nonbreakingspace" unicode=" " d="" /><glyph glyph-name="exclamdown" unicode="¡" d="M171 472.5 q21 -20.5 21 -48.5 q0 -28 -20.5 -49 q-20.5 -21 -49.5 -21 q-28 0 -48.5 20.5 q-20.5 20.5 -20.5 49.5 q0 28 20.5 48.5 q20.5 20.5 48.5 20.5 q28 0 49 -20.5 ZM123 284 q19 0 32.5 -13 q13.5 -13 14.5 -32 l15 -365 q1 -26 -17.5 -45 q-18.5 -19 -44.5 -19 q-26 0 -44.5 18.5 q-18.5 18.5 -17.5 45.5 l14 365 q1 19 14.5 32 q13.5 13 33.5 13 Z" /><glyph glyph-name="cent" unicode="¢" d="M458 76 q0 -24 -17 -36 q-49 -43 -117 -50 l0 -57 q0 -16 -11.5 -27.5 q-11.5 -11.5 -27.5 -11.5 q-16 0 -27.5 11.5 q-11.5 11.5 -11.5 27.5 l0 58 q-93 14 -150.5 83 q-57.5 69 -57.5 168 q0 99 57.5 167.5 q57.5 68.5 150.5 82.5 l0 40 q0 16 11.5 27.5 q11.5 11.5 27.5 11.5 q16 0 27.5 -11.5 q11.5 -11.5 11.5 -27.5 l0 -39 q68 -7 117 -50 q17 -12 17 -36 q0 -19 -13.5 -33 q-13.5 -14 -33.5 -14 q-17 0 -31 11 q-25 21 -56 28 l0 -315 q31 7 56 28 q14 11 30 11 q20 0 34 -13.5 q14 -13.5 14 -33.5 ZM246 88 l0 307 q-46 -14 -72.5 -55 q-26.5 -41 -26.5 -98 q0 -57 26.5 -98 q26.5 -41 72.5 -56 Z" /><glyph glyph-name="sterling" unicode="£" d="M516 55 q0 -31 -29 -46 q-41 -22 -104 -22 q-45 0 -103 25 q-44 20 -77 20 q-41 0 -94 -36 q-8 -5 -18 -5 q-19 0 -32.5 13.5 q-13.5 13.5 -13.5 32.5 q0 26 22 41 q98 70 98 134 q0 29 -13 56 l-102 0 q-14 0 -24.5 10.5 q-10.5 10.5 -10.5 24.5 q0 14 10.5 24.5 q10.5 10.5 24.5 10.5 l54 0 q-31 41 -44.5 70.5 q-13.5 29.5 -13.5 65.5 q-2 85 70.5 145 q72.5 60 164.5 58 q118 0 185 -70 q14 -17 14 -36 q0 -22 -15 -37.5 q-15 -15.5 -37 -15.5 q-25 0 -41 19 q-38 44 -93 44 q-52 0 -86.5 -30.5 q-34.5 -30.5 -34.5 -78.5 q0 -31 11 -55 q11 -24 36 -58 l15 -21 l118 0 q14 0 24.5 -10.5 q10.5 -10.5 10.5 -24.5 q0 -14 -10.5 -24.5 q-10.5 -10.5 -24.5 -10.5 l-87 0 q3 -14 3 -29 q0 -74 -70 -120 q26 8 51 8 q32 0 74 -19 q37 -17 64 -17 q28 0 55 12 q7 4 21 4 q22 0 37 -15 q15 -15 15 -37 Z" /><glyph glyph-name="currency" unicode="¤" d="M511 190 l51 -51 q13 -13 13 -31 q0 -18 -13 -31 q-13 -13 -32 -13 q-18 0 -31 13 l-51 51 q-61 -39 -142 -39 q-80 0 -142 39 l-51 -51 q-13 -13 -31 -13 q-19 0 -32 13 q-13 13 -13 31 q0 18 13 31 l51 51 q-43 61 -43 143 q0 82 43 143 l-51 51 q-13 13 -13 31 q0 18 13 31 q13 13 32 13 q18 0 31 -13 l52 -52 q59 39 141 39 q82 0 141 -39 l52 52 q13 13 31 13 q19 0 32 -13 q13 -13 13 -31 q0 -18 -13 -31 l-51 -51 q43 -61 43 -143 q0 -82 -43 -143 ZM448 333 q0 61 -38 105 q-37 43 -104 43 q-67 0 -104 -43 q-38 -44 -38 -105 q0 -65 38.5 -107.5 q38.5 -42.5 103.5 -42.5 q65 0 103.5 42.5 q38.5 42.5 38.5 107.5 Z" /><glyph glyph-name="yen" unicode="¥" d="M591 617 q0 -18 -9 -30 l-161 -243 l166 0 q14 0 24 -10 q10 -10 10 -24 q0 -13 -10 -23 q-10 -10 -24 -10 l-210 0 l0 -92 l210 0 q14 0 24 -10 q10 -10 10 -24 q0 -13 -10 -23 q-10 -10 -24 -10 l-210 0 l0 -65 q0 -24 -17 -41.5 q-17 -17.5 -41 -17.5 q-25 0 -42 17.5 q-17 17.5 -17 41.5 l0 65 l-209 0 q-14 0 -24 10 q-10 10 -10 24 q0 13 10 23 q10 10 24 10 l209 0 l0 92 l-209 0 q-14 0 -24 10 q-10 10 -10 23 q0 14 10 24 q10 10 24 10 l165 0 l-161 242 q-10 13 -10 31 q0 23 16.5 39.5 q16.5 16.5 39.5 16.5 q29 0 47 -26 l171 -266 l169 266 q18 26 47 26 q23 0 39.5 -16.5 q16.5 -16.5 16.5 -39.5 Z" /><glyph glyph-name="brokenbar" unicode="¦" d="M71 401 l0 256 q0 14 10.5 25 q10.5 11 25.5 11 q15 0 25.5 -11 q10.5 -11 10.5 -25 l0 -256 q0 -14 -10.5 -25 q-10.5 -11 -25.5 -11 q-15 0 -25.5 11 q-10.5 11 -10.5 25 ZM71 10 l0 256 q0 14 10.5 25 q10.5 11 25.5 11 q15 0 25.5 -11 q10.5 -11 10.5 -25 l0 -256 q0 -14 -10.5 -25 q-10.5 -11 -25.5 -11 q-15 0 -25.5 11 q-10.5 11 -10.5 25 Z" /><glyph glyph-name="section" unicode="§" d="M434 71 q0 -70 -55 -111 q-55 -41 -146 -41 q-103 0 -180 57 q-16 13 -16 32 q0 17 12 28.5 q12 11.5 28 11.5 q13 0 24 -8 q64 -47 132 -47 q46 0 73 18.5 q27 18.5 27 51.5 q0 29 -26 44.5 q-26 15.5 -91 30.5 q-59 16 -91 28 q-84 35 -84 119 q0 46 29 78.5 q29 32.5 76 47.5 q-105 37 -105 125 q0 60 52.5 100.5 q52.5 40.5 137.5 40.5 q97 0 164 -48 q15 -12 15 -31 q0 -16 -11 -27 q-11 -11 -27 -11 q-12 0 -21 6 q-52 36 -116 36 q-42 0 -67.5 -17.5 q-25.5 -17.5 -25.5 -47.5 q0 -25 23.5 -37.5 q23.5 -12.5 87.5 -28.5 q54 -12 92 -26 q89 -35 89 -124 q0 -86 -87 -128 q87 -36 87 -122 ZM142 299 q0 -33 26.5 -48.5 q26.5 -15.5 93.5 -31.5 q69 29 69 84 q0 32 -24 50.5 q-24 18.5 -72 30.5 q-50 -12 -71.5 -32.5 q-21.5 -20.5 -21.5 -52.5 Z" /><glyph glyph-name="dieresis" unicode="¨" d="M46 623 q0 24 17 41 q17 17 42 17 q24 0 41 -17 q17 -17 17 -41 q0 -25 -17 -42 q-17 -17 -41 -17 q-25 0 -42 17 q-17 17 -17 42 ZM255 623 q0 24 17.5 41 q17.5 17 41.5 17 q24 0 41.5 -17 q17.5 -17 17.5 -41 q0 -25 -17.5 -42 q-17.5 -17 -41.5 -17 q-24 0 -41.5 17 q-17.5 17 -17.5 42 Z" /><glyph glyph-name="copyright" unicode="©" d="M389 679 q139 2 243 -101.5 q104 -103.5 102 -243.5 q2 -140 -102 -244 q-104 -104 -243 -101 q-139 -3 -243.5 101.5 q-104.5 104.5 -101.5 243.5 q-3 139 101 243 q104 104 244 102 ZM389 645 q-125 3 -219.5 -91.5 q-94.5 -94.5 -91.5 -219.5 q-3 -125 91.5 -219.5 q94.5 -94.5 219.5 -91.5 q125 -3 219.5 91.5 q94.5 94.5 91.5 219.5 q3 125 -91.5 219.5 q-94.5 94.5 -219.5 91.5 ZM393 546 q85 0 141 -59 q4 -4 4 -12 q0 -21 -20 -21 q-8 0 -15 7 q-45 48 -110 48 q-69 0 -117.5 -49.5 q-48.5 -49.5 -48.5 -124.5 q0 -74 49 -125 q49 -51 117 -51 q65 0 110 48 q7 7 15 7 q20 0 20 -21 q0 -8 -4 -12 q-56 -59 -141 -59 q-86 0 -147 62 q-61 62 -61 151 q0 89 61 150 q61 61 147 61 Z" /><glyph glyph-name="ordfeminine" unicode="ª" d="M327 529 l0 -170 q0 -16 -11.5 -27.5 q-11.5 -11.5 -27.5 -11.5 q-15 0 -26 11.5 q-11 11.5 -12 27.5 q-38 -41 -104 -41 q-46 0 -78.5 28.5 q-32.5 28.5 -32.5 75.5 q0 47 32.5 74.5 q32.5 27.5 78.5 27.5 q68 0 104 -40 l0 46 q0 27 -20 43 q-20 16 -53 16 q-39 0 -77 -26 q-7 -5 -16 -5 q-12 0 -20.5 8 q-8.5 8 -8.5 20 q0 15 12 24 q56 38 122 38 q64 0 101 -29.5 q37 -29.5 37 -89.5 ZM250 400 l0 44 q-24 32 -73 32 q-28 0 -46.5 -15 q-18.5 -15 -18.5 -39 q0 -24 18.5 -39.5 q18.5 -15.5 46.5 -15.5 q48 0 73 33 Z" /><glyph glyph-name="guillemotleft" unicode="«" d="M184 70 l-115 129 q-19 22 -19 44 q0 25 19 44 l115 127 q10 12 28 12 q15 0 25.5 -11 q10.5 -11 10.5 -26 q0 -15 -9 -24 l-110 -122 l111 -124 q9 -9 9 -25 q0 -15 -11 -26 q-11 -11 -26 -11 q-15 0 -28 13 ZM354 70 l-115 129 q-19 22 -19 44 q0 25 19 44 l115 127 q10 12 28 12 q15 0 25.5 -11 q10.5 -11 10.5 -26 q0 -15 -9 -24 l-110 -122 l111 -124 q9 -9 9 -25 q0 -15 -11 -26 q-11 -11 -26 -11 q-15 0 -28 13 Z" /><glyph glyph-name="logicalnot" unicode="¬" d="M462.5 209.5 q-10.5 -10.5 -24.5 -10.5 q-14 0 -24.5 10.5 q-10.5 10.5 -10.5 24.5 l0 161 l-346 0 q-14 0 -24 10 q-10 10 -10 24 q0 14 10 24 q10 10 24 10 l354 0 q62 0 62 -62 l0 -167 q0 -14 -10.5 -24.5 Z" /><glyph glyph-name="uni00AD" unicode="­" d="M37.5 210 q-13.5 13 -13.5 32 q0 19 13.5 32 q13.5 13 31.5 13 l162 0 q18 0 31.5 -13 q13.5 -13 13.5 -32 q0 -19 -13.5 -32 q-13.5 -13 -31.5 -13 l-162 0 q-18 0 -31.5 13 Z" /><glyph glyph-name="registered" unicode="®" d="M97 615 q62 62 150 62 q88 0 150 -62 q62 -62 62 -150 q0 -88 -62 -150 q-62 -62 -150 -62 q-88 0 -150 62 q-62 62 -62 150 q0 88 62 150 ZM375 593 q-53 53 -128 53 q-75 0 -128.5 -53 q-53.5 -53 -53.5 -128 q0 -74 53.5 -128 q53.5 -54 128.5 -54 q74 0 127.5 54 q53.5 54 53.5 128 q0 75 -53 128 ZM311 346 l-61 93 l-51 0 l0 -84 q0 -16 -16 -16 q-7 0 -12 4.5 q-5 4.5 -5 11.5 l0 211 q0 8 6 14 q6 6 14 6 l79 0 q33 0 55.5 -21 q22.5 -21 22.5 -53 q0 -29 -17 -48 q-17 -19 -38 -23 l52 -76 q3 -5 3 -9 q0 -7 -5.5 -12.5 q-5.5 -5.5 -12.5 -5.5 q-9 0 -14 8 ZM265 557 l-66 0 l0 -88 l66 0 q18 0 31 12.5 q13 12.5 13 30.5 q0 18 -13.5 31.5 q-13.5 13.5 -30.5 13.5 Z" /><glyph glyph-name="macron" unicode="¯" d="M23 575 q-9 9 -9 22 q0 13 9 22 q9 9 22 9 l273 0 q13 0 22 -9 q9 -9 9 -22 q0 -13 -9 -22 q-9 -9 -22 -9 l-273 0 q-13 0 -22 9 Z" /><glyph glyph-name="degree" unicode="°" d="M21 547 q0 53 38 91.5 q38 38.5 91 38.5 q53 0 91.5 -38.5 q38.5 -38.5 38.5 -91.5 q0 -54 -38 -91.5 q-38 -37.5 -92 -37.5 q-53 0 -91 37.5 q-38 37.5 -38 91.5 ZM102 596.5 q-20 -20.5 -20 -49.5 q0 -29 20 -49 q20 -20 48 -20 q29 0 49.5 20.5 q20.5 20.5 20.5 48.5 q0 29 -20.5 49.5 q-20.5 20.5 -49.5 20.5 q-28 0 -48 -20.5 Z" /><glyph glyph-name="plusminus" unicode="±" d="M288 325 l0 -177 q0 -15 -11 -26 q-11 -11 -26 -11 q-15 0 -26 11 q-11 11 -11 26 l0 177 l-157 0 q-14 0 -24 10 q-10 10 -10 23 q0 14 10 24 q10 10 24 10 l157 0 l0 170 q0 15 11 26 q11 11 26 11 q15 0 26 -11 q11 -11 11 -26 l0 -170 l157 0 q14 0 24 -10 q10 -10 10 -23 q0 -14 -10 -24 q-10 -10 -24 -10 l-157 0 ZM23 34 q0 13 10 23 q10 10 24 10 l388 0 q14 0 24 -10 q10 -10 10 -24 q0 -13 -10 -23 q-10 -10 -24 -10 l-388 0 q-14 0 -24 10 q-10 10 -10 24 Z" /><glyph glyph-name="twosuperior" unicode="²" d="M12 460 q0 19 17 31 q124 86 166 127 q42 41 44 81 q0 30 -21 46.5 q-21 16.5 -54 16.5 q-49 0 -92 -32 q-11 -8 -20 -8 q-14 0 -23.5 10 q-9.5 10 -9.5 24 q0 16 12 26 q55 45 135 45 q68 0 110.5 -32.5 q42.5 -32.5 42.5 -89.5 q0 -50 -43 -100.5 q-43 -50.5 -141 -118.5 l160 0 q13 0 23 -9.5 q10 -9.5 10 -22.5 q0 -13 -9.5 -23 q-9.5 -10 -23.5 -10 l-244 0 q-16 0 -27.5 11.5 q-11.5 11.5 -11.5 27.5 Z" /><glyph glyph-name="threesuperior" unicode="³" d="M35 458 q-12 10 -12 27 q0 14 10 23.5 q10 9.5 24 9.5 q13 0 20 -6 q43 -33 95 -33 q39 0 60.5 15.5 q21.5 15.5 21.5 41.5 q0 57 -95 57 l-17 0 q-13 0 -22.5 9.5 q-9.5 9.5 -9.5 22.5 q0 13 9.5 22 q9.5 9 22.5 9 l16 0 q89 0 89 53 q0 24 -22 38.5 q-22 14.5 -58 14.5 q-49 0 -89 -30 q-8 -6 -19 -6 q-13 0 -22 9 q-9 9 -9 22 q0 15 12 25 q57 45 135 45 q69 0 110.5 -29.5 q41.5 -29.5 41.5 -78.5 q0 -35 -25.5 -60.5 q-25.5 -25.5 -63.5 -31.5 q36 -3 65 -28 q31 -25 31 -68 q0 -52 -43.5 -84.5 q-43.5 -32.5 -115.5 -32.5 q-84 0 -140 44 Z" /><glyph glyph-name="acute" unicode="´" d="M76 557 q-7 -7 -18 -7 q-11 0 -19 8 q-8 8 -8 19 q0 8 8 19 l97 100 q10 10 24 10 q13 0 22.5 -9.5 q9.5 -9.5 9.5 -23.5 q0 -15 -11 -24 l-105 -92 Z" /><glyph glyph-name="mu" unicode="µ" d="M571 34 q0 -19 -13 -32 q-13 -13 -31 -14 l-9 0 q-96 0 -119 86 q-25 -39 -63 -62.5 q-38 -23.5 -80 -23.5 q-61 0 -83 36 l0 -161 q0 -22 -15.5 -37.5 q-15.5 -15.5 -37.5 -15.5 q-21 0 -36.5 15.5 q-15.5 15.5 -15.5 37.5 l0 573 q0 22 15.5 37.5 q15.5 15.5 37.5 15.5 q21 0 36.5 -15.5 q15.5 -15.5 15.5 -37.5 l0 -257 q0 -99 98 -99 q36 0 69 18 q33 18 54 46 l0 292 q0 22 15.5 37.5 q15.5 15.5 36.5 15.5 q22 0 37.5 -15.5 q15.5 -15.5 15.5 -37.5 l0 -305 q0 -45 30 -50 l6 -1 q17 -3 26.5 -16 q9.5 -13 9.5 -30 Z" /><glyph glyph-name="paragraph" unicode="¶" d="M337 -78 l0 690 l-83 0 l0 -690 q0 -11 -8 -19.5 q-8 -8.5 -20 -8.5 q-11 0 -19 8.5 q-8 8.5 -8 19.5 l0 401 q-71 0 -121.5 50.5 q-50.5 50.5 -50.5 121.5 q0 71 50.5 121.5 q50.5 50.5 121.5 50.5 l131 0 q62 0 62 -62 l0 -683 q0 -11 -8 -19.5 q-8 -8.5 -19 -8.5 q-12 0 -20 8.5 q-8 8.5 -8 19.5 Z" /><glyph glyph-name="middot" unicode="·" d="M52 244 q0 29 21 49.5 q21 20.5 49 20.5 q29 0 49.5 -20.5 q20.5 -20.5 20.5 -49.5 q0 -28 -21 -48.5 q-21 -20.5 -49 -20.5 q-28 0 -49 20.5 q-21 20.5 -21 48.5 Z" /><glyph glyph-name="cedilla" unicode="¸" d="M14 -172 q-14 8 -14 22 q0 11 7.5 18.5 q7.5 7.5 17.5 7.5 q6 0 13 -4 q32 -18 65 -18 q24 0 40 9.5 q16 9.5 16 26.5 q0 30 -33 30 q-16 0 -27 -9 q-8 -5 -16 -5 q-12 0 -20 8 q-8 8 -8 20 q0 2 2 10 l25 67 l55 0 l-26 -64 q17 11 36 11 q29 0 48 -19.5 q19 -19.5 19 -49.5 q0 -36 -31 -59.5 q-31 -23.5 -77 -23.5 q-52 0 -92 22 Z" /><glyph glyph-name="onesuperior" unicode="¹" d="M113 456 l0 261 l-47 -48 q-9 -10 -24 -10 q-13 0 -23 10 q-10 10 -10 23 q0 14 10 24 l98 98 q13 13 32 13 q19 0 32 -13 q13 -13 13 -32 l0 -326 q0 -17 -12 -29 q-12 -12 -29 -12 q-16 0 -28 12 q-12 12 -12 29 Z" /><glyph glyph-name="ordmasculine" unicode="º" d="M202 648 q76 0 122.5 -47.5 q46.5 -47.5 46.5 -117.5 q0 -70 -46.5 -117.5 q-46.5 -47.5 -122.5 -47.5 q-75 0 -121.5 47.5 q-46.5 47.5 -46.5 117.5 q0 70 46.5 117.5 q46.5 47.5 121.5 47.5 ZM267 555.5 q-24 27.5 -65 27.5 q-41 0 -64.5 -27.5 q-23.5 -27.5 -23.5 -72.5 q0 -46 23.5 -74 q23.5 -28 64.5 -28 q41 0 65 28 q24 28 24 74 q0 45 -24 72.5 Z" /><glyph glyph-name="guillemotright" unicode="»" d="M70 94 q0 16 9 25 l111 124 l-110 122 q-9 9 -9 24 q0 15 10.5 26 q10.5 11 25.5 11 q17 0 28 -12 l115 -127 q19 -19 19 -44 q0 -22 -19 -44 l-115 -129 q-13 -13 -28 -13 q-15 0 -26 11 q-11 11 -11 26 ZM240 94 q0 16 9 25 l111 124 l-110 122 q-9 9 -9 24 q0 15 10.5 26 q10.5 11 25.5 11 q17 0 28 -12 l115 -127 q19 -19 19 -44 q0 -22 -19 -44 l-115 -129 q-13 -13 -28 -13 q-15 0 -26 11 q-11 11 -11 26 Z" /><glyph glyph-name="onequarter" unicode="¼" d="M113 302 l0 261 l-47 -48 q-9 -10 -24 -10 q-13 0 -23 10 q-10 10 -10 23 q0 14 10 24 l98 98 q13 13 32 13 q19 0 32 -13 q13 -13 13 -32 l0 -326 q0 -17 -12 -29 q-12 -12 -29 -12 q-16 0 -28 12 q-12 12 -12 29 ZM155 -6 q-12 0 -20 8.5 q-8 8.5 -8 19.5 q0 9 4 16 l397 622 q7 13 24 13 q12 0 20.5 -8.5 q8.5 -8.5 8.5 -20.5 q0 -8 -4 -15 l-398 -622 q-9 -13 -24 -13 ZM729.5 146.5 q9.5 -9.5 9.5 -22.5 q0 -13 -9.5 -22.5 q-9.5 -9.5 -22.5 -9.5 l-29 0 l0 -58 q0 -16 -11.5 -28 q-11.5 -12 -28.5 -12 q-16 0 -28 12 q-12 12 -12 28 l0 58 l-166 0 q-15 0 -25.5 10.5 q-10.5 10.5 -10.5 25.5 q0 10 6 20 l147 226 q19 32 59 32 q29 0 49.5 -20.5 q20.5 -20.5 20.5 -49.5 l0 -180 l29 0 q13 0 22.5 -9.5 ZM482 156 l116 0 l0 175 l-116 -175 Z" /><glyph glyph-name="onehalf" unicode="½" d="M113 302 l0 261 l-47 -48 q-9 -10 -24 -10 q-13 0 -23 10 q-10 10 -10 23 q0 14 10 24 l98 98 q13 13 32 13 q19 0 32 -13 q13 -13 13 -32 l0 -326 q0 -17 -12 -29 q-12 -12 -29 -12 q-16 0 -28 12 q-12 12 -12 29 ZM155 -6 q-12 0 -20 8.5 q-8 8.5 -8 19.5 q0 9 4 16 l397 622 q7 13 24 13 q12 0 20.5 -8.5 q8.5 -8.5 8.5 -20.5 q0 -8 -4 -15 l-398 -622 q-9 -13 -24 -13 ZM441 39 q0 19 17 31 q124 86 166 127 q42 41 44 81 q0 30 -21 46.5 q-21 16.5 -54 16.5 q-49 0 -92 -32 q-11 -8 -20 -8 q-14 0 -23.5 10 q-9.5 10 -9.5 24 q0 15 12 26 q56 45 135 45 q68 0 110.5 -32.5 q42.5 -32.5 42.5 -89.5 q0 -50 -43 -100.5 q-43 -50.5 -141 -118.5 l160 0 q13 0 23 -9.5 q10 -9.5 10 -22.5 q0 -13 -9.5 -23 q-9.5 -10 -23.5 -10 l-244 0 q-16 0 -27.5 11.5 q-11.5 11.5 -11.5 27.5 Z" /><glyph glyph-name="threequarters" unicode="¾" d="M35 304 q-12 10 -12 27 q0 14 10 23.5 q10 9.5 24 9.5 q13 0 20 -6 q43 -33 95 -33 q39 0 60.5 15.5 q21.5 15.5 21.5 41.5 q0 57 -95 57 l-17 0 q-13 0 -22.5 9.5 q-9.5 9.5 -9.5 22.5 q0 13 9.5 22 q9.5 9 22.5 9 l16 0 q89 0 89 53 q0 24 -22 38.5 q-22 14.5 -58 14.5 q-49 0 -89 -30 q-8 -6 -19 -6 q-13 0 -22 9 q-9 9 -9 22 q0 15 12 25 q57 45 135 45 q69 0 110.5 -29.5 q41.5 -29.5 41.5 -78.5 q0 -35 -25.5 -60.5 q-25.5 -25.5 -63.5 -31.5 q36 -3 65 -28 q31 -25 31 -68 q0 -52 -43.5 -84.5 q-43.5 -32.5 -115.5 -32.5 q-84 0 -140 44 ZM249 -6 q-12 0 -20 8.5 q-8 8.5 -8 19.5 q0 9 4 16 l397 622 q7 13 24 13 q12 0 20.5 -8.5 q8.5 -8.5 8.5 -20.5 q0 -8 -4 -15 l-398 -622 q-9 -13 -24 -13 ZM823.5 146.5 q9.5 -9.5 9.5 -22.5 q0 -13 -9.5 -22.5 q-9.5 -9.5 -22.5 -9.5 l-29 0 l0 -58 q0 -16 -11.5 -28 q-11.5 -12 -28.5 -12 q-16 0 -28 12 q-12 12 -12 28 l0 58 l-166 0 q-15 0 -25.5 10.5 q-10.5 10.5 -10.5 25.5 q0 10 6 20 l147 226 q19 32 59 32 q29 0 49.5 -20.5 q20.5 -20.5 20.5 -49.5 l0 -180 l29 0 q13 0 22.5 -9.5 ZM576 156 l116 0 l0 175 l-116 -175 Z" /><glyph glyph-name="questiondown" unicode="¿" d="M233 353 q-28 0 -49 21 q-21 21 -21 49 q0 29 21 49.5 q21 20.5 49 20.5 q29 0 49.5 -20.5 q20.5 -20.5 20.5 -49.5 q0 -28 -20.5 -49 q-20.5 -21 -49.5 -21 ZM214 69 q-39 -27 -54.5 -45 q-15.5 -18 -15.5 -43 q0 -32 25 -52 q25 -20 70 -20 q63 0 109 40 q14 11 32 11 q21 0 36 -14.5 q15 -14.5 15 -35.5 q0 -24 -18 -39 q-78 -66 -186 -66 q-92 0 -147.5 44 q-55.5 44 -55.5 113 q3 57 27 88.5 q24 31.5 79 69.5 q42 30 57.5 48 q15.5 18 15.5 43 q0 1 -0.5 2.5 q-0.5 1.5 -1 4.5 q-0.5 3 -0.5 6 l-1 10 q0 21 14 35.5 q14 14.5 35 14.5 q29 0 42 -26 q14 -30 14 -57 q0 -41 -20.5 -68.5 q-20.5 -27.5 -70.5 -63.5 Z" /><glyph glyph-name="Agrave" unicode="à" d="M646 54 q0 -25 -17.5 -42.5 q-17.5 -17.5 -42.5 -17.5 q-19 0 -34 10.5 q-15 10.5 -21 27.5 l-35 96 l-320 0 l-35 -96 q-6 -17 -21 -27.5 q-15 -10.5 -34 -10.5 q-25 0 -42.5 17.5 q-17.5 17.5 -17.5 42.5 q0 4 5 21 l209 532 q12 30 38 48 q26 18 58 18 q32 0 58 -18 q26 -18 38 -48 l209 -532 q5 -17 5 -21 ZM213 231 l246 0 l-123 337 l-123 -337 ZM317 724 l-105 92 q-11 9 -11 24 q0 14 9.5 23.5 q9.5 9.5 22.5 9.5 q14 0 24 -10 l97 -100 q8 -11 8 -19 q0 -11 -8 -19 q-8 -8 -19 -8 q-11 0 -18 7 Z" /><glyph glyph-name="Aacute" unicode="á" d="M646 54 q0 -25 -17.5 -42.5 q-17.5 -17.5 -42.5 -17.5 q-19 0 -34 10.5 q-15 10.5 -21 27.5 l-35 96 l-320 0 l-35 -96 q-6 -17 -21 -27.5 q-15 -10.5 -34 -10.5 q-25 0 -42.5 17.5 q-17.5 17.5 -17.5 42.5 q0 4 5 21 l209 532 q12 30 38 48 q26 18 58 18 q32 0 58 -18 q26 -18 38 -48 l209 -532 q5 -17 5 -21 ZM213 231 l246 0 l-123 337 l-123 -337 ZM361 724 q-7 -7 -18 -7 q-11 0 -19 8 q-8 8 -8 19 q0 8 8 19 l97 100 q10 10 24 10 q13 0 22.5 -9.5 q9.5 -9.5 9.5 -23.5 q0 -15 -11 -24 l-105 -92 Z" /><glyph glyph-name="Acircumflex" unicode="â" d="M646 54 q0 -25 -17.5 -42.5 q-17.5 -17.5 -42.5 -17.5 q-19 0 -34 10.5 q-15 10.5 -21 27.5 l-35 96 l-320 0 l-35 -96 q-6 -17 -21 -27.5 q-15 -10.5 -34 -10.5 q-25 0 -42.5 17.5 q-17.5 17.5 -17.5 42.5 q0 4 5 21 l209 532 q12 30 38 48 q26 18 58 18 q32 0 58 -18 q26 -18 38 -48 l209 -532 q5 -17 5 -21 ZM213 231 l246 0 l-123 337 l-123 -337 ZM409 727 l-72 92 l-72 -92 q-7 -10 -21 -10 q-12 0 -20.5 8 q-8.5 8 -8.5 21 q0 10 4 14 l57 88 q15 25 47 25 l28 0 q32 0 47 -25 l57 -88 q4 -4 4 -14 q0 -13 -8.5 -21 q-8.5 -8 -20.5 -8 q-14 0 -21 10 Z" /><glyph glyph-name="Atilde" unicode="ã" d="M646 54 q0 -25 -17.5 -42.5 q-17.5 -17.5 -42.5 -17.5 q-19 0 -34 10.5 q-15 10.5 -21 27.5 l-35 96 l-320 0 l-35 -96 q-6 -17 -21 -27.5 q-15 -10.5 -34 -10.5 q-25 0 -42.5 17.5 q-17.5 17.5 -17.5 42.5 q0 4 5 21 l209 532 q12 30 38 48 q26 18 58 18 q32 0 58 -18 q26 -18 38 -48 l209 -532 q5 -17 5 -21 ZM213 231 l246 0 l-123 337 l-123 -337 ZM318 767 q-24 32 -43 32 q-34 0 -41 -53 q-5 -25 -28 -25 q-13 0 -21.5 10 q-8.5 10 -6.5 22 q6 52 32 80 q26 28 69 28 q24 0 39.5 -10.5 q15.5 -10.5 35.5 -35.5 q26 -32 44 -32 q33 0 40 53 q2 25 28 25 q13 0 21.5 -9.5 q8.5 -9.5 7.5 -22.5 q-6 -52 -32 -80 q-26 -28 -69 -28 q-24 0 -40.5 11 q-16.5 11 -35.5 35 Z" /><glyph glyph-name="Adieresis" unicode="ä" d="M646 54 q0 -25 -17.5 -42.5 q-17.5 -17.5 -42.5 -17.5 q-19 0 -34 10.5 q-15 10.5 -21 27.5 l-35 96 l-320 0 l-35 -96 q-6 -17 -21 -27.5 q-15 -10.5 -34 -10.5 q-25 0 -42.5 17.5 q-17.5 17.5 -17.5 42.5 q0 4 5 21 l209 532 q12 30 38 48 q26 18 58 18 q32 0 58 -18 q26 -18 38 -48 l209 -532 q5 -17 5 -21 ZM213 231 l246 0 l-123 337 l-123 -337 ZM173 790 q0 24 17 41 q17 17 42 17 q24 0 41 -17 q17 -17 17 -41 q0 -25 -17 -42 q-17 -17 -41 -17 q-25 0 -42 17 q-17 17 -17 42 ZM382 790 q0 24 17.5 41 q17.5 17 41.5 17 q24 0 41.5 -17 q17.5 -17 17.5 -41 q0 -25 -17.5 -42 q-17.5 -17 -41.5 -17 q-24 0 -41.5 17 q-17.5 17 -17.5 42 Z" /><glyph glyph-name="Aring" unicode="å" d="M646 54 q0 -25 -17.5 -42.5 q-17.5 -17.5 -42.5 -17.5 q-19 0 -34 10.5 q-15 10.5 -21 27.5 l-35 96 l-320 0 l-35 -96 q-6 -17 -21 -27.5 q-15 -10.5 -34 -10.5 q-25 0 -42.5 17.5 q-17.5 17.5 -17.5 42.5 q0 4 5 21 l209 532 q12 30 38 48 q26 18 58 18 q32 0 58 -18 q26 -18 38 -48 l209 -532 q5 -17 5 -21 ZM213 231 l246 0 l-123 337 l-123 -337 ZM265 877.5 q30 30.5 72 30.5 q42 0 71.5 -30.5 q29.5 -30.5 29.5 -72.5 q0 -42 -29.5 -72 q-29.5 -30 -71.5 -30 q-42 0 -72 30 q-30 30 -30 72 q0 42 30 72.5 ZM337 857 q-21 0 -36.5 -15 q-15.5 -15 -15.5 -37 q0 -21 15.5 -36.5 q15.5 -15.5 36.5 -15.5 q21 0 36 15.5 q15 15.5 15 36.5 q0 22 -14.5 37 q-14.5 15 -36.5 15 Z" /><glyph glyph-name="AE" unicode="æ" d="M918 52 q0 -22 -15.5 -37 q-15.5 -15 -36.5 -15 l-349 0 q-62 0 -62 62 l0 66 l-255 0 l-62 -108 q-16 -26 -46 -26 q-23 0 -39 16 q-16 16 -16 39 q0 14 8 28 l337 548 q28 42 75 42 l409 0 q21 0 36.5 -15 q15.5 -15 15.5 -37 q0 -21 -15.5 -36 q-15.5 -15 -36.5 -15 l-294 0 l0 -173 l287 0 q21 0 36.5 -15 q15.5 -15 15.5 -36 q0 -22 -15.5 -37 q-15.5 -15 -36.5 -15 l-287 0 l0 -185 l294 0 q21 0 36.5 -15 q15.5 -15 15.5 -36 ZM260 231 l195 0 l0 338 l-195 -338 Z" /><glyph glyph-name="Ccedilla" unicode="ç" d="M618 163 q16 -16 16 -39 q0 -23 -14 -37 q-86 -94 -213 -98 l-17 -42 q17 11 36 11 q29 0 48 -19.5 q19 -19.5 19 -49.5 q0 -36 -31 -59.5 q-31 -23.5 -77 -23.5 q-52 0 -92 22 q-14 8 -14 22 q0 11 7.5 18.5 q7.5 7.5 17.5 7.5 q6 0 13 -4 q31 -18 65 -18 q24 0 40 9.5 q16 9.5 16 26.5 q0 30 -33 30 q-17 0 -27 -9 q-8 -5 -16 -5 q-12 0 -20 8 q-8 8 -8 20 q0 2 2 10 l17 45 q-133 8 -223.5 106.5 q-90.5 98.5 -88.5 237.5 q-2 148 99.5 247.5 q101.5 99.5 245.5 97.5 q144 0 234 -99 q14 -14 14 -37 q0 -22 -16 -38.5 q-16 -16.5 -39 -16.5 q-26 0 -42 19 q-59 68 -151 68 q-96 0 -160.5 -68.5 q-64.5 -68.5 -64.5 -172.5 q0 -104 64.5 -172.5 q64.5 -68.5 160.5 -68.5 q93 0 152 68 q16 19 41 19 q23 0 39 -16 Z" /><glyph glyph-name="Egrave" unicode="è" d="M71 62 l0 543 q0 62 62 62 l349 0 q21 0 36.5 -15 q15.5 -15 15.5 -37 q0 -21 -15.5 -36 q-15.5 -15 -36.5 -15 l-294 0 l0 -173 l287 0 q21 0 36.5 -15 q15.5 -15 15.5 -36 q0 -22 -15.5 -37 q-15.5 -15 -36.5 -15 l-287 0 l0 -185 l294 0 q21 0 36.5 -15 q15.5 -15 15.5 -36 q0 -22 -15.5 -37 q-15.5 -15 -36.5 -15 l-349 0 q-62 0 -62 62 ZM287 724 l-105 92 q-11 9 -11 24 q0 14 9.5 23.5 q9.5 9.5 22.5 9.5 q14 0 24 -10 l97 -100 q8 -11 8 -19 q0 -11 -8 -19 q-8 -8 -19 -8 q-11 0 -18 7 Z" /><glyph glyph-name="Eacute" unicode="é" d="M71 62 l0 543 q0 62 62 62 l349 0 q21 0 36.5 -15 q15.5 -15 15.5 -37 q0 -21 -15.5 -36 q-15.5 -15 -36.5 -15 l-294 0 l0 -173 l287 0 q21 0 36.5 -15 q15.5 -15 15.5 -36 q0 -22 -15.5 -37 q-15.5 -15 -36.5 -15 l-287 0 l0 -185 l294 0 q21 0 36.5 -15 q15.5 -15 15.5 -36 q0 -22 -15.5 -37 q-15.5 -15 -36.5 -15 l-349 0 q-62 0 -62 62 ZM331 724 q-7 -7 -18 -7 q-11 0 -19 8 q-8 8 -8 19 q0 8 8 19 l97 100 q10 10 24 10 q13 0 22.5 -9.5 q9.5 -9.5 9.5 -23.5 q0 -15 -11 -24 l-105 -92 Z" /><glyph glyph-name="Ecircumflex" unicode="ê" d="M71 62 l0 543 q0 62 62 62 l349 0 q21 0 36.5 -15 q15.5 -15 15.5 -37 q0 -21 -15.5 -36 q-15.5 -15 -36.5 -15 l-294 0 l0 -173 l287 0 q21 0 36.5 -15 q15.5 -15 15.5 -36 q0 -22 -15.5 -37 q-15.5 -15 -36.5 -15 l-287 0 l0 -185 l294 0 q21 0 36.5 -15 q15.5 -15 15.5 -36 q0 -22 -15.5 -37 q-15.5 -15 -36.5 -15 l-349 0 q-62 0 -62 62 ZM379 727 l-72 92 l-72 -92 q-7 -10 -21 -10 q-12 0 -20.5 8 q-8.5 8 -8.5 21 q0 10 4 14 l57 88 q15 25 47 25 l28 0 q32 0 47 -25 l57 -88 q4 -4 4 -14 q0 -13 -8.5 -21 q-8.5 -8 -20.5 -8 q-14 0 -21 10 Z" /><glyph glyph-name="Edieresis" unicode="ë" d="M71 62 l0 543 q0 62 62 62 l349 0 q21 0 36.5 -15 q15.5 -15 15.5 -37 q0 -21 -15.5 -36 q-15.5 -15 -36.5 -15 l-294 0 l0 -173 l287 0 q21 0 36.5 -15 q15.5 -15 15.5 -36 q0 -22 -15.5 -37 q-15.5 -15 -36.5 -15 l-287 0 l0 -185 l294 0 q21 0 36.5 -15 q15.5 -15 15.5 -36 q0 -22 -15.5 -37 q-15.5 -15 -36.5 -15 l-349 0 q-62 0 -62 62 ZM143 790 q0 24 17 41 q17 17 42 17 q24 0 41 -17 q17 -17 17 -41 q0 -25 -17 -42 q-17 -17 -41 -17 q-25 0 -42 17 q-17 17 -17 42 ZM352 790 q0 24 17.5 41 q17.5 17 41.5 17 q24 0 41.5 -17 q17.5 -17 17.5 -41 q0 -25 -17.5 -42 q-17.5 -17 -41.5 -17 q-24 0 -41.5 17 q-17.5 17 -17.5 42 Z" /><glyph glyph-name="Igrave" unicode="ì" d="M71 53 l0 561 q0 24 17 41.5 q17 17.5 42 17.5 q24 0 41 -17.5 q17 -17.5 17 -41.5 l0 -561 q0 -24 -17 -41.5 q-17 -17.5 -41 -17.5 q-25 0 -42 17.5 q-17 17.5 -17 41.5 ZM111 724 l-105 92 q-11 9 -11 24 q0 14 9.5 23.5 q9.5 9.5 22.5 9.5 q14 0 24 -10 l97 -100 q8 -11 8 -19 q0 -11 -8 -19 q-8 -8 -19 -8 q-11 0 -18 7 Z" /><glyph glyph-name="Iacute" unicode="í" d="M71 53 l0 561 q0 24 17 41.5 q17 17.5 42 17.5 q24 0 41 -17.5 q17 -17.5 17 -41.5 l0 -561 q0 -24 -17 -41.5 q-17 -17.5 -41 -17.5 q-25 0 -42 17.5 q-17 17.5 -17 41.5 ZM155 724 q-7 -7 -18 -7 q-11 0 -19 8 q-8 8 -8 19 q0 8 8 19 l97 100 q10 10 24 10 q13 0 22.5 -9.5 q9.5 -9.5 9.5 -23.5 q0 -15 -11 -24 l-105 -92 Z" /><glyph glyph-name="Icircumflex" unicode="î" d="M71 53 l0 561 q0 24 17 41.5 q17 17.5 42 17.5 q24 0 41 -17.5 q17 -17.5 17 -41.5 l0 -561 q0 -24 -17 -41.5 q-17 -17.5 -41 -17.5 q-25 0 -42 17.5 q-17 17.5 -17 41.5 ZM203 727 l-72 92 l-72 -92 q-7 -10 -21 -10 q-12 0 -20.5 8 q-8.5 8 -8.5 21 q0 10 4 14 l57 88 q15 25 47 25 l28 0 q32 0 47 -25 l57 -88 q4 -4 4 -14 q0 -13 -8.5 -21 q-8.5 -8 -20.5 -8 q-14 0 -21 10 Z" /><glyph glyph-name="Idieresis" unicode="ï" d="M71 53 l0 561 q0 24 17 41.5 q17 17.5 42 17.5 q24 0 41 -17.5 q17 -17.5 17 -41.5 l0 -561 q0 -24 -17 -41.5 q-17 -17.5 -41 -17.5 q-25 0 -42 17.5 q-17 17.5 -17 41.5 ZM-33 790 q0 24 17 41 q17 17 42 17 q24 0 41 -17 q17 -17 17 -41 q0 -25 -17 -42 q-17 -17 -41 -17 q-25 0 -42 17 q-17 17 -17 42 ZM176 790 q0 24 17.5 41 q17.5 17 41.5 17 q24 0 41.5 -17 q17.5 -17 17.5 -41 q0 -25 -17.5 -42 q-17.5 -17 -41.5 -17 q-24 0 -41.5 17 q-17.5 17 -17.5 42 Z" /><glyph glyph-name="Eth" unicode="ð" d="M597 573.5 q97 -93.5 97 -240.5 q0 -147 -97 -240 q-97 -93 -252 -93 l-186 0 q-62 0 -62 62 l0 223 l-51 0 q-17 0 -30 12.5 q-13 12.5 -13 30.5 q0 18 13 30.5 q13 12.5 30 12.5 l51 0 l0 234 q0 62 62 62 l186 0 q155 0 252 -93.5 ZM574 333 q0 101 -61 166 q-61 65 -168 65 l-131 0 l0 -193 l121 0 q17 0 30 -12.5 q13 -12.5 13 -30.5 q0 -18 -13 -30.5 q-13 -12.5 -30 -12.5 l-121 0 l0 -182 l131 0 q104 0 166.5 65.5 q62.5 65.5 62.5 164.5 Z" /><glyph glyph-name="Ntilde" unicode="ñ" d="M519 24 l-331 462 l0 -433 q0 -24 -17 -41.5 q-17 -17.5 -41 -17.5 q-25 0 -42 17.5 q-17 17.5 -17 41.5 l0 543 q0 32 22.5 54.5 q22.5 22.5 54.5 22.5 q38 0 62 -32 l322 -447 l0 420 q0 24 17 41.5 q17 17.5 41 17.5 q25 0 42 -17.5 q17 -17.5 17 -41.5 l0 -548 q0 -29 -21 -50.5 q-21 -21.5 -51 -21.5 q-37 0 -58 30 ZM342 767 q-24 32 -43 32 q-34 0 -41 -53 q-5 -25 -28 -25 q-13 0 -21.5 10 q-8.5 10 -6.5 22 q6 52 32 80 q26 28 69 28 q24 0 39.5 -10.5 q15.5 -10.5 35.5 -35.5 q26 -32 44 -32 q33 0 40 53 q2 25 28 25 q13 0 21.5 -9.5 q8.5 -9.5 7.5 -22.5 q-6 -52 -32 -80 q-26 -28 -69 -28 q-24 0 -40.5 11 q-16.5 11 -35.5 35 Z" /><glyph glyph-name="Ograve" unicode="ò" d="M382 678 q147 2 245 -98 q98 -100 96 -247 q2 -147 -96 -247.5 q-98 -100.5 -245 -97.5 q-147 -3 -245 97.5 q-98 100.5 -96 247.5 q-2 147 96 247 q98 100 245 98 ZM541.5 506 q-61.5 68 -159.5 68 q-98 0 -159.5 -68 q-61.5 -68 -61.5 -173 q0 -104 61.5 -172.5 q61.5 -68.5 159.5 -68.5 q98 0 159.5 68.5 q61.5 68.5 61.5 172.5 q0 105 -61.5 173 ZM362 724 l-105 92 q-11 9 -11 24 q0 14 9.5 23.5 q9.5 9.5 22.5 9.5 q14 0 24 -10 l97 -100 q8 -11 8 -19 q0 -11 -8 -19 q-8 -8 -19 -8 q-11 0 -18 7 Z" /><glyph glyph-name="Oacute" unicode="ó" d="M382 678 q147 2 245 -98 q98 -100 96 -247 q2 -147 -96 -247.5 q-98 -100.5 -245 -97.5 q-147 -3 -245 97.5 q-98 100.5 -96 247.5 q-2 147 96 247 q98 100 245 98 ZM541.5 506 q-61.5 68 -159.5 68 q-98 0 -159.5 -68 q-61.5 -68 -61.5 -173 q0 -104 61.5 -172.5 q61.5 -68.5 159.5 -68.5 q98 0 159.5 68.5 q61.5 68.5 61.5 172.5 q0 105 -61.5 173 ZM406 724 q-7 -7 -18 -7 q-11 0 -19 8 q-8 8 -8 19 q0 8 8 19 l97 100 q10 10 24 10 q13 0 22.5 -9.5 q9.5 -9.5 9.5 -23.5 q0 -15 -11 -24 l-105 -92 Z" /><glyph glyph-name="Ocircumflex" unicode="ô" d="M382 678 q147 2 245 -98 q98 -100 96 -247 q2 -147 -96 -247.5 q-98 -100.5 -245 -97.5 q-147 -3 -245 97.5 q-98 100.5 -96 247.5 q-2 147 96 247 q98 100 245 98 ZM541.5 506 q-61.5 68 -159.5 68 q-98 0 -159.5 -68 q-61.5 -68 -61.5 -173 q0 -104 61.5 -172.5 q61.5 -68.5 159.5 -68.5 q98 0 159.5 68.5 q61.5 68.5 61.5 172.5 q0 105 -61.5 173 ZM454 727 l-72 92 l-72 -92 q-7 -10 -21 -10 q-12 0 -20.5 8 q-8.5 8 -8.5 21 q0 10 4 14 l57 88 q15 25 47 25 l28 0 q32 0 47 -25 l57 -88 q4 -4 4 -14 q0 -13 -8.5 -21 q-8.5 -8 -20.5 -8 q-14 0 -21 10 Z" /><glyph glyph-name="Otilde" unicode="õ" d="M382 678 q147 2 245 -98 q98 -100 96 -247 q2 -147 -96 -247.5 q-98 -100.5 -245 -97.5 q-147 -3 -245 97.5 q-98 100.5 -96 247.5 q-2 147 96 247 q98 100 245 98 ZM541.5 506 q-61.5 68 -159.5 68 q-98 0 -159.5 -68 q-61.5 -68 -61.5 -173 q0 -104 61.5 -172.5 q61.5 -68.5 159.5 -68.5 q98 0 159.5 68.5 q61.5 68.5 61.5 172.5 q0 105 -61.5 173 ZM363 767 q-24 32 -43 32 q-34 0 -41 -53 q-5 -25 -28 -25 q-13 0 -21.5 10 q-8.5 10 -6.5 22 q6 52 32 80 q26 28 69 28 q24 0 39.5 -10.5 q15.5 -10.5 35.5 -35.5 q26 -32 44 -32 q33 0 40 53 q2 25 28 25 q13 0 21.5 -9.5 q8.5 -9.5 7.5 -22.5 q-6 -52 -32 -80 q-26 -28 -69 -28 q-24 0 -40.5 11 q-16.5 11 -35.5 35 Z" /><glyph glyph-name="Odieresis" unicode="ö" d="M382 678 q147 2 245 -98 q98 -100 96 -247 q2 -147 -96 -247.5 q-98 -100.5 -245 -97.5 q-147 -3 -245 97.5 q-98 100.5 -96 247.5 q-2 147 96 247 q98 100 245 98 ZM541.5 506 q-61.5 68 -159.5 68 q-98 0 -159.5 -68 q-61.5 -68 -61.5 -173 q0 -104 61.5 -172.5 q61.5 -68.5 159.5 -68.5 q98 0 159.5 68.5 q61.5 68.5 61.5 172.5 q0 105 -61.5 173 ZM218 790 q0 24 17 41 q17 17 42 17 q24 0 41 -17 q17 -17 17 -41 q0 -25 -17 -42 q-17 -17 -41 -17 q-25 0 -42 17 q-17 17 -17 42 ZM427 790 q0 24 17.5 41 q17.5 17 41.5 17 q24 0 41.5 -17 q17.5 -17 17.5 -41 q0 -25 -17.5 -42 q-17.5 -17 -41.5 -17 q-24 0 -41.5 17 q-17.5 17 -17.5 42 Z" /><glyph glyph-name="multiply" unicode="×" d="M251 286 l-125 -125 q-9 -9 -23 -9 q-14 0 -24 9.5 q-10 9.5 -10 23.5 q0 14 10 24 l124 125 l-124 124 q-10 10 -10 24 q0 14 10 24 q10 10 24 10 q14 0 24 -10 l124 -125 l124 125 q10 10 24 10 q14 0 24 -10 q10 -10 10 -24 q0 -14 -10 -24 l-124 -124 l124 -125 q10 -10 10 -24 q0 -14 -10 -23.5 q-10 -9.5 -24 -9.5 q-14 0 -23 9 l-125 125 Z" /><glyph glyph-name="Oslash" unicode="ø" d="M723 333 q2 -147 -96 -247.5 q-98 -100.5 -245 -97.5 q-102 0 -184 49 l-52 -71 q-11 -14 -25 -14 q-11 0 -19.5 8 q-8.5 8 -8.5 20 q0 10 7 20 l52 71 q-111 98 -111 262 q-2 147 96 247 q98 100 245 98 q98 0 176 -45 l49 68 q11 14 25 14 q11 0 19.5 -8 q8.5 -8 8.5 -20 q0 -10 -7 -20 l-48 -66 q118 -99 118 -268 ZM218 164 l276 381 q-50 29 -112 29 q-98 0 -159.5 -68 q-61.5 -68 -61.5 -173 q0 -99 57 -169 ZM603 333 q0 109 -64 176 l-277 -383 q50 -34 120 -34 q98 0 159.5 68.5 q61.5 68.5 61.5 172.5 Z" /><glyph glyph-name="Ugrave" unicode="ù" d="M71 263 l0 351 q0 24 17 41.5 q17 17.5 42 17.5 q25 0 42 -17.5 q17 -17.5 17 -41.5 l0 -347 q0 -82 45 -128.5 q45 -46.5 126 -46.5 q81 0 125.5 46.5 q44.5 46.5 44.5 128.5 l0 347 q0 24 17 41.5 q17 17.5 42 17.5 q25 0 42 -17.5 q17 -17.5 17 -41.5 l0 -350 q0 -130 -74.5 -203 q-74.5 -73 -213.5 -73 q-140 0 -214.5 73 q-74.5 73 -74.5 202 ZM341 724 l-105 92 q-11 9 -11 24 q0 14 9.5 23.5 q9.5 9.5 22.5 9.5 q14 0 24 -10 l97 -100 q8 -11 8 -19 q0 -11 -8 -19 q-8 -8 -19 -8 q-11 0 -18 7 Z" /><glyph glyph-name="Uacute" unicode="ú" d="M71 263 l0 351 q0 24 17 41.5 q17 17.5 42 17.5 q25 0 42 -17.5 q17 -17.5 17 -41.5 l0 -347 q0 -82 45 -128.5 q45 -46.5 126 -46.5 q81 0 125.5 46.5 q44.5 46.5 44.5 128.5 l0 347 q0 24 17 41.5 q17 17.5 42 17.5 q25 0 42 -17.5 q17 -17.5 17 -41.5 l0 -350 q0 -130 -74.5 -203 q-74.5 -73 -213.5 -73 q-140 0 -214.5 73 q-74.5 73 -74.5 202 ZM385 724 q-7 -7 -18 -7 q-11 0 -19 8 q-8 8 -8 19 q0 8 8 19 l97 100 q10 10 24 10 q13 0 22.5 -9.5 q9.5 -9.5 9.5 -23.5 q0 -15 -11 -24 l-105 -92 Z" /><glyph glyph-name="Ucircumflex" unicode="û" d="M71 263 l0 351 q0 24 17 41.5 q17 17.5 42 17.5 q25 0 42 -17.5 q17 -17.5 17 -41.5 l0 -347 q0 -82 45 -128.5 q45 -46.5 126 -46.5 q81 0 125.5 46.5 q44.5 46.5 44.5 128.5 l0 347 q0 24 17 41.5 q17 17.5 42 17.5 q25 0 42 -17.5 q17 -17.5 17 -41.5 l0 -350 q0 -130 -74.5 -203 q-74.5 -73 -213.5 -73 q-140 0 -214.5 73 q-74.5 73 -74.5 202 ZM433 727 l-72 92 l-72 -92 q-7 -10 -21 -10 q-12 0 -20.5 8 q-8.5 8 -8.5 21 q0 10 4 14 l57 88 q15 25 47 25 l28 0 q32 0 47 -25 l57 -88 q4 -4 4 -14 q0 -13 -8.5 -21 q-8.5 -8 -20.5 -8 q-14 0 -21 10 Z" /><glyph glyph-name="Udieresis" unicode="ü" d="M71 263 l0 351 q0 24 17 41.5 q17 17.5 42 17.5 q25 0 42 -17.5 q17 -17.5 17 -41.5 l0 -347 q0 -82 45 -128.5 q45 -46.5 126 -46.5 q81 0 125.5 46.5 q44.5 46.5 44.5 128.5 l0 347 q0 24 17 41.5 q17 17.5 42 17.5 q25 0 42 -17.5 q17 -17.5 17 -41.5 l0 -350 q0 -130 -74.5 -203 q-74.5 -73 -213.5 -73 q-140 0 -214.5 73 q-74.5 73 -74.5 202 ZM197 790 q0 24 17 41 q17 17 42 17 q24 0 41 -17 q17 -17 17 -41 q0 -25 -17 -42 q-17 -17 -41 -17 q-25 0 -42 17 q-17 17 -17 42 ZM406 790 q0 24 17.5 41 q17.5 17 41.5 17 q24 0 41.5 -17 q17.5 -17 17.5 -41 q0 -25 -17.5 -42 q-17.5 -17 -41.5 -17 q-24 0 -41.5 17 q-17.5 17 -17.5 42 Z" /><glyph glyph-name="Yacute" unicode="ý" d="M582 587 l-205 -310 l0 -224 q0 -24 -17 -41.5 q-17 -17.5 -41 -17.5 q-25 0 -42 17.5 q-17 17.5 -17 41.5 l0 224 l-206 309 q-9 12 -9 31 q0 23 16.5 39.5 q16.5 16.5 39.5 16.5 q29 0 47 -26 l171 -266 l169 266 q18 26 47 26 q23 0 39.5 -16.5 q16.5 -16.5 16.5 -39.5 q0 -18 -9 -30 ZM344 724 q-7 -7 -18 -7 q-11 0 -19 8 q-8 8 -8 19 q0 8 8 19 l97 100 q10 10 24 10 q13 0 22.5 -9.5 q9.5 -9.5 9.5 -23.5 q0 -15 -11 -24 l-105 -92 Z" /><glyph glyph-name="Thorn" unicode="þ" d="M71 53 l0 561 q0 24 17 41.5 q17 17.5 41 17.5 q25 0 42 -17.5 q17 -17.5 17 -41.5 l0 -60 l176 0 q99 0 158.5 -60 q59.5 -60 59.5 -150 q0 -89 -59.5 -148 q-59.5 -59 -158.5 -59 l-176 0 l0 -84 q0 -24 -17 -41.5 q-17 -17.5 -41 -17.5 q-25 0 -42 17.5 q-17 17.5 -17 41.5 ZM348 451 l-160 0 l0 -211 l160 0 q50 0 82 29 q32 29 32 76 q0 47 -32 76.5 q-32 29.5 -82 29.5 Z" /><glyph glyph-name="germandbls" unicode="ß" d="M543 182 q0 -90 -57 -142 q-57 -52 -143 -52 q-51 0 -95 19 q-27 12 -27 40 q0 19 13 31.5 q13 12.5 31 12.5 q9 0 24 -5 q24 -8 54 -8 q37 0 64.5 29.5 q27.5 29.5 27.5 78.5 q0 55 -40.5 89 q-40.5 34 -116.5 39 q-17 1 -28.5 13.5 q-11.5 12.5 -11.5 29.5 q0 16 10.5 28 q10.5 12 26.5 14 q52 8 79 34.5 q27 26.5 27 63.5 q0 39 -28 63 q-28 24 -65 24 q-55 0 -85 -37 q-30 -37 -30 -110 l0 -390 q0 -22 -15.5 -37 q-15.5 -15 -36.5 -15 q-22 0 -37.5 15 q-15.5 15 -15.5 37 l0 390 q0 108 64 174 q64 66 154 66 q88 0 146 -47.5 q58 -47.5 58 -119.5 q0 -51 -29 -89 q-29 -38 -81 -56 q69 -15 115 -66 q48 -51 48 -117 Z" /><glyph glyph-name="agrave" unicode="à" d="M468 320 l0 -273 q0 -22 -15.5 -37.5 q-15.5 -15.5 -37.5 -15.5 q-21 0 -36.5 15.5 q-15.5 15.5 -15.5 37.5 l0 5 q-56 -64 -156 -64 q-67 0 -117.5 43.5 q-50.5 43.5 -50.5 116.5 q0 75 49.5 116 q49.5 41 118.5 41 q102 0 156 -62 l0 72 q0 42 -31 66 q-31 24 -82 24 q-60 0 -113 -36 q-10 -7 -24 -7 q-17 0 -29.5 12.5 q-12.5 12.5 -12.5 29.5 q0 23 18 34 q77 57 178 57 q93 0 147 -43.5 q54 -43.5 54 -131.5 ZM363 110 l0 73 q-37 50 -115 50 q-45 0 -74 -24 q-29 -24 -29 -63 q0 -39 29 -62.5 q29 -23.5 74 -23.5 q78 0 115 50 ZM249 577 l-105 92 q-11 9 -11 24 q0 14 9.5 23.5 q9.5 9.5 22.5 9.5 q14 0 24 -10 l97 -100 q8 -11 8 -19 q0 -11 -8 -19 q-8 -8 -19 -8 q-11 0 -18 7 Z" /><glyph glyph-name="aacute" unicode="á" d="M468 320 l0 -273 q0 -22 -15.5 -37.5 q-15.5 -15.5 -37.5 -15.5 q-21 0 -36.5 15.5 q-15.5 15.5 -15.5 37.5 l0 5 q-56 -64 -156 -64 q-67 0 -117.5 43.5 q-50.5 43.5 -50.5 116.5 q0 75 49.5 116 q49.5 41 118.5 41 q102 0 156 -62 l0 72 q0 42 -31 66 q-31 24 -82 24 q-60 0 -113 -36 q-10 -7 -24 -7 q-17 0 -29.5 12.5 q-12.5 12.5 -12.5 29.5 q0 23 18 34 q77 57 178 57 q93 0 147 -43.5 q54 -43.5 54 -131.5 ZM363 110 l0 73 q-37 50 -115 50 q-45 0 -74 -24 q-29 -24 -29 -63 q0 -39 29 -62.5 q29 -23.5 74 -23.5 q78 0 115 50 ZM293 577 q-7 -7 -18 -7 q-11 0 -19 8 q-8 8 -8 19 q0 8 8 19 l97 100 q10 10 24 10 q13 0 22.5 -9.5 q9.5 -9.5 9.5 -23.5 q0 -15 -11 -24 l-105 -92 Z" /><glyph glyph-name="acircumflex" unicode="â" d="M468 320 l0 -273 q0 -22 -15.5 -37.5 q-15.5 -15.5 -37.5 -15.5 q-21 0 -36.5 15.5 q-15.5 15.5 -15.5 37.5 l0 5 q-56 -64 -156 -64 q-67 0 -117.5 43.5 q-50.5 43.5 -50.5 116.5 q0 75 49.5 116 q49.5 41 118.5 41 q102 0 156 -62 l0 72 q0 42 -31 66 q-31 24 -82 24 q-60 0 -113 -36 q-10 -7 -24 -7 q-17 0 -29.5 12.5 q-12.5 12.5 -12.5 29.5 q0 23 18 34 q77 57 178 57 q93 0 147 -43.5 q54 -43.5 54 -131.5 ZM363 110 l0 73 q-37 50 -115 50 q-45 0 -74 -24 q-29 -24 -29 -63 q0 -39 29 -62.5 q29 -23.5 74 -23.5 q78 0 115 50 ZM341 580 l-72 92 l-72 -92 q-7 -10 -21 -10 q-12 0 -20.5 8 q-8.5 8 -8.5 21 q0 10 4 14 l57 88 q15 25 47 25 l28 0 q32 0 47 -25 l57 -88 q4 -4 4 -14 q0 -13 -8.5 -21 q-8.5 -8 -20.5 -8 q-14 0 -21 10 Z" /><glyph glyph-name="atilde" unicode="ã" d="M468 320 l0 -273 q0 -22 -15.5 -37.5 q-15.5 -15.5 -37.5 -15.5 q-21 0 -36.5 15.5 q-15.5 15.5 -15.5 37.5 l0 5 q-56 -64 -156 -64 q-67 0 -117.5 43.5 q-50.5 43.5 -50.5 116.5 q0 75 49.5 116 q49.5 41 118.5 41 q102 0 156 -62 l0 72 q0 42 -31 66 q-31 24 -82 24 q-60 0 -113 -36 q-10 -7 -24 -7 q-17 0 -29.5 12.5 q-12.5 12.5 -12.5 29.5 q0 23 18 34 q77 57 178 57 q93 0 147 -43.5 q54 -43.5 54 -131.5 ZM363 110 l0 73 q-37 50 -115 50 q-45 0 -74 -24 q-29 -24 -29 -63 q0 -39 29 -62.5 q29 -23.5 74 -23.5 q78 0 115 50 ZM250 620 q-24 32 -43 32 q-34 0 -41 -53 q-5 -25 -28 -25 q-13 0 -21.5 10 q-8.5 10 -6.5 22 q6 52 32 80 q26 28 69 28 q24 0 39.5 -10.5 q15.5 -10.5 35.5 -35.5 q26 -32 44 -32 q33 0 40 53 q2 25 28 25 q13 0 21.5 -9.5 q8.5 -9.5 7.5 -22.5 q-6 -52 -32 -80 q-26 -28 -69 -28 q-24 0 -40.5 11 q-16.5 11 -35.5 35 Z" /><glyph glyph-name="adieresis" unicode="ä" d="M468 320 l0 -273 q0 -22 -15.5 -37.5 q-15.5 -15.5 -37.5 -15.5 q-21 0 -36.5 15.5 q-15.5 15.5 -15.5 37.5 l0 5 q-56 -64 -156 -64 q-67 0 -117.5 43.5 q-50.5 43.5 -50.5 116.5 q0 75 49.5 116 q49.5 41 118.5 41 q102 0 156 -62 l0 72 q0 42 -31 66 q-31 24 -82 24 q-60 0 -113 -36 q-10 -7 -24 -7 q-17 0 -29.5 12.5 q-12.5 12.5 -12.5 29.5 q0 23 18 34 q77 57 178 57 q93 0 147 -43.5 q54 -43.5 54 -131.5 ZM363 110 l0 73 q-37 50 -115 50 q-45 0 -74 -24 q-29 -24 -29 -63 q0 -39 29 -62.5 q29 -23.5 74 -23.5 q78 0 115 50 ZM105 643 q0 24 17 41 q17 17 42 17 q24 0 41 -17 q17 -17 17 -41 q0 -25 -17 -42 q-17 -17 -41 -17 q-25 0 -42 17 q-17 17 -17 42 ZM314 643 q0 24 17.5 41 q17.5 17 41.5 17 q24 0 41.5 -17 q17.5 -17 17.5 -41 q0 -25 -17.5 -42 q-17.5 -17 -41.5 -17 q-24 0 -41.5 17 q-17.5 17 -17.5 42 Z" /><glyph glyph-name="aring" unicode="å" d="M468 320 l0 -273 q0 -22 -15.5 -37.5 q-15.5 -15.5 -37.5 -15.5 q-21 0 -36.5 15.5 q-15.5 15.5 -15.5 37.5 l0 5 q-56 -64 -156 -64 q-67 0 -117.5 43.5 q-50.5 43.5 -50.5 116.5 q0 75 49.5 116 q49.5 41 118.5 41 q102 0 156 -62 l0 72 q0 42 -31 66 q-31 24 -82 24 q-60 0 -113 -36 q-10 -7 -24 -7 q-17 0 -29.5 12.5 q-12.5 12.5 -12.5 29.5 q0 23 18 34 q77 57 178 57 q93 0 147 -43.5 q54 -43.5 54 -131.5 ZM363 110 l0 73 q-37 50 -115 50 q-45 0 -74 -24 q-29 -24 -29 -63 q0 -39 29 -62.5 q29 -23.5 74 -23.5 q78 0 115 50 ZM197 730.5 q30 30.5 72 30.5 q42 0 71.5 -30.5 q29.5 -30.5 29.5 -72.5 q0 -42 -29.5 -72 q-29.5 -30 -71.5 -30 q-42 0 -72 30 q-30 30 -30 72 q0 42 30 72.5 ZM269 710 q-21 0 -36.5 -15 q-15.5 -15 -15.5 -37 q0 -21 15.5 -36.5 q15.5 -15.5 36.5 -15.5 q21 0 36 15.5 q15 15.5 15 36.5 q0 22 -14.5 37 q-14.5 15 -36.5 15 Z" /><glyph glyph-name="ae" unicode="æ" d="M633 76 q53 0 100 30 q10 7 23 7 q17 0 29.5 -12.5 q12.5 -12.5 12.5 -30.5 q0 -22 -19 -35 q-68 -47 -151 -47 q-131 0 -190 98 q-30 -45 -84 -71.5 q-54 -26.5 -119 -26.5 q-83 0 -139.5 42.5 q-56.5 42.5 -56.5 116.5 q0 76 51 116 q51 42 126 42 q110 0 170 -60 l0 71 q0 41 -34 65 q-34 24 -89 24 q-70 0 -126 -37 q-10 -7 -23 -7 q-17 0 -29.5 12.5 q-12.5 12.5 -12.5 30.5 q0 24 18 35 q80 56 182 56 q137 0 174 -93 q63 93 177 93 q97 0 158 -69.5 q61 -69.5 61 -169.5 q0 -49 -62 -49 l-289 0 q6 -58 44 -94.5 q38 -36.5 98 -36.5 ZM615 409 q-57 0 -90 -39 q-32 -40 -35 -89 l250 0 q-1 49 -34 89 q-32 39 -91 39 ZM258 233 q-51 0 -82 -20.5 q-31 -20.5 -31 -58.5 q0 -38 30.5 -58 q30.5 -20 82.5 -20 q50 0 89 31.5 q39 31.5 39 67.5 l0 7 q-45 51 -128 51 Z" /><glyph glyph-name="ccedilla" unicode="ç" d="M458 76 q0 -24 -17 -36 q-54 -46 -129 -51 l-17 -42 q17 11 36 11 q29 0 48 -19.5 q19 -19.5 19 -49.5 q0 -36 -31 -59.5 q-31 -23.5 -77 -23.5 q-52 0 -92 22 q-14 8 -14 22 q0 11 7.5 18.5 q7.5 7.5 17.5 7.5 q6 0 13 -4 q31 -18 65 -18 q24 0 40 9.5 q16 9.5 16 26.5 q0 30 -33 30 q-16 0 -27 -9 q-8 -5 -16 -5 q-12 0 -20 8 q-8 8 -8 20 q0 2 2 10 l17 46 q-98 9 -159 79.5 q-61 70.5 -61 172.5 q0 110 70.5 181.5 q70.5 71.5 179.5 71.5 q94 0 153 -52 q17 -12 17 -36 q0 -19 -13.5 -33 q-13.5 -14 -33.5 -14 q-17 0 -31 11 q-37 31 -87 31 q-66 0 -106 -44 q-40 -44 -40 -116 q0 -72 40 -116.5 q40 -44.5 106 -44.5 q50 0 87 31 q14 11 30 11 q20 0 34 -13.5 q14 -13.5 14 -33.5 Z" /><glyph glyph-name="egrave" unicode="è" d="M283 495 q104 0 171 -70 q67 -70 67 -169 q0 -49 -62 -49 l-311 0 q6 -58 47.5 -95.5 q41.5 -37.5 106.5 -37.5 q57 0 110 32 q9 6 23 6 q17 0 29.5 -12.5 q12.5 -12.5 12.5 -29.5 q0 -22 -19 -35 q-71 -47 -167 -47 q-109 0 -181 70.5 q-72 70.5 -72 183.5 q0 106 70 179.5 q70 73.5 175 73.5 ZM147 281 l272 0 q-2 51 -37.5 89.5 q-35.5 38.5 -98.5 38.5 q-60 0 -96 -37 q-36 -37 -40 -91 ZM264 577 l-105 92 q-11 9 -11 24 q0 14 9.5 23.5 q9.5 9.5 22.5 9.5 q14 0 24 -10 l97 -100 q8 -11 8 -19 q0 -11 -8 -19 q-8 -8 -19 -8 q-11 0 -18 7 Z" /><glyph glyph-name="eacute" unicode="é" d="M283 495 q104 0 171 -70 q67 -70 67 -169 q0 -49 -62 -49 l-311 0 q6 -58 47.5 -95.5 q41.5 -37.5 106.5 -37.5 q57 0 110 32 q9 6 23 6 q17 0 29.5 -12.5 q12.5 -12.5 12.5 -29.5 q0 -22 -19 -35 q-71 -47 -167 -47 q-109 0 -181 70.5 q-72 70.5 -72 183.5 q0 106 70 179.5 q70 73.5 175 73.5 ZM147 281 l272 0 q-2 51 -37.5 89.5 q-35.5 38.5 -98.5 38.5 q-60 0 -96 -37 q-36 -37 -40 -91 ZM308 577 q-7 -7 -18 -7 q-11 0 -19 8 q-8 8 -8 19 q0 8 8 19 l97 100 q10 10 24 10 q13 0 22.5 -9.5 q9.5 -9.5 9.5 -23.5 q0 -15 -11 -24 l-105 -92 Z" /><glyph glyph-name="ecircumflex" unicode="ê" d="M283 495 q104 0 171 -70 q67 -70 67 -169 q0 -49 -62 -49 l-311 0 q6 -58 47.5 -95.5 q41.5 -37.5 106.5 -37.5 q57 0 110 32 q9 6 23 6 q17 0 29.5 -12.5 q12.5 -12.5 12.5 -29.5 q0 -22 -19 -35 q-71 -47 -167 -47 q-109 0 -181 70.5 q-72 70.5 -72 183.5 q0 106 70 179.5 q70 73.5 175 73.5 ZM147 281 l272 0 q-2 51 -37.5 89.5 q-35.5 38.5 -98.5 38.5 q-60 0 -96 -37 q-36 -37 -40 -91 ZM356 580 l-72 92 l-72 -92 q-7 -10 -21 -10 q-12 0 -20.5 8 q-8.5 8 -8.5 21 q0 10 4 14 l57 88 q15 25 47 25 l28 0 q32 0 47 -25 l57 -88 q4 -4 4 -14 q0 -13 -8.5 -21 q-8.5 -8 -20.5 -8 q-14 0 -21 10 Z" /><glyph glyph-name="edieresis" unicode="ë" d="M283 495 q104 0 171 -70 q67 -70 67 -169 q0 -49 -62 -49 l-311 0 q6 -58 47.5 -95.5 q41.5 -37.5 106.5 -37.5 q57 0 110 32 q9 6 23 6 q17 0 29.5 -12.5 q12.5 -12.5 12.5 -29.5 q0 -22 -19 -35 q-71 -47 -167 -47 q-109 0 -181 70.5 q-72 70.5 -72 183.5 q0 106 70 179.5 q70 73.5 175 73.5 ZM147 281 l272 0 q-2 51 -37.5 89.5 q-35.5 38.5 -98.5 38.5 q-60 0 -96 -37 q-36 -37 -40 -91 ZM120 643 q0 24 17 41 q17 17 42 17 q24 0 41 -17 q17 -17 17 -41 q0 -25 -17 -42 q-17 -17 -41 -17 q-25 0 -42 17 q-17 17 -17 42 ZM329 643 q0 24 17.5 41 q17.5 17 41.5 17 q24 0 41.5 -17 q17.5 -17 17.5 -41 q0 -25 -17.5 -42 q-17.5 -17 -41.5 -17 q-24 0 -41.5 17 q-17.5 17 -17.5 42 Z" /><glyph glyph-name="igrave" unicode="ì" d="M68 47 l0 389 q0 22 15.5 37.5 q15.5 15.5 37.5 15.5 q21 0 36.5 -15.5 q15.5 -15.5 15.5 -37.5 l0 -389 q0 -22 -15.5 -37.5 q-15.5 -15.5 -37.5 -15.5 q-21 0 -36.5 15.5 q-15.5 15.5 -15.5 37.5 ZM101 577 l-105 92 q-11 9 -11 24 q0 14 9.5 23.5 q9.5 9.5 22.5 9.5 q14 0 24 -10 l97 -100 q8 -11 8 -19 q0 -11 -8 -19 q-8 -8 -19 -8 q-11 0 -18 7 Z" /><glyph glyph-name="iacute" unicode="í" d="M68 47 l0 389 q0 22 15.5 37.5 q15.5 15.5 37.5 15.5 q21 0 36.5 -15.5 q15.5 -15.5 15.5 -37.5 l0 -389 q0 -22 -15.5 -37.5 q-15.5 -15.5 -37.5 -15.5 q-21 0 -36.5 15.5 q-15.5 15.5 -15.5 37.5 ZM145 577 q-7 -7 -18 -7 q-11 0 -19 8 q-8 8 -8 19 q0 8 8 19 l97 100 q10 10 24 10 q13 0 22.5 -9.5 q9.5 -9.5 9.5 -23.5 q0 -15 -11 -24 l-105 -92 Z" /><glyph glyph-name="icircumflex" unicode="î" d="M68 47 l0 389 q0 22 15.5 37.5 q15.5 15.5 37.5 15.5 q21 0 36.5 -15.5 q15.5 -15.5 15.5 -37.5 l0 -389 q0 -22 -15.5 -37.5 q-15.5 -15.5 -37.5 -15.5 q-21 0 -36.5 15.5 q-15.5 15.5 -15.5 37.5 ZM193 580 l-72 92 l-72 -92 q-7 -10 -21 -10 q-12 0 -20.5 8 q-8.5 8 -8.5 21 q0 10 4 14 l57 88 q15 25 47 25 l28 0 q32 0 47 -25 l57 -88 q4 -4 4 -14 q0 -13 -8.5 -21 q-8.5 -8 -20.5 -8 q-14 0 -21 10 Z" /><glyph glyph-name="idieresis" unicode="ï" d="M68 47 l0 389 q0 22 15.5 37.5 q15.5 15.5 37.5 15.5 q21 0 36.5 -15.5 q15.5 -15.5 15.5 -37.5 l0 -389 q0 -22 -15.5 -37.5 q-15.5 -15.5 -37.5 -15.5 q-21 0 -36.5 15.5 q-15.5 15.5 -15.5 37.5 ZM-43 643 q0 24 17 41 q17 17 42 17 q24 0 41 -17 q17 -17 17 -41 q0 -25 -17 -42 q-17 -17 -41 -17 q-25 0 -42 17 q-17 17 -17 42 ZM166 643 q0 24 17.5 41 q17.5 17 41.5 17 q24 0 41.5 -17 q17.5 -17 17.5 -41 q0 -25 -17.5 -42 q-17.5 -17 -41.5 -17 q-24 0 -41.5 17 q-17.5 17 -17.5 42 Z" /><glyph glyph-name="eth" unicode="ð" d="M535 250 q0 -116 -68 -189 q-68 -73 -181 -73 q-109 0 -178.5 68 q-69.5 68 -69.5 172 q0 104 61.5 172 q61.5 68 155.5 68 q99 0 159 -91 q-40 79 -159 168 l-123 -55 q-4 -2 -12 -2 q-11 0 -19.5 8 q-8.5 8 -8.5 20 q0 18 17 26 l92 40 l-27 18 q-24 14 -24 43 q0 21 15 36 q15 15 36 15 q14 0 28 -8 q40 -25 80 -56 l85 37 q4 2 11 2 q11 0 19.5 -8 q8.5 -8 8.5 -19 q0 -18 -17 -26 l-58 -26 q177 -155 177 -340 ZM388 122.5 q38 41.5 38 105.5 q0 64 -38 105.5 q-38 41.5 -102 41.5 q-65 0 -102 -43 q-37 -41 -37 -104 q0 -62 37 -105 q38 -42 102 -42 q64 0 102 41.5 Z" /><glyph glyph-name="ntilde" unicode="ñ" d="M499 340 l0 -293 q0 -22 -15.5 -37.5 q-15.5 -15.5 -37.5 -15.5 q-21 0 -36.5 15.5 q-15.5 15.5 -15.5 37.5 l0 255 q0 53 -24 76.5 q-24 23.5 -73 23.5 q-75 0 -124 -65 l0 -290 q0 -22 -15.5 -37.5 q-15.5 -15.5 -36.5 -15.5 q-22 0 -37.5 15.5 q-15.5 15.5 -15.5 37.5 l0 389 q0 22 15.5 37.5 q15.5 15.5 36.5 15.5 q22 0 37.5 -15.5 q15.5 -15.5 15.5 -37.5 l0 -19 q29 34 74 56 q45 22 96 22 q77 0 116.5 -40 q39.5 -40 39.5 -115 ZM266 620 q-24 32 -43 32 q-34 0 -41 -53 q-5 -25 -28 -25 q-13 0 -21.5 10 q-8.5 10 -6.5 22 q6 52 32 80 q26 28 69 28 q24 0 39.5 -10.5 q15.5 -10.5 35.5 -35.5 q26 -32 44 -32 q33 0 40 53 q2 25 28 25 q13 0 21.5 -9.5 q8.5 -9.5 7.5 -22.5 q-6 -52 -32 -80 q-26 -28 -69 -28 q-24 0 -40.5 11 q-16.5 11 -35.5 35 Z" /><glyph glyph-name="ograve" unicode="ò" d="M38 242 q0 107 69 180 q69 73 179 73 q111 0 180 -73 q69 -73 69 -180 q0 -108 -69 -181 q-69 -73 -180 -73 q-110 0 -179 73 q-69 73 -69 181 ZM426 242 q0 66 -38 113 q-38 47 -102 47 q-64 0 -102 -47 q-37 -46 -37 -113 q0 -69 37 -115 q37 -46 102 -46 q65 0 102 46 q38 47 38 115 ZM267 577 l-105 92 q-11 9 -11 24 q0 14 9.5 23.5 q9.5 9.5 22.5 9.5 q14 0 24 -10 l97 -100 q8 -11 8 -19 q0 -11 -8 -19 q-8 -8 -19 -8 q-11 0 -18 7 Z" /><glyph glyph-name="oacute" unicode="ó" d="M38 242 q0 107 69 180 q69 73 179 73 q111 0 180 -73 q69 -73 69 -180 q0 -108 -69 -181 q-69 -73 -180 -73 q-110 0 -179 73 q-69 73 -69 181 ZM426 242 q0 66 -38 113 q-38 47 -102 47 q-64 0 -102 -47 q-37 -46 -37 -113 q0 -69 37 -115 q37 -46 102 -46 q65 0 102 46 q38 47 38 115 ZM311 577 q-7 -7 -18 -7 q-11 0 -19 8 q-8 8 -8 19 q0 8 8 19 l97 100 q10 10 24 10 q13 0 22.5 -9.5 q9.5 -9.5 9.5 -23.5 q0 -15 -11 -24 l-105 -92 Z" /><glyph glyph-name="ocircumflex" unicode="ô" d="M38 242 q0 107 69 180 q69 73 179 73 q111 0 180 -73 q69 -73 69 -180 q0 -108 -69 -181 q-69 -73 -180 -73 q-110 0 -179 73 q-69 73 -69 181 ZM426 242 q0 66 -38 113 q-38 47 -102 47 q-64 0 -102 -47 q-37 -46 -37 -113 q0 -69 37 -115 q37 -46 102 -46 q65 0 102 46 q38 47 38 115 ZM359 580 l-72 92 l-72 -92 q-7 -10 -21 -10 q-12 0 -20.5 8 q-8.5 8 -8.5 21 q0 10 4 14 l57 88 q15 25 47 25 l28 0 q32 0 47 -25 l57 -88 q4 -4 4 -14 q0 -13 -8.5 -21 q-8.5 -8 -20.5 -8 q-14 0 -21 10 Z" /><glyph glyph-name="otilde" unicode="õ" d="M38 242 q0 107 69 180 q69 73 179 73 q111 0 180 -73 q69 -73 69 -180 q0 -108 -69 -181 q-69 -73 -180 -73 q-110 0 -179 73 q-69 73 -69 181 ZM426 242 q0 66 -38 113 q-38 47 -102 47 q-64 0 -102 -47 q-37 -46 -37 -113 q0 -69 37 -115 q37 -46 102 -46 q65 0 102 46 q38 47 38 115 ZM268 620 q-24 32 -43 32 q-34 0 -41 -53 q-5 -25 -28 -25 q-13 0 -21.5 10 q-8.5 10 -6.5 22 q6 52 32 80 q26 28 69 28 q24 0 39.5 -10.5 q15.5 -10.5 35.5 -35.5 q26 -32 44 -32 q33 0 40 53 q2 25 28 25 q13 0 21.5 -9.5 q8.5 -9.5 7.5 -22.5 q-6 -52 -32 -80 q-26 -28 -69 -28 q-24 0 -40.5 11 q-16.5 11 -35.5 35 Z" /><glyph glyph-name="odieresis" unicode="ö" d="M38 242 q0 107 69 180 q69 73 179 73 q111 0 180 -73 q69 -73 69 -180 q0 -108 -69 -181 q-69 -73 -180 -73 q-110 0 -179 73 q-69 73 -69 181 ZM426 242 q0 66 -38 113 q-38 47 -102 47 q-64 0 -102 -47 q-37 -46 -37 -113 q0 -69 37 -115 q37 -46 102 -46 q65 0 102 46 q38 47 38 115 ZM123 643 q0 24 17 41 q17 17 42 17 q24 0 41 -17 q17 -17 17 -41 q0 -25 -17 -42 q-17 -17 -41 -17 q-25 0 -42 17 q-17 17 -17 42 ZM332 643 q0 24 17.5 41 q17.5 17 41.5 17 q24 0 41.5 -17 q17.5 -17 17.5 -41 q0 -25 -17.5 -42 q-17.5 -17 -41.5 -17 q-24 0 -41.5 17 q-17.5 17 -17.5 42 Z" /><glyph glyph-name="divide" unicode="÷" d="M217 481 q-16 16 -16 39 q0 23 16 38.5 q16 15.5 38 15.5 q23 0 39 -16 q16 -16 16 -38 q0 -22 -16 -38.5 q-16 -16.5 -39 -16.5 q-22 0 -38 16 ZM33 313 q-10 10 -10 24 q0 14 10 24 q10 10 24 10 l397 0 q14 0 24 -10 q10 -10 10 -24 q0 -14 -10 -24 q-10 -10 -24 -10 l-397 0 q-14 0 -24 10 ZM201 151 q0 23 16 39 q16 16 38 16 q23 0 39 -16 q16 -16 16 -39 q0 -22 -16 -38 q-16 -16 -39 -16 q-22 0 -38 16 q-16 16 -16 38 Z" /><glyph glyph-name="oslash" unicode="ø" d="M535 242 q0 -108 -69 -181 q-69 -73 -180 -73 q-73 0 -126 31 l-40 -55 q-8 -12 -22 -12 q-9 0 -16.5 7 q-7.5 7 -7.5 17 q0 7 6 16 l40 56 q-82 74 -82 194 q0 107 69 180 q69 73 179 73 q76 0 132 -34 l41 57 q9 13 23 13 q9 0 16 -6.5 q7 -6.5 7 -15.5 q0 -8 -6 -17 l-43 -59 q79 -73 79 -191 ZM181 132 l179 249 q-32 21 -74 21 q-64 0 -102 -47 q-37 -46 -37 -113 q0 -66 34 -110 ZM426 242 q0 61 -31 105 l-178 -248 q31 -18 69 -18 q65 0 102 46 q38 47 38 115 Z" /><glyph glyph-name="ugrave" unicode="ù" d="M499 436 l0 -389 q0 -22 -15.5 -37.5 q-15.5 -15.5 -36.5 -15.5 q-22 0 -37.5 15.5 q-15.5 15.5 -15.5 37.5 l0 16 q-70 -75 -171 -75 q-155 0 -155 153 l0 295 q0 22 15.5 37.5 q15.5 15.5 37.5 15.5 q21 0 36.5 -15.5 q15.5 -15.5 15.5 -37.5 l0 -257 q0 -52 24 -75 q24 -23 73 -23 q77 0 124 63 l0 292 q0 22 15.5 37.5 q15.5 15.5 36.5 15.5 q22 0 37.5 -15.5 q15.5 -15.5 15.5 -37.5 ZM264 577 l-105 92 q-11 9 -11 24 q0 14 9.5 23.5 q9.5 9.5 22.5 9.5 q14 0 24 -10 l97 -100 q8 -11 8 -19 q0 -11 -8 -19 q-8 -8 -19 -8 q-11 0 -18 7 Z" /><glyph glyph-name="uacute" unicode="ú" d="M499 436 l0 -389 q0 -22 -15.5 -37.5 q-15.5 -15.5 -36.5 -15.5 q-22 0 -37.5 15.5 q-15.5 15.5 -15.5 37.5 l0 16 q-70 -75 -171 -75 q-155 0 -155 153 l0 295 q0 22 15.5 37.5 q15.5 15.5 37.5 15.5 q21 0 36.5 -15.5 q15.5 -15.5 15.5 -37.5 l0 -257 q0 -52 24 -75 q24 -23 73 -23 q77 0 124 63 l0 292 q0 22 15.5 37.5 q15.5 15.5 36.5 15.5 q22 0 37.5 -15.5 q15.5 -15.5 15.5 -37.5 ZM308 577 q-7 -7 -18 -7 q-11 0 -19 8 q-8 8 -8 19 q0 8 8 19 l97 100 q10 10 24 10 q13 0 22.5 -9.5 q9.5 -9.5 9.5 -23.5 q0 -15 -11 -24 l-105 -92 Z" /><glyph glyph-name="ucircumflex" unicode="û" d="M499 436 l0 -389 q0 -22 -15.5 -37.5 q-15.5 -15.5 -36.5 -15.5 q-22 0 -37.5 15.5 q-15.5 15.5 -15.5 37.5 l0 16 q-70 -75 -171 -75 q-155 0 -155 153 l0 295 q0 22 15.5 37.5 q15.5 15.5 37.5 15.5 q21 0 36.5 -15.5 q15.5 -15.5 15.5 -37.5 l0 -257 q0 -52 24 -75 q24 -23 73 -23 q77 0 124 63 l0 292 q0 22 15.5 37.5 q15.5 15.5 36.5 15.5 q22 0 37.5 -15.5 q15.5 -15.5 15.5 -37.5 ZM356 580 l-72 92 l-72 -92 q-7 -10 -21 -10 q-12 0 -20.5 8 q-8.5 8 -8.5 21 q0 10 4 14 l57 88 q15 25 47 25 l28 0 q32 0 47 -25 l57 -88 q4 -4 4 -14 q0 -13 -8.5 -21 q-8.5 -8 -20.5 -8 q-14 0 -21 10 Z" /><glyph glyph-name="udieresis" unicode="ü" d="M499 436 l0 -389 q0 -22 -15.5 -37.5 q-15.5 -15.5 -36.5 -15.5 q-22 0 -37.5 15.5 q-15.5 15.5 -15.5 37.5 l0 16 q-70 -75 -171 -75 q-155 0 -155 153 l0 295 q0 22 15.5 37.5 q15.5 15.5 37.5 15.5 q21 0 36.5 -15.5 q15.5 -15.5 15.5 -37.5 l0 -257 q0 -52 24 -75 q24 -23 73 -23 q77 0 124 63 l0 292 q0 22 15.5 37.5 q15.5 15.5 36.5 15.5 q22 0 37.5 -15.5 q15.5 -15.5 15.5 -37.5 ZM120 643 q0 24 17 41 q17 17 42 17 q24 0 41 -17 q17 -17 17 -41 q0 -25 -17 -42 q-17 -17 -41 -17 q-25 0 -42 17 q-17 17 -17 42 ZM329 643 q0 24 17.5 41 q17.5 17 41.5 17 q24 0 41.5 -17 q17.5 -17 17.5 -41 q0 -25 -17.5 -42 q-17.5 -17 -41.5 -17 q-24 0 -41.5 17 q-17.5 17 -17.5 42 Z" /><glyph glyph-name="yacute" unicode="ý" d="M98 -103 l5 0 q51 0 69 42 l24 55 l-172 424 q-3 9 -3 19 q0 22 15 37 q15 15 36 15 q16 0 30 -9.5 q14 -9.5 19 -23.5 l130 -335 l130 335 q5 14 19 23.5 q14 9.5 30 9.5 q22 0 37 -15 q15 -15 15 -37 q0 -9 -4 -20 l-206 -504 q-23 -58 -63.5 -83 q-40.5 -25 -102.5 -26 q-11 0 -15 1 q-18 2 -30.5 15 q-12.5 13 -12.5 31 q0 19 15 32.5 q15 13.5 35 13.5 ZM276 577 q-7 -7 -18 -7 q-11 0 -19 8 q-8 8 -8 19 q0 8 8 19 l97 100 q10 10 24 10 q13 0 22.5 -9.5 q9.5 -9.5 9.5 -23.5 q0 -15 -11 -24 l-105 -92 Z" /><glyph glyph-name="thorn" unicode="þ" d="M173 67 l0 -204 q0 -22 -15.5 -37.5 q-15.5 -15.5 -36.5 -15.5 q-22 0 -37.5 15.5 q-15.5 15.5 -15.5 37.5 l0 757 q0 22 15.5 37.5 q15.5 15.5 36.5 15.5 q22 0 37.5 -15.5 q15.5 -15.5 15.5 -37.5 l0 -203 q57 78 155 78 q96 0 155 -68.5 q59 -68.5 59 -184.5 q0 -116 -59 -185 q-59 -69 -155 -69 q-96 0 -155 79 ZM297 402 q-35 0 -70.5 -19 q-35.5 -19 -53.5 -46 l0 -191 q18 -27 53.5 -46 q35.5 -19 70.5 -19 q62 0 99 44.5 q37 44.5 37 116.5 q0 72 -37 116 q-37 44 -99 44 Z" /><glyph glyph-name="ydieresis" unicode="ÿ" d="M98 -103 l5 0 q51 0 69 42 l24 55 l-172 424 q-3 9 -3 19 q0 22 15 37 q15 15 36 15 q16 0 30 -9.5 q14 -9.5 19 -23.5 l130 -335 l130 335 q5 14 19 23.5 q14 9.5 30 9.5 q22 0 37 -15 q15 -15 15 -37 q0 -9 -4 -20 l-206 -504 q-23 -58 -63.5 -83 q-40.5 -25 -102.5 -26 q-11 0 -15 1 q-18 2 -30.5 15 q-12.5 13 -12.5 31 q0 19 15 32.5 q15 13.5 35 13.5 ZM88 643 q0 24 17 41 q17 17 42 17 q24 0 41 -17 q17 -17 17 -41 q0 -25 -17 -42 q-17 -17 -41 -17 q-25 0 -42 17 q-17 17 -17 42 ZM297 643 q0 24 17.5 41 q17.5 17 41.5 17 q24 0 41.5 -17 q17.5 -17 17.5 -41 q0 -25 -17.5 -42 q-17.5 -17 -41.5 -17 q-24 0 -41.5 17 q-17.5 17 -17.5 42 Z" /><glyph glyph-name="Amacron" unicode="&#x100;" d="M646 54 q0 -25 -17.5 -42.5 q-17.5 -17.5 -42.5 -17.5 q-19 0 -34 10.5 q-15 10.5 -21 27.5 l-35 96 l-320 0 l-35 -96 q-6 -17 -21 -27.5 q-15 -10.5 -34 -10.5 q-25 0 -42.5 17.5 q-17.5 17.5 -17.5 42.5 q0 4 5 21 l209 532 q12 30 38 48 q26 18 58 18 q32 0 58 -18 q26 -18 38 -48 l209 -532 q5 -17 5 -21 ZM213 231 l246 0 l-123 337 l-123 -337 ZM177 742 q-9 9 -9 22 q0 13 9 22 q9 9 22 9 l273 0 q13 0 22 -9 q9 -9 9 -22 q0 -13 -9 -22 q-9 -9 -22 -9 l-273 0 q-13 0 -22 9 Z" /><glyph glyph-name="amacron" unicode="&#x101;" d="M468 320 l0 -273 q0 -22 -15.5 -37.5 q-15.5 -15.5 -37.5 -15.5 q-21 0 -36.5 15.5 q-15.5 15.5 -15.5 37.5 l0 5 q-56 -64 -156 -64 q-67 0 -117.5 43.5 q-50.5 43.5 -50.5 116.5 q0 75 49.5 116 q49.5 41 118.5 41 q102 0 156 -62 l0 72 q0 42 -31 66 q-31 24 -82 24 q-60 0 -113 -36 q-10 -7 -24 -7 q-17 0 -29.5 12.5 q-12.5 12.5 -12.5 29.5 q0 23 18 34 q77 57 178 57 q93 0 147 -43.5 q54 -43.5 54 -131.5 ZM363 110 l0 73 q-37 50 -115 50 q-45 0 -74 -24 q-29 -24 -29 -63 q0 -39 29 -62.5 q29 -23.5 74 -23.5 q78 0 115 50 ZM109 595 q-9 9 -9 22 q0 13 9 22 q9 9 22 9 l273 0 q13 0 22 -9 q9 -9 9 -22 q0 -13 -9 -22 q-9 -9 -22 -9 l-273 0 q-13 0 -22 9 Z" /><glyph glyph-name="Abreve" unicode="&#x102;" d="M646 54 q0 -25 -17.5 -42.5 q-17.5 -17.5 -42.5 -17.5 q-19 0 -34 10.5 q-15 10.5 -21 27.5 l-35 96 l-320 0 l-35 -96 q-6 -17 -21 -27.5 q-15 -10.5 -34 -10.5 q-25 0 -42.5 17.5 q-17.5 17.5 -17.5 42.5 q0 4 5 21 l209 532 q12 30 38 48 q26 18 58 18 q32 0 58 -18 q26 -18 38 -48 l209 -532 q5 -17 5 -21 ZM213 231 l246 0 l-123 337 l-123 -337 ZM178 788 q-9 9 -9 22 q0 13 9 22 q9 9 22 9 q15 0 23 -9 q46 -49 113 -49 q66 0 112 48 q7 10 23 10 q13 0 22 -9 q9 -9 9 -22 q0 -11 -9 -22 q-64 -67 -157 -67 q-91 0 -158 67 Z" /><glyph glyph-name="abreve" unicode="&#x103;" d="M468 320 l0 -273 q0 -22 -15.5 -37.5 q-15.5 -15.5 -37.5 -15.5 q-21 0 -36.5 15.5 q-15.5 15.5 -15.5 37.5 l0 5 q-56 -64 -156 -64 q-67 0 -117.5 43.5 q-50.5 43.5 -50.5 116.5 q0 75 49.5 116 q49.5 41 118.5 41 q102 0 156 -62 l0 72 q0 42 -31 66 q-31 24 -82 24 q-60 0 -113 -36 q-10 -7 -24 -7 q-17 0 -29.5 12.5 q-12.5 12.5 -12.5 29.5 q0 23 18 34 q77 57 178 57 q93 0 147 -43.5 q54 -43.5 54 -131.5 ZM363 110 l0 73 q-37 50 -115 50 q-45 0 -74 -24 q-29 -24 -29 -63 q0 -39 29 -62.5 q29 -23.5 74 -23.5 q78 0 115 50 ZM110 641 q-9 9 -9 22 q0 13 9 22 q9 9 22 9 q16 0 23 -9 q46 -49 113 -49 q66 0 112 48 q7 10 23 10 q13 0 22 -9 q9 -9 9 -22 q0 -11 -9 -22 q-64 -67 -157 -67 q-91 0 -158 67 Z" /><glyph glyph-name="Aogonek" unicode="&#x104;" d="M644 -147 q0 -24 -23 -32 q-22 -7 -57 -7 q-46 0 -76 20.5 q-30 20.5 -30 56.5 q0 32 30 60.5 q30 28.5 77 46.5 q-25 10 -34 34 l-35 96 l-320 0 l-35 -96 q-6 -17 -21 -27.5 q-15 -10.5 -34 -10.5 q-25 0 -42.5 17.5 q-17.5 17.5 -17.5 42.5 q0 4 5 21 l209 532 q12 30 38 48 q26 18 58 18 q32 0 58 -18 q26 -18 38 -48 l209 -532 q5 -17 5 -21 q0 -29 -23 -47 l-1 -1 q-38 -31 -52.5 -50 q-14.5 -19 -14.5 -40 q0 -14 10 -22.5 q10 -8.5 25 -8.5 q4 0 11 1 q7 1 10 1 q13 0 23 -9.5 q10 -9.5 10 -24.5 ZM213 231 l246 0 l-123 337 l-123 -337 Z" /><glyph glyph-name="aogonek" unicode="&#x105;" d="M471 -147 q0 -24 -23 -32 q-22 -7 -57 -7 q-46 0 -76 20.5 q-30 20.5 -30 56.5 q0 34 30.5 62 q30.5 28 78.5 45 q-31 15 -31 49 l0 5 q-56 -64 -156 -64 q-67 0 -117.5 43.5 q-50.5 43.5 -50.5 116.5 q0 75 49.5 116 q49.5 41 118.5 41 q102 0 156 -62 l0 72 q0 42 -31 66 q-31 24 -82 24 q-60 0 -113 -36 q-10 -7 -24 -7 q-17 0 -29.5 12.5 q-12.5 12.5 -12.5 29.5 q0 23 18 34 q77 57 178 57 q93 0 147 -43.5 q54 -43.5 54 -131.5 l0 -273 q0 -22 -17 -39 l-2 -2 q-38 -31 -52.5 -50 q-14.5 -19 -14.5 -40 q0 -14 10 -22.5 q10 -8.5 25 -8.5 q4 0 11 1 q7 1 10 1 q13 0 23 -9.5 q10 -9.5 10 -24.5 ZM363 110 l0 73 q-37 50 -115 50 q-45 0 -74 -24 q-29 -24 -29 -63 q0 -39 29 -62.5 q29 -23.5 74 -23.5 q78 0 115 50 Z" /><glyph glyph-name="Cacute" unicode="&#x106;" d="M41 333 q-2 148 99.5 247.5 q101.5 99.5 245.5 97.5 q144 0 234 -99 q14 -14 14 -37 q0 -22 -16 -38.5 q-16 -16.5 -39 -16.5 q-26 0 -42 19 q-59 68 -151 68 q-96 0 -160.5 -68.5 q-64.5 -68.5 -64.5 -172.5 q0 -104 64.5 -172.5 q64.5 -68.5 160.5 -68.5 q93 0 152 68 q16 19 41 19 q23 0 39 -16 q16 -16 16 -39 q0 -23 -14 -37 q-90 -99 -234 -99 q-144 -3 -245.5 97 q-101.5 100 -99.5 248 ZM411 724 q-7 -7 -18 -7 q-11 0 -19 8 q-8 8 -8 19 q0 8 8 19 l97 100 q10 10 24 10 q13 0 22.5 -9.5 q9.5 -9.5 9.5 -23.5 q0 -15 -11 -24 l-105 -92 Z" /><glyph glyph-name="cacute" unicode="&#x107;" d="M288 495 q94 0 153 -52 q17 -12 17 -36 q0 -19 -13.5 -33 q-13.5 -14 -33.5 -14 q-17 0 -31 11 q-37 31 -87 31 q-66 0 -106 -44 q-40 -44 -40 -116 q0 -72 40 -116.5 q40 -44.5 106 -44.5 q50 0 87 31 q14 11 30 11 q20 0 34 -13.5 q14 -13.5 14 -33.5 q0 -24 -17 -36 q-59 -52 -153 -52 q-109 0 -179.5 72 q-70.5 72 -70.5 182 q0 110 70.5 181.5 q70.5 71.5 179.5 71.5 ZM311 577 q-7 -7 -18 -7 q-11 0 -19 8 q-8 8 -8 19 q0 8 8 19 l97 100 q10 10 24 10 q13 0 22.5 -9.5 q9.5 -9.5 9.5 -23.5 q0 -15 -11 -24 l-105 -92 Z" /><glyph glyph-name="Ccircumflex" unicode="&#x108;" d="M41 333 q-2 148 99.5 247.5 q101.5 99.5 245.5 97.5 q144 0 234 -99 q14 -14 14 -37 q0 -22 -16 -38.5 q-16 -16.5 -39 -16.5 q-26 0 -42 19 q-59 68 -151 68 q-96 0 -160.5 -68.5 q-64.5 -68.5 -64.5 -172.5 q0 -104 64.5 -172.5 q64.5 -68.5 160.5 -68.5 q93 0 152 68 q16 19 41 19 q23 0 39 -16 q16 -16 16 -39 q0 -23 -14 -37 q-90 -99 -234 -99 q-144 -3 -245.5 97 q-101.5 100 -99.5 248 ZM459 727 l-72 92 l-72 -92 q-7 -10 -21 -10 q-12 0 -20.5 8 q-8.5 8 -8.5 21 q0 10 4 14 l57 88 q15 25 47 25 l28 0 q32 0 47 -25 l57 -88 q4 -4 4 -14 q0 -13 -8.5 -21 q-8.5 -8 -20.5 -8 q-14 0 -21 10 Z" /><glyph glyph-name="ccircumflex" unicode="&#x109;" d="M288 495 q94 0 153 -52 q17 -12 17 -36 q0 -19 -13.5 -33 q-13.5 -14 -33.5 -14 q-17 0 -31 11 q-37 31 -87 31 q-66 0 -106 -44 q-40 -44 -40 -116 q0 -72 40 -116.5 q40 -44.5 106 -44.5 q50 0 87 31 q14 11 30 11 q20 0 34 -13.5 q14 -13.5 14 -33.5 q0 -24 -17 -36 q-59 -52 -153 -52 q-109 0 -179.5 72 q-70.5 72 -70.5 182 q0 110 70.5 181.5 q70.5 71.5 179.5 71.5 ZM359 580 l-72 92 l-72 -92 q-7 -10 -21 -10 q-12 0 -20.5 8 q-8.5 8 -8.5 21 q0 10 4 14 l57 88 q15 25 47 25 l28 0 q32 0 47 -25 l57 -88 q4 -4 4 -14 q0 -13 -8.5 -21 q-8.5 -8 -20.5 -8 q-14 0 -21 10 Z" /><glyph glyph-name="Cdotaccent" unicode="&#x10a;" d="M41 333 q-2 148 99.5 247.5 q101.5 99.5 245.5 97.5 q144 0 234 -99 q14 -14 14 -37 q0 -22 -16 -38.5 q-16 -16.5 -39 -16.5 q-26 0 -42 19 q-59 68 -151 68 q-96 0 -160.5 -68.5 q-64.5 -68.5 -64.5 -172.5 q0 -104 64.5 -172.5 q64.5 -68.5 160.5 -68.5 q93 0 152 68 q16 19 41 19 q23 0 39 -16 q16 -16 16 -39 q0 -23 -14 -37 q-90 -99 -234 -99 q-144 -3 -245.5 97 q-101.5 100 -99.5 248 ZM344.5 830.5 q17.5 17.5 41.5 17.5 q24 0 41 -17.5 q17 -17.5 17 -41.5 q0 -25 -17 -42 q-17 -17 -41 -17 q-24 0 -41.5 17 q-17.5 17 -17.5 42 q0 24 17.5 41.5 Z" /><glyph glyph-name="cdotaccent" unicode="&#x10b;" d="M288 495 q94 0 153 -52 q17 -12 17 -36 q0 -19 -13.5 -33 q-13.5 -14 -33.5 -14 q-17 0 -31 11 q-37 31 -87 31 q-66 0 -106 -44 q-40 -44 -40 -116 q0 -72 40 -116.5 q40 -44.5 106 -44.5 q50 0 87 31 q14 11 30 11 q20 0 34 -13.5 q14 -13.5 14 -33.5 q0 -24 -17 -36 q-59 -52 -153 -52 q-109 0 -179.5 72 q-70.5 72 -70.5 182 q0 110 70.5 181.5 q70.5 71.5 179.5 71.5 ZM244.5 683.5 q17.5 17.5 41.5 17.5 q24 0 41 -17.5 q17 -17.5 17 -41.5 q0 -25 -17 -42 q-17 -17 -41 -17 q-24 0 -41.5 17 q-17.5 17 -17.5 42 q0 24 17.5 41.5 Z" /><glyph glyph-name="Ccaron" unicode="&#x10c;" d="M41 333 q-2 148 99.5 247.5 q101.5 99.5 245.5 97.5 q144 0 234 -99 q14 -14 14 -37 q0 -22 -16 -38.5 q-16 -16.5 -39 -16.5 q-26 0 -42 19 q-59 68 -151 68 q-96 0 -160.5 -68.5 q-64.5 -68.5 -64.5 -172.5 q0 -104 64.5 -172.5 q64.5 -68.5 160.5 -68.5 q93 0 152 68 q16 19 41 19 q23 0 39 -16 q16 -16 16 -39 q0 -23 -14 -37 q-90 -99 -234 -99 q-144 -3 -245.5 97 q-101.5 100 -99.5 248 ZM506 844 q0 -10 -4 -14 l-57 -88 q-15 -25 -47 -25 l-28 0 q-32 0 -47 25 l-57 88 q-4 4 -4 14 q0 13 8.5 21 q8.5 8 20.5 8 q14 0 21 -10 l72 -92 l72 92 q7 10 21 10 q12 0 20.5 -8 q8.5 -8 8.5 -21 Z" /><glyph glyph-name="ccaron" unicode="&#x10d;" d="M288 495 q94 0 153 -52 q17 -12 17 -36 q0 -19 -13.5 -33 q-13.5 -14 -33.5 -14 q-17 0 -31 11 q-37 31 -87 31 q-66 0 -106 -44 q-40 -44 -40 -116 q0 -72 40 -116.5 q40 -44.5 106 -44.5 q50 0 87 31 q14 11 30 11 q20 0 34 -13.5 q14 -13.5 14 -33.5 q0 -24 -17 -36 q-59 -52 -153 -52 q-109 0 -179.5 72 q-70.5 72 -70.5 182 q0 110 70.5 181.5 q70.5 71.5 179.5 71.5 ZM406 697 q0 -10 -4 -14 l-57 -88 q-15 -25 -47 -25 l-28 0 q-32 0 -47 25 l-57 88 q-4 4 -4 14 q0 13 8.5 21 q8.5 8 20.5 8 q14 0 21 -10 l72 -92 l72 92 q7 10 21 10 q12 0 20.5 -8 q8.5 -8 8.5 -21 Z" /><glyph glyph-name="Dcaron" unicode="&#x10e;" d="M71 62 l0 543 q0 62 62 62 l186 0 q155 0 252 -93.5 q97 -93.5 97 -240.5 q0 -147 -97 -240 q-97 -93 -252 -93 l-186 0 q-62 0 -62 62 ZM188 103 l131 0 q104 0 166.5 65.5 q62.5 65.5 62.5 164.5 q0 101 -61 166 q-61 65 -168 65 l-131 0 l0 -461 ZM476 844 q0 -10 -4 -14 l-57 -88 q-15 -25 -47 -25 l-28 0 q-32 0 -47 25 l-57 88 q-4 4 -4 14 q0 13 8.5 21 q8.5 8 20.5 8 q14 0 21 -10 l72 -92 l72 92 q7 10 21 10 q12 0 20.5 -8 q8.5 -8 8.5 -21 Z" /><glyph glyph-name="dcaron" unicode="&#x10f;" d="M513 620 l0 -573 q0 -22 -15.5 -37.5 q-15.5 -15.5 -37.5 -15.5 q-21 0 -36.5 15.5 q-15.5 15.5 -15.5 37.5 l0 18 q-59 -77 -155 -77 q-95 0 -155 68.5 q-60 68.5 -60 184.5 q0 115 60 184.5 q60 69.5 155 69.5 q95 0 155 -79 l0 204 q0 22 15.5 37.5 q15.5 15.5 36.5 15.5 q22 0 37.5 -15.5 q15.5 -15.5 15.5 -37.5 ZM408 145 l0 192 q-18 28 -53.5 46.5 q-35.5 18.5 -71.5 18.5 q-62 0 -99 -44.5 q-37 -44.5 -37 -116.5 q0 -72 37 -116 q37 -44 99 -44 q37 0 72 18 q35 18 53 46 ZM567 487 q0 9 13 22 q33 33 39 65 q-6 -2 -14 -2 q-20 0 -34 14.5 q-14 14.5 -14 36.5 q0 23 16 39.5 q16 16.5 39 16.5 q27 0 45 -20.5 q18 -20.5 18 -54.5 q0 -76 -67 -135 q-8 -6 -16 -6 q-10 0 -17.5 7 q-7.5 7 -7.5 17 Z" /><glyph glyph-name="Dcroat" unicode="&#x110;" d="M597 573.5 q97 -93.5 97 -240.5 q0 -147 -97 -240 q-97 -93 -252 -93 l-186 0 q-62 0 -62 62 l0 223 l-51 0 q-17 0 -30 12.5 q-13 12.5 -13 30.5 q0 18 13 30.5 q13 12.5 30 12.5 l51 0 l0 234 q0 62 62 62 l186 0 q155 0 252 -93.5 ZM574 333 q0 101 -61 166 q-61 65 -168 65 l-131 0 l0 -193 l121 0 q17 0 30 -12.5 q13 -12.5 13 -30.5 q0 -18 -13 -30.5 q-13 -12.5 -30 -12.5 l-121 0 l0 -182 l131 0 q104 0 166.5 65.5 q62.5 65.5 62.5 164.5 Z" /><glyph glyph-name="dcroat" unicode="&#x111;" d="M573 584 q9 -9 9 -22 q0 -13 -9 -22 q-9 -9 -22 -9 l-38 0 l0 -484 q0 -22 -15.5 -37.5 q-15.5 -15.5 -37.5 -15.5 q-21 0 -36.5 15.5 q-15.5 15.5 -15.5 37.5 l0 18 q-59 -77 -155 -77 q-95 0 -155 68.5 q-60 68.5 -60 184.5 q0 115 60 184.5 q60 69.5 155 69.5 q95 0 155 -79 l0 115 l-125 0 q-13 0 -22 9 q-9 9 -9 22 q0 13 9 22 q9 9 22 9 l125 0 l0 27 q0 22 15.5 37.5 q15.5 15.5 36.5 15.5 q22 0 37.5 -15.5 q15.5 -15.5 15.5 -37.5 l0 -27 l38 0 q13 0 22 -9 ZM408 145 l0 192 q-18 28 -53.5 46.5 q-35.5 18.5 -71.5 18.5 q-62 0 -99 -44.5 q-37 -44.5 -37 -116.5 q0 -72 37 -116 q37 -44 99 -44 q37 0 72 18 q35 18 53 46 Z" /><glyph glyph-name="Emacron" unicode="&#x112;" d="M71 62 l0 543 q0 62 62 62 l349 0 q21 0 36.5 -15 q15.5 -15 15.5 -37 q0 -21 -15.5 -36 q-15.5 -15 -36.5 -15 l-294 0 l0 -173 l287 0 q21 0 36.5 -15 q15.5 -15 15.5 -36 q0 -22 -15.5 -37 q-15.5 -15 -36.5 -15 l-287 0 l0 -185 l294 0 q21 0 36.5 -15 q15.5 -15 15.5 -36 q0 -22 -15.5 -37 q-15.5 -15 -36.5 -15 l-349 0 q-62 0 -62 62 ZM147 742 q-9 9 -9 22 q0 13 9 22 q9 9 22 9 l273 0 q13 0 22 -9 q9 -9 9 -22 q0 -13 -9 -22 q-9 -9 -22 -9 l-273 0 q-13 0 -22 9 Z" /><glyph glyph-name="emacron" unicode="&#x113;" d="M283 495 q104 0 171 -70 q67 -70 67 -169 q0 -49 -62 -49 l-311 0 q6 -58 47.5 -95.5 q41.5 -37.5 106.5 -37.5 q57 0 110 32 q9 6 23 6 q17 0 29.5 -12.5 q12.5 -12.5 12.5 -29.5 q0 -22 -19 -35 q-71 -47 -167 -47 q-109 0 -181 70.5 q-72 70.5 -72 183.5 q0 106 70 179.5 q70 73.5 175 73.5 ZM147 281 l272 0 q-2 51 -37.5 89.5 q-35.5 38.5 -98.5 38.5 q-60 0 -96 -37 q-36 -37 -40 -91 ZM124 595 q-9 9 -9 22 q0 13 9 22 q9 9 22 9 l273 0 q13 0 22 -9 q9 -9 9 -22 q0 -13 -9 -22 q-9 -9 -22 -9 l-273 0 q-13 0 -22 9 Z" /><glyph glyph-name="Ebreve" unicode="&#x114;" d="M71 62 l0 543 q0 62 62 62 l349 0 q21 0 36.5 -15 q15.5 -15 15.5 -37 q0 -21 -15.5 -36 q-15.5 -15 -36.5 -15 l-294 0 l0 -173 l287 0 q21 0 36.5 -15 q15.5 -15 15.5 -36 q0 -22 -15.5 -37 q-15.5 -15 -36.5 -15 l-287 0 l0 -185 l294 0 q21 0 36.5 -15 q15.5 -15 15.5 -36 q0 -22 -15.5 -37 q-15.5 -15 -36.5 -15 l-349 0 q-62 0 -62 62 ZM148 788 q-9 9 -9 22 q0 13 9 22 q9 9 22 9 q16 0 23 -9 q46 -49 113 -49 q66 0 112 48 q7 10 23 10 q13 0 22 -9 q9 -9 9 -22 q0 -11 -9 -22 q-64 -67 -157 -67 q-91 0 -158 67 Z" /><glyph glyph-name="ebreve" unicode="&#x115;" d="M283 495 q104 0 171 -70 q67 -70 67 -169 q0 -49 -62 -49 l-311 0 q6 -58 47.5 -95.5 q41.5 -37.5 106.5 -37.5 q57 0 110 32 q9 6 23 6 q17 0 29.5 -12.5 q12.5 -12.5 12.5 -29.5 q0 -22 -19 -35 q-71 -47 -167 -47 q-109 0 -181 70.5 q-72 70.5 -72 183.5 q0 106 70 179.5 q70 73.5 175 73.5 ZM147 281 l272 0 q-2 51 -37.5 89.5 q-35.5 38.5 -98.5 38.5 q-60 0 -96 -37 q-36 -37 -40 -91 ZM125 641 q-9 9 -9 22 q0 13 9 22 q9 9 22 9 q15 0 23 -9 q46 -49 113 -49 q65 0 112 48 q7 10 23 10 q13 0 22 -9 q9 -9 9 -22 q0 -11 -9 -22 q-64 -67 -157 -67 q-91 0 -158 67 Z" /><glyph glyph-name="Edotaccent" unicode="&#x116;" d="M71 62 l0 543 q0 62 62 62 l349 0 q21 0 36.5 -15 q15.5 -15 15.5 -37 q0 -21 -15.5 -36 q-15.5 -15 -36.5 -15 l-294 0 l0 -173 l287 0 q21 0 36.5 -15 q15.5 -15 15.5 -36 q0 -22 -15.5 -37 q-15.5 -15 -36.5 -15 l-287 0 l0 -185 l294 0 q21 0 36.5 -15 q15.5 -15 15.5 -36 q0 -22 -15.5 -37 q-15.5 -15 -36.5 -15 l-349 0 q-62 0 -62 62 ZM264.5 830.5 q17.5 17.5 41.5 17.5 q24 0 41 -17.5 q17 -17.5 17 -41.5 q0 -25 -17 -42 q-17 -17 -41 -17 q-24 0 -41.5 17 q-17.5 17 -17.5 42 q0 24 17.5 41.5 Z" /><glyph glyph-name="edotaccent" unicode="&#x117;" d="M283 495 q104 0 171 -70 q67 -70 67 -169 q0 -49 -62 -49 l-311 0 q6 -58 47.5 -95.5 q41.5 -37.5 106.5 -37.5 q57 0 110 32 q9 6 23 6 q17 0 29.5 -12.5 q12.5 -12.5 12.5 -29.5 q0 -22 -19 -35 q-71 -47 -167 -47 q-109 0 -181 70.5 q-72 70.5 -72 183.5 q0 106 70 179.5 q70 73.5 175 73.5 ZM147 281 l272 0 q-2 51 -37.5 89.5 q-35.5 38.5 -98.5 38.5 q-60 0 -96 -37 q-36 -37 -40 -91 ZM241.5 683.5 q17.5 17.5 41.5 17.5 q24 0 41 -17.5 q17 -17.5 17 -41.5 q0 -25 -17 -42 q-17 -17 -41 -17 q-24 0 -41.5 17 q-17.5 17 -17.5 42 q0 24 17.5 41.5 Z" /><glyph glyph-name="Eogonek" unicode="&#x118;" d="M439 -84 q0 -14 10 -22.5 q10 -8.5 25 -8.5 q4 0 11 1 q7 1 10 1 q13 0 23 -9.5 q10 -9.5 10 -24.5 q0 -24 -23 -32 q-22 -7 -57 -7 q-46 0 -76 20.5 q-30 20.5 -30 56.5 q0 35 32 63.5 q32 28.5 82 45.5 l-323 0 q-62 0 -62 62 l0 543 q0 62 62 62 l349 0 q21 0 36.5 -15 q15.5 -15 15.5 -37 q0 -21 -15.5 -36 q-15.5 -15 -36.5 -15 l-294 0 l0 -173 l287 0 q21 0 36.5 -15 q15.5 -15 15.5 -36 q0 -22 -15.5 -37 q-15.5 -15 -36.5 -15 l-287 0 l0 -185 l294 0 q21 0 36.5 -15 q15.5 -15 15.5 -36 q0 -30 -28 -46 q-38 -31 -52.5 -50 q-14.5 -19 -14.5 -40 Z" /><glyph glyph-name="eogonek" unicode="&#x119;" d="M38 242 q0 106 70 179.5 q70 73.5 175 73.5 q104 0 171 -70 q67 -70 67 -169 q0 -49 -62 -49 l-311 0 q6 -58 47.5 -95.5 q41.5 -37.5 106.5 -37.5 q57 0 110 32 q9 6 22 6 q18 0 30.5 -12.5 q12.5 -12.5 12.5 -30.5 q0 -19 -15 -32 q-76 -67 -76 -112 q0 -19 10.5 -29.5 q10.5 -10.5 26.5 -10.5 q8 0 10 1 q15 2 27.5 -8 q12.5 -10 12.5 -26 q0 -26 -26 -33 q-30 -5 -50 -5 q-46 0 -76 20.5 q-30 20.5 -30 56.5 q0 52 80 106 q-41 -9 -80 -9 q-109 0 -181 70.5 q-72 70.5 -72 183.5 ZM147 281 l272 0 q-2 51 -37.5 89.5 q-35.5 38.5 -98.5 38.5 q-60 0 -96 -37 q-36 -37 -40 -91 Z" /><glyph glyph-name="Ecaron" unicode="&#x11a;" d="M71 62 l0 543 q0 62 62 62 l349 0 q21 0 36.5 -15 q15.5 -15 15.5 -37 q0 -21 -15.5 -36 q-15.5 -15 -36.5 -15 l-294 0 l0 -173 l287 0 q21 0 36.5 -15 q15.5 -15 15.5 -36 q0 -22 -15.5 -37 q-15.5 -15 -36.5 -15 l-287 0 l0 -185 l294 0 q21 0 36.5 -15 q15.5 -15 15.5 -36 q0 -22 -15.5 -37 q-15.5 -15 -36.5 -15 l-349 0 q-62 0 -62 62 ZM426 844 q0 -10 -4 -14 l-57 -88 q-15 -25 -47 -25 l-28 0 q-32 0 -47 25 l-57 88 q-4 4 -4 14 q0 13 8.5 21 q8.5 8 20.5 8 q14 0 21 -10 l72 -92 l72 92 q7 10 21 10 q12 0 20.5 -8 q8.5 -8 8.5 -21 Z" /><glyph glyph-name="ecaron" unicode="&#x11b;" d="M283 495 q104 0 171 -70 q67 -70 67 -169 q0 -49 -62 -49 l-311 0 q6 -58 47.5 -95.5 q41.5 -37.5 106.5 -37.5 q57 0 110 32 q9 6 23 6 q17 0 29.5 -12.5 q12.5 -12.5 12.5 -29.5 q0 -22 -19 -35 q-71 -47 -167 -47 q-109 0 -181 70.5 q-72 70.5 -72 183.5 q0 106 70 179.5 q70 73.5 175 73.5 ZM147 281 l272 0 q-2 51 -37.5 89.5 q-35.5 38.5 -98.5 38.5 q-60 0 -96 -37 q-36 -37 -40 -91 ZM403 697 q0 -10 -4 -14 l-57 -88 q-15 -25 -47 -25 l-28 0 q-32 0 -47 25 l-57 88 q-4 4 -4 14 q0 13 8.5 21 q8.5 8 20.5 8 q14 0 21 -10 l72 -92 l72 92 q7 10 21 10 q12 0 20.5 -8 q8.5 -8 8.5 -21 Z" /><glyph glyph-name="Gcircumflex" unicode="&#x11c;" d="M666 296 l0 -143 q0 -48 -32 -76 q-104 -90 -243 -90 q-146 -2 -249 97 q-103 99 -101 249 q-2 150 101 248.5 q103 98.5 249 96.5 q137 0 227 -90 q16 -16 16 -39 q0 -22 -15.5 -38 q-15.5 -16 -38.5 -16 q-23 0 -39 16 q-63 63 -150 63 q-99 0 -164.5 -68.5 q-65.5 -68.5 -65.5 -172.5 q0 -103 66 -172.5 q66 -69.5 164 -69.5 q92 0 158 60 l0 104 l-153 0 q-21 0 -36.5 15 q-15.5 15 -15.5 37 q0 21 15.5 36 q15.5 15 36.5 15 l208 0 q62 0 62 -62 ZM464 727 l-72 92 l-72 -92 q-7 -10 -21 -10 q-12 0 -20.5 8 q-8.5 8 -8.5 21 q0 10 4 14 l57 88 q15 25 47 25 l28 0 q32 0 47 -25 l57 -88 q4 -4 4 -14 q0 -13 -8.5 -21 q-8.5 -8 -20.5 -8 q-14 0 -21 10 Z" /><glyph glyph-name="gcircumflex" unicode="&#x11d;" d="M512 436 l0 -411 q0 -119 -72 -170 q-70 -51 -176 -51 q-105 0 -174 49 q-19 13 -19 36 q0 18 13 31 q13 13 31 13 q14 0 25 -8 q50 -35 124 -35 q64 0 103.5 33 q39.5 33 39.5 98 l0 58 q-64 -80 -155 -80 q-95 0 -154.5 66.5 q-59.5 66.5 -59.5 181.5 q0 114 59.5 181 q59.5 67 154.5 67 q95 0 155 -79 l0 20 q0 22 15.5 37.5 q15.5 15.5 37.5 15.5 q21 0 36.5 -15.5 q15.5 -15.5 15.5 -37.5 ZM407 157 l0 180 q-18 27 -53.5 46 q-35.5 19 -70.5 19 q-62 0 -99 -42.5 q-37 -42.5 -37 -112.5 q0 -70 37 -112.5 q37 -42.5 99 -42.5 q35 0 70.5 19 q35.5 19 53.5 46 ZM366 580 l-72 92 l-72 -92 q-7 -10 -21 -10 q-12 0 -20.5 8 q-8.5 8 -8.5 21 q0 10 4 14 l57 88 q15 25 47 25 l28 0 q32 0 47 -25 l57 -88 q4 -4 4 -14 q0 -13 -8.5 -21 q-8.5 -8 -20.5 -8 q-14 0 -21 10 Z" /><glyph glyph-name="Gbreve" unicode="&#x11e;" d="M666 296 l0 -143 q0 -48 -32 -76 q-104 -90 -243 -90 q-146 -2 -249 97 q-103 99 -101 249 q-2 150 101 248.5 q103 98.5 249 96.5 q137 0 227 -90 q16 -16 16 -39 q0 -22 -15.5 -38 q-15.5 -16 -38.5 -16 q-23 0 -39 16 q-63 63 -150 63 q-99 0 -164.5 -68.5 q-65.5 -68.5 -65.5 -172.5 q0 -103 66 -172.5 q66 -69.5 164 -69.5 q92 0 158 60 l0 104 l-153 0 q-21 0 -36.5 15 q-15.5 15 -15.5 37 q0 21 15.5 36 q15.5 15 36.5 15 l208 0 q62 0 62 -62 ZM233 788 q-9 9 -9 22 q0 13 9 22 q9 9 22 9 q15 0 23 -9 q46 -49 113 -49 q66 0 112 48 q7 10 23 10 q13 0 22 -9 q9 -9 9 -22 q0 -11 -9 -22 q-64 -67 -157 -67 q-91 0 -158 67 Z" /><glyph glyph-name="gbreve" unicode="&#x11f;" d="M512 436 l0 -411 q0 -119 -72 -170 q-70 -51 -176 -51 q-105 0 -174 49 q-19 13 -19 36 q0 18 13 31 q13 13 31 13 q14 0 25 -8 q50 -35 124 -35 q64 0 103.5 33 q39.5 33 39.5 98 l0 58 q-64 -80 -155 -80 q-95 0 -154.5 66.5 q-59.5 66.5 -59.5 181.5 q0 114 59.5 181 q59.5 67 154.5 67 q95 0 155 -79 l0 20 q0 22 15.5 37.5 q15.5 15.5 37.5 15.5 q21 0 36.5 -15.5 q15.5 -15.5 15.5 -37.5 ZM407 157 l0 180 q-18 27 -53.5 46 q-35.5 19 -70.5 19 q-62 0 -99 -42.5 q-37 -42.5 -37 -112.5 q0 -70 37 -112.5 q37 -42.5 99 -42.5 q35 0 70.5 19 q35.5 19 53.5 46 ZM135 641 q-9 9 -9 22 q0 13 9 22 q9 9 22 9 q15 0 23 -9 q46 -49 113 -49 q65 0 112 48 q7 10 23 10 q13 0 22 -9 q9 -9 9 -22 q0 -11 -9 -22 q-64 -67 -157 -67 q-91 0 -158 67 Z" /><glyph glyph-name="Gdotaccent" unicode="&#x120;" d="M666 296 l0 -143 q0 -48 -32 -76 q-104 -90 -243 -90 q-146 -2 -249 97 q-103 99 -101 249 q-2 150 101 248.5 q103 98.5 249 96.5 q137 0 227 -90 q16 -16 16 -39 q0 -22 -15.5 -38 q-15.5 -16 -38.5 -16 q-23 0 -39 16 q-63 63 -150 63 q-99 0 -164.5 -68.5 q-65.5 -68.5 -65.5 -172.5 q0 -103 66 -172.5 q66 -69.5 164 -69.5 q92 0 158 60 l0 104 l-153 0 q-21 0 -36.5 15 q-15.5 15 -15.5 37 q0 21 15.5 36 q15.5 15 36.5 15 l208 0 q62 0 62 -62 ZM349.5 830.5 q17.5 17.5 41.5 17.5 q24 0 41 -17.5 q17 -17.5 17 -41.5 q0 -25 -17 -42 q-17 -17 -41 -17 q-24 0 -41.5 17 q-17.5 17 -17.5 42 q0 24 17.5 41.5 Z" /><glyph glyph-name="gdotaccent" unicode="&#x121;" d="M512 436 l0 -411 q0 -119 -72 -170 q-70 -51 -176 -51 q-105 0 -174 49 q-19 13 -19 36 q0 18 13 31 q13 13 31 13 q14 0 25 -8 q50 -35 124 -35 q64 0 103.5 33 q39.5 33 39.5 98 l0 58 q-64 -80 -155 -80 q-95 0 -154.5 66.5 q-59.5 66.5 -59.5 181.5 q0 114 59.5 181 q59.5 67 154.5 67 q95 0 155 -79 l0 20 q0 22 15.5 37.5 q15.5 15.5 37.5 15.5 q21 0 36.5 -15.5 q15.5 -15.5 15.5 -37.5 ZM407 157 l0 180 q-18 27 -53.5 46 q-35.5 19 -70.5 19 q-62 0 -99 -42.5 q-37 -42.5 -37 -112.5 q0 -70 37 -112.5 q37 -42.5 99 -42.5 q35 0 70.5 19 q35.5 19 53.5 46 ZM251.5 683.5 q17.5 17.5 41.5 17.5 q24 0 41 -17.5 q17 -17.5 17 -41.5 q0 -25 -17 -42 q-17 -17 -41 -17 q-24 0 -41.5 17 q-17.5 17 -17.5 42 q0 24 17.5 41.5 Z" /><glyph glyph-name="uni0122" unicode="&#x122;" d="M666 296 l0 -143 q0 -48 -32 -76 q-104 -90 -243 -90 q-146 -2 -249 97 q-103 99 -101 249 q-2 150 101 248.5 q103 98.5 249 96.5 q137 0 227 -90 q16 -16 16 -39 q0 -22 -15.5 -38 q-15.5 -16 -38.5 -16 q-23 0 -39 16 q-63 63 -150 63 q-99 0 -164.5 -68.5 q-65.5 -68.5 -65.5 -172.5 q0 -103 66 -172.5 q66 -69.5 164 -69.5 q92 0 158 60 l0 104 l-153 0 q-21 0 -36.5 15 q-15.5 15 -15.5 37 q0 21 15.5 36 q15.5 15 36.5 15 l208 0 q62 0 62 -62 ZM346 -255 q0 9 13 22 q33 33 39 65 q-6 -2 -14 -2 q-20 0 -34 14.5 q-14 14.5 -14 36.5 q0 23 16 39.5 q16 16.5 39 16.5 q27 0 45 -20.5 q18 -20.5 18 -54.5 q0 -76 -67 -135 q-7 -6 -16 -6 q-10 0 -17.5 7 q-7.5 7 -7.5 17 Z" /><glyph glyph-name="uni0123" unicode="&#x123;" d="M232 632 q0 76 67 135 q8 6 16 6 q10 0 17.5 -7 q7.5 -7 7.5 -17 q0 -9 -13 -22 q-33 -33 -39 -65 q6 2 14 2 q20 0 34 -14.5 q14 -14.5 14 -36.5 q0 -23 -16 -39.5 q-16 -16.5 -39 -16.5 q-27 0 -45 20.5 q-18 20.5 -18 54.5 ZM512 436 l0 -411 q0 -119 -72 -170 q-70 -51 -176 -51 q-105 0 -174 49 q-19 13 -19 36 q0 18 13 31 q13 13 31 13 q14 0 25 -8 q50 -35 124 -35 q64 0 103.5 33 q39.5 33 39.5 98 l0 58 q-64 -80 -155 -80 q-95 0 -154.5 66.5 q-59.5 66.5 -59.5 181.5 q0 114 59.5 181 q59.5 67 154.5 67 q95 0 155 -79 l0 20 q0 22 15.5 37.5 q15.5 15.5 37.5 15.5 q21 0 36.5 -15.5 q15.5 -15.5 15.5 -37.5 ZM407 157 l0 180 q-18 27 -53.5 46 q-35.5 19 -70.5 19 q-62 0 -99 -42.5 q-37 -42.5 -37 -112.5 q0 -70 37 -112.5 q37 -42.5 99 -42.5 q35 0 70.5 19 q35.5 19 53.5 46 Z" /><glyph glyph-name="Hcircumflex" unicode="&#x124;" d="M535 53 l0 238 l-347 0 l0 -238 q0 -24 -17 -41.5 q-17 -17.5 -41 -17.5 q-25 0 -42 17.5 q-17 17.5 -17 41.5 l0 561 q0 24 17 41.5 q17 17.5 41 17.5 q25 0 42 -17.5 q17 -17.5 17 -41.5 l0 -220 l347 0 l0 220 q0 24 17 41.5 q17 17.5 42 17.5 q24 0 41 -17.5 q17 -17.5 17 -41.5 l0 -561 q0 -24 -17 -41.5 q-17 -17.5 -42 -17.5 q-24 0 -41 17.5 q-17 17.5 -17 41.5 ZM435 727 l-72 92 l-72 -92 q-7 -10 -21 -10 q-12 0 -20.5 8 q-8.5 8 -8.5 21 q0 10 4 14 l57 88 q15 25 47 25 l28 0 q32 0 47 -25 l57 -88 q4 -4 4 -14 q0 -13 -8.5 -21 q-8.5 -8 -20.5 -8 q-14 0 -21 10 Z" /><glyph glyph-name="hcircumflex" unicode="&#x125;" d="M395 47 l0 257 q0 52 -24.5 75 q-24.5 23 -73.5 23 q-73 0 -124 -65 l0 -290 q0 -22 -15.5 -37.5 q-15.5 -15.5 -36.5 -15.5 q-22 0 -37.5 15.5 q-15.5 15.5 -15.5 37.5 l0 573 q0 22 15.5 37.5 q15.5 15.5 37.5 15.5 q21 0 36.5 -15.5 q15.5 -15.5 15.5 -37.5 l0 -203 q28 34 74 56 q46 22 97 22 q156 0 156 -153 l0 -295 q0 -22 -15.5 -37.5 q-15.5 -15.5 -37.5 -15.5 q-21 0 -36.5 15.5 q-15.5 15.5 -15.5 37.5 ZM357 727 l-72 92 l-72 -92 q-7 -10 -21 -10 q-12 0 -20.5 8 q-8.5 8 -8.5 21 q0 10 4 14 l57 88 q15 25 47 25 l28 0 q32 0 47 -25 l57 -88 q4 -4 4 -14 q0 -13 -8.5 -21 q-8.5 -8 -20.5 -8 q-14 0 -21 10 Z" /><glyph glyph-name="Hbar" unicode="&#x126;" d="M732 549 q9 -9 9 -22 q0 -13 -9 -22 q-9 -9 -22 -9 l-49 0 l0 -443 q0 -24 -17 -41.5 q-17 -17.5 -42 -17.5 q-24 0 -41 17.5 q-17 17.5 -17 41.5 l0 238 l-347 0 l0 -238 q0 -24 -17 -41.5 q-17 -17.5 -41 -17.5 q-25 0 -42 17.5 q-17 17.5 -17 41.5 l0 443 l-46 0 q-13 0 -22 9 q-9 9 -9 22 q0 13 9 22 q9 9 22 9 l46 0 l0 56 q0 24 17 41.5 q17 17.5 41 17.5 q25 0 42 -17.5 q17 -17.5 17 -41.5 l0 -56 l347 0 l0 56 q0 24 17 41.5 q17 17.5 42 17.5 q24 0 41 -17.5 q17 -17.5 17 -41.5 l0 -56 l49 0 q13 0 22 -9 ZM544 394 l0 102 l-347 0 l0 -102 l347 0 Z" /><glyph glyph-name="hbar" unicode="&#x127;" d="M503 342 l0 -295 q0 -22 -15.5 -37.5 q-15.5 -15.5 -37.5 -15.5 q-21 0 -36.5 15.5 q-15.5 15.5 -15.5 37.5 l0 257 q0 52 -24.5 75 q-24.5 23 -73.5 23 q-73 0 -124 -65 l0 -290 q0 -22 -15.5 -37.5 q-15.5 -15.5 -36.5 -15.5 q-22 0 -37.5 15.5 q-15.5 15.5 -15.5 37.5 l0 484 l-37 0 q-13 0 -22 9 q-9 9 -9 22 q0 13 9 22 q9 9 22 9 l37 0 l0 27 q0 22 15.5 37.5 q15.5 15.5 37.5 15.5 q21 0 36.5 -15.5 q15.5 -15.5 15.5 -37.5 l0 -27 l126 0 q13 0 22 -9 q9 -9 9 -22 q0 -13 -9 -22 q-9 -9 -22 -9 l-126 0 l0 -114 q28 34 74 56 q46 22 97 22 q156 0 156 -153 Z" /><glyph glyph-name="Itilde" unicode="&#x128;" d="M71 53 l0 561 q0 24 17 41.5 q17 17.5 42 17.5 q24 0 41 -17.5 q17 -17.5 17 -41.5 l0 -561 q0 -24 -17 -41.5 q-17 -17.5 -41 -17.5 q-25 0 -42 17.5 q-17 17.5 -17 41.5 ZM112 767 q-24 32 -43 32 q-34 0 -41 -53 q-5 -25 -28 -25 q-13 0 -21.5 10 q-8.5 10 -6.5 22 q6 52 32 80 q26 28 69 28 q24 0 39.5 -10.5 q15.5 -10.5 35.5 -35.5 q26 -32 44 -32 q33 0 40 53 q2 25 28 25 q13 0 21.5 -9.5 q8.5 -9.5 7.5 -22.5 q-6 -52 -32 -80 q-26 -28 -69 -28 q-24 0 -40.5 11 q-16.5 11 -35.5 35 Z" /><glyph glyph-name="itilde" unicode="&#x129;" d="M68 47 l0 389 q0 22 15.5 37.5 q15.5 15.5 37.5 15.5 q21 0 36.5 -15.5 q15.5 -15.5 15.5 -37.5 l0 -389 q0 -22 -15.5 -37.5 q-15.5 -15.5 -37.5 -15.5 q-21 0 -36.5 15.5 q-15.5 15.5 -15.5 37.5 ZM102 620 q-24 32 -43 32 q-34 0 -41 -53 q-5 -25 -28 -25 q-13 0 -21.5 10 q-8.5 10 -6.5 22 q6 52 32 80 q26 28 69 28 q24 0 39.5 -10.5 q15.5 -10.5 35.5 -35.5 q26 -32 44 -32 q33 0 40 53 q2 25 28 25 q13 0 21.5 -9.5 q8.5 -9.5 7.5 -22.5 q-6 -52 -32 -80 q-26 -28 -69 -28 q-24 0 -40.5 11 q-16.5 11 -35.5 35 Z" /><glyph glyph-name="Imacron" unicode="&#x12a;" d="M71 53 l0 561 q0 24 17 41.5 q17 17.5 42 17.5 q24 0 41 -17.5 q17 -17.5 17 -41.5 l0 -561 q0 -24 -17 -41.5 q-17 -17.5 -41 -17.5 q-25 0 -42 17.5 q-17 17.5 -17 41.5 ZM-29 742 q-9 9 -9 22 q0 13 9 22 q9 9 22 9 l273 0 q13 0 22 -9 q9 -9 9 -22 q0 -13 -9 -22 q-9 -9 -22 -9 l-273 0 q-13 0 -22 9 Z" /><glyph glyph-name="imacron" unicode="&#x12b;" d="M68 47 l0 389 q0 22 15.5 37.5 q15.5 15.5 37.5 15.5 q21 0 36.5 -15.5 q15.5 -15.5 15.5 -37.5 l0 -389 q0 -22 -15.5 -37.5 q-15.5 -15.5 -37.5 -15.5 q-21 0 -36.5 15.5 q-15.5 15.5 -15.5 37.5 ZM-39 595 q-9 9 -9 22 q0 13 9 22 q9 9 22 9 l273 0 q13 0 22 -9 q9 -9 9 -22 q0 -13 -9 -22 q-9 -9 -22 -9 l-273 0 q-13 0 -22 9 Z" /><glyph glyph-name="Ibreve" unicode="&#x12c;" d="M71 53 l0 561 q0 24 17 41.5 q17 17.5 42 17.5 q24 0 41 -17.5 q17 -17.5 17 -41.5 l0 -561 q0 -24 -17 -41.5 q-17 -17.5 -41 -17.5 q-25 0 -42 17.5 q-17 17.5 -17 41.5 ZM-28 788 q-9 9 -9 22 q0 13 9 22 q9 9 22 9 q16 0 23 -9 q46 -49 113 -49 q66 0 112 48 q7 10 23 10 q13 0 22 -9 q9 -9 9 -22 q0 -11 -9 -22 q-64 -67 -157 -67 q-91 0 -158 67 Z" /><glyph glyph-name="ibreve" unicode="&#x12d;" d="M68 47 l0 389 q0 22 15.5 37.5 q15.5 15.5 37.5 15.5 q21 0 36.5 -15.5 q15.5 -15.5 15.5 -37.5 l0 -389 q0 -22 -15.5 -37.5 q-15.5 -15.5 -37.5 -15.5 q-21 0 -36.5 15.5 q-15.5 15.5 -15.5 37.5 ZM-38 641 q-9 9 -9 22 q0 13 9 22 q9 9 22 9 q16 0 23 -9 q46 -49 113 -49 q66 0 112 48 q7 10 23 10 q13 0 22 -9 q9 -9 9 -22 q0 -11 -9 -22 q-64 -67 -157 -67 q-91 0 -158 67 Z" /><glyph glyph-name="Iogonek" unicode="&#x12e;" d="M99 -84 q0 -14 10 -22.5 q10 -8.5 25 -8.5 q4 0 11 1 q7 1 10 1 q13 0 23 -9.5 q10 -9.5 10 -24.5 q0 -24 -23 -32 q-22 -7 -57 -7 q-46 0 -76 20.5 q-30 20.5 -30 56.5 q0 32 30 60.5 q30 28.5 77 46.5 q-17 6 -27.5 21 q-10.5 15 -10.5 34 l0 561 q0 24 17 41.5 q17 17.5 42 17.5 q24 0 41 -17.5 q17 -17.5 17 -41.5 l0 -561 q0 -26 -20 -44 q0 -1 -2 -3 q-38 -31 -52.5 -50 q-14.5 -19 -14.5 -40 Z" /><glyph glyph-name="iogonek" unicode="&#x12f;" d="M74.5 596 q-19.5 19 -19.5 46 q0 27 19.5 46 q19.5 19 45.5 19 q27 0 46 -19 q19 -19 19 -46 q0 -27 -19 -46 q-19 -19 -46 -19 q-26 0 -45.5 19 ZM173 436 l0 -389 q0 -34 -30 -48 q-59 -48 -59 -83 q0 -14 10 -22.5 q10 -8.5 25 -8.5 q4 0 11 1 q7 1 10 1 q13 0 23 -9.5 q10 -9.5 10 -24.5 q0 -24 -23 -32 q-22 -7 -57 -7 q-46 0 -76 20.5 q-30 20.5 -30 56.5 q0 34 31.5 62.5 q31.5 28.5 79.5 45.5 q-30 16 -30 48 l0 389 q0 22 15.5 37.5 q15.5 15.5 37.5 15.5 q21 0 36.5 -15.5 q15.5 -15.5 15.5 -37.5 Z" /><glyph glyph-name="Idotaccent" unicode="&#x130;" d="M71 53 l0 561 q0 24 17 41.5 q17 17.5 42 17.5 q24 0 41 -17.5 q17 -17.5 17 -41.5 l0 -561 q0 -24 -17 -41.5 q-17 -17.5 -41 -17.5 q-25 0 -42 17.5 q-17 17.5 -17 41.5 ZM88.5 830.5 q17.5 17.5 41.5 17.5 q24 0 41 -17.5 q17 -17.5 17 -41.5 q0 -25 -17 -42 q-17 -17 -41 -17 q-24 0 -41.5 17 q-17.5 17 -17.5 42 q0 24 17.5 41.5 Z" /><glyph glyph-name="dotlessi" unicode="&#x131;" d="M68 47 l0 389 q0 22 15.5 37.5 q15.5 15.5 37.5 15.5 q21 0 36.5 -15.5 q15.5 -15.5 15.5 -37.5 l0 -389 q0 -22 -15.5 -37.5 q-15.5 -15.5 -37.5 -15.5 q-21 0 -36.5 15.5 q-15.5 15.5 -15.5 37.5 Z" /><glyph glyph-name="IJ" unicode="&#x132;" d="M71 53 l0 561 q0 24 17 41.5 q17 17.5 42 17.5 q24 0 41 -17.5 q17 -17.5 17 -41.5 l0 -561 q0 -24 -17 -41.5 q-17 -17.5 -41 -17.5 q-25 0 -42 17.5 q-17 17.5 -17 41.5 ZM277 72 q0 22 15 37 q15 15 37 15 q14 0 28 -8 q35 -24 78 -24 q54 0 85.5 33 q31.5 33 31.5 88 l0 401 q0 24 17 41.5 q17 17.5 41 17.5 q25 0 42 -17.5 q17 -17.5 17 -41.5 l0 -403 q0 -108 -60.5 -165.5 q-60.5 -57.5 -164.5 -57.5 q-82 0 -144 41 q-23 17 -23 43 Z" /><glyph glyph-name="ij" unicode="&#x133;" d="M74.5 596 q-19.5 19 -19.5 46 q0 27 19.5 46 q19.5 19 45.5 19 q27 0 46 -19 q19 -19 19 -46 q0 -27 -19 -46 q-19 -19 -46 -19 q-26 0 -45.5 19 ZM68 47 l0 389 q0 22 15.5 37.5 q15.5 15.5 37.5 15.5 q21 0 36.5 -15.5 q15.5 -15.5 15.5 -37.5 l0 -389 q0 -22 -15.5 -37.5 q-15.5 -15.5 -37.5 -15.5 q-21 0 -36.5 15.5 q-15.5 15.5 -15.5 37.5 ZM315.5 596 q-19.5 19 -19.5 46 q0 27 19.5 46 q19.5 19 45.5 19 q27 0 46 -19 q19 -19 19 -46 q0 -27 -19 -46 q-19 -19 -46 -19 q-26 0 -45.5 19 ZM254 -196 l-12 0 q-17 0 -30 13 q-13 13 -13 31 q0 18 11.5 31.5 q11.5 13.5 27.5 13.5 l3 0 q68 0 68 79 l0 464 q0 22 15.5 37.5 q15.5 15.5 37.5 15.5 q21 0 36.5 -15.5 q15.5 -15.5 15.5 -37.5 l0 -464 q0 -80 -41.5 -124 q-41.5 -44 -118.5 -44 Z" /><glyph glyph-name="Jcircumflex" unicode="&#x134;" d="M18 72 q0 22 15 37 q15 15 37 15 q14 0 28 -8 q34 -24 78 -24 q54 0 85.5 33 q31.5 33 31.5 88 l0 401 q0 24 17 41.5 q17 17.5 41 17.5 q25 0 42 -17.5 q17 -17.5 17 -41.5 l0 -403 q0 -108 -60.5 -165.5 q-60.5 -57.5 -164.5 -57.5 q-82 0 -144 41 q-23 17 -23 43 ZM427 744 l-72 92 l-72 -92 q-7 -10 -21 -10 q-12 0 -20.5 8 q-8.5 8 -8.5 21 q0 10 4 14 l57 88 q15 25 47 25 l28 0 q32 0 47 -25 l57 -88 q4 -4 4 -14 q0 -13 -8.5 -21 q-8.5 -8 -20.5 -8 q-14 0 -21 10 Z" /><glyph glyph-name="jcircumflex" unicode="&#x135;" d="M13 -196 l-12 0 q-17 0 -30 13 q-13 13 -13 31 q0 18 11.5 31.5 q11.5 13.5 27.5 13.5 l3 0 q68 0 68 79 l0 464 q0 22 15.5 37.5 q15.5 15.5 37.5 15.5 q21 0 36.5 -15.5 q15.5 -15.5 15.5 -37.5 l0 -464 q0 -80 -41.5 -124 q-41.5 -44 -118.5 -44 ZM193 580 l-72 92 l-72 -92 q-7 -10 -21 -10 q-12 0 -20.5 8 q-8.5 8 -8.5 21 q0 10 4 14 l57 88 q15 25 47 25 l28 0 q32 0 47 -25 l57 -88 q4 -4 4 -14 q0 -13 -8.5 -21 q-8.5 -8 -20.5 -8 q-14 0 -21 10 Z" /><glyph glyph-name="uni0136" unicode="&#x136;" d="M586 50 q0 -23 -15.5 -39.5 q-15.5 -16.5 -38.5 -16.5 q-24 0 -41 17 l-244 267 l-59 -63 l0 -162 q0 -24 -17 -41.5 q-17 -17.5 -42 -17.5 q-24 0 -41 17.5 q-17 17.5 -17 41.5 l0 561 q0 24 17 41.5 q17 17.5 41 17.5 q25 0 42 -17.5 q17 -17.5 17 -41.5 l0 -267 l281 308 q17 18 41 18 q22 0 38.5 -16 q16.5 -16 16.5 -38 q0 -22 -15 -37 l-224 -235 l245 -260 q15 -16 15 -37 ZM269 -255 q0 9 13 22 q33 33 39 65 q-6 -2 -14 -2 q-20 0 -34 14.5 q-14 14.5 -14 36.5 q0 23 16 39.5 q16 16.5 39 16.5 q27 0 45 -20.5 q18 -20.5 18 -54.5 q0 -76 -67 -135 q-8 -6 -16 -6 q-10 0 -17.5 7 q-7.5 7 -7.5 17 Z" /><glyph glyph-name="uni0137" unicode="&#x137;" d="M490 47 q0 -23 -14.5 -38 q-14.5 -15 -36.5 -15 q-26 0 -40 17 l-157 187 l-69 -65 l0 -86 q0 -22 -15.5 -37.5 q-15.5 -15.5 -37.5 -15.5 q-21 0 -36.5 15.5 q-15.5 15.5 -15.5 37.5 l0 573 q0 22 15.5 37.5 q15.5 15.5 37.5 15.5 q21 0 36.5 -15.5 q15.5 -15.5 15.5 -37.5 l0 -371 l226 227 q13 13 34 13 q19 0 33 -14.5 q14 -14.5 14 -34.5 q0 -19 -14 -33 l-147 -146 l159 -180 q12 -13 12 -34 ZM220 -255 q0 9 13 22 q33 33 39 65 q-6 -2 -14 -2 q-20 0 -34 14.5 q-14 14.5 -14 36.5 q0 23 16 39.5 q16 16.5 39 16.5 q27 0 45 -20.5 q18 -20.5 18 -54.5 q0 -76 -67 -135 q-7 -6 -16 -6 q-10 0 -17.5 7 q-7.5 7 -7.5 17 Z" /><glyph glyph-name="kgreenlandic" unicode="&#x138;" d="M490 47 q0 -23 -14.5 -38 q-14.5 -15 -36.5 -15 q-26 0 -40 17 l-157 187 l-69 -65 l0 -86 q0 -22 -15.5 -37.5 q-15.5 -15.5 -37.5 -15.5 q-21 0 -36.5 15.5 q-15.5 15.5 -15.5 37.5 l0 389 q0 22 15.5 37.5 q15.5 15.5 37.5 15.5 q21 0 36.5 -15.5 q15.5 -15.5 15.5 -37.5 l0 -187 l226 227 q13 13 34 13 q19 0 33 -14.5 q14 -14.5 14 -34.5 q0 -19 -14 -33 l-147 -146 l159 -180 q12 -13 12 -34 Z" /><glyph glyph-name="Lacute" unicode="&#x139;" d="M71 62 l0 552 q0 24 17 41.5 q17 17.5 42 17.5 q24 0 41 -17.5 q17 -17.5 17 -41.5 l0 -511 l248 0 q21 0 36.5 -15 q15.5 -15 15.5 -36 q0 -22 -15.5 -37 q-15.5 -15 -36.5 -15 l-303 0 q-62 0 -62 62 ZM155 724 q-7 -7 -18 -7 q-11 0 -19 8 q-8 8 -8 19 q0 8 8 19 l97 100 q10 10 24 10 q13 0 22.5 -9.5 q9.5 -9.5 9.5 -23.5 q0 -15 -11 -24 l-105 -92 Z" /><glyph glyph-name="lacute" unicode="&#x13a;" d="M68 47 l0 573 q0 22 15.5 37.5 q15.5 15.5 37.5 15.5 q21 0 36.5 -15.5 q15.5 -15.5 15.5 -37.5 l0 -573 q0 -22 -15.5 -37.5 q-15.5 -15.5 -36.5 -15.5 q-22 0 -37.5 15.5 q-15.5 15.5 -15.5 37.5 ZM145 724 q-7 -7 -18 -7 q-11 0 -19 8 q-8 8 -8 19 q0 8 8 19 l97 100 q10 10 24 10 q13 0 22.5 -9.5 q9.5 -9.5 9.5 -23.5 q0 -15 -11 -24 l-105 -92 Z" /><glyph glyph-name="uni013B" unicode="&#x13b;" d="M71 62 l0 552 q0 24 17 41.5 q17 17.5 42 17.5 q24 0 41 -17.5 q17 -17.5 17 -41.5 l0 -511 l248 0 q21 0 36.5 -15 q15.5 -15 15.5 -36 q0 -22 -15.5 -37 q-15.5 -15 -36.5 -15 l-303 0 q-62 0 -62 62 ZM232 -255 q0 9 13 22 q33 33 39 65 q-6 -2 -14 -2 q-20 0 -34 14.5 q-14 14.5 -14 36.5 q0 23 16 39.5 q16 16.5 39 16.5 q27 0 45 -20.5 q18 -20.5 18 -54.5 q0 -76 -67 -135 q-8 -6 -16 -6 q-10 0 -17.5 7 q-7.5 7 -7.5 17 Z" /><glyph glyph-name="uni013C" unicode="&#x13c;" d="M68 47 l0 573 q0 22 15.5 37.5 q15.5 15.5 37.5 15.5 q21 0 36.5 -15.5 q15.5 -15.5 15.5 -37.5 l0 -573 q0 -22 -15.5 -37.5 q-15.5 -15.5 -36.5 -15.5 q-22 0 -37.5 15.5 q-15.5 15.5 -15.5 37.5 ZM75 -255 q0 9 13 22 q33 33 39 65 q-6 -2 -14 -2 q-20 0 -34 14.5 q-14 14.5 -14 36.5 q0 23 16 39.5 q16 16.5 39 16.5 q27 0 45 -20.5 q18 -20.5 18 -54.5 q0 -76 -67 -135 q-7 -6 -16 -6 q-10 0 -17.5 7 q-7.5 7 -7.5 17 Z" /><glyph glyph-name="Lcaron" unicode="&#x13d;" d="M71 62 l0 552 q0 24 17 41.5 q17 17.5 42 17.5 q24 0 41 -17.5 q17 -17.5 17 -41.5 l0 -511 l248 0 q21 0 36.5 -15 q15.5 -15 15.5 -36 q0 -22 -15.5 -37 q-15.5 -15 -36.5 -15 l-303 0 q-62 0 -62 62 ZM284 488 q0 9 13 22 q33 33 39 65 q-6 -2 -14 -2 q-20 0 -34 14.5 q-14 14.5 -14 36.5 q0 23 16 39.5 q16 16.5 39 16.5 q27 0 45 -20.5 q18 -20.5 18 -54.5 q0 -76 -67 -135 q-7 -6 -16 -6 q-10 0 -17.5 7 q-7.5 7 -7.5 17 Z" /><glyph glyph-name="lcaron" unicode="&#x13e;" d="M68 47 l0 573 q0 22 15.5 37.5 q15.5 15.5 37.5 15.5 q21 0 36.5 -15.5 q15.5 -15.5 15.5 -37.5 l0 -573 q0 -22 -15.5 -37.5 q-15.5 -15.5 -36.5 -15.5 q-22 0 -37.5 15.5 q-15.5 15.5 -15.5 37.5 ZM227 487 q0 9 13 22 q33 33 39 65 q-6 -2 -14 -2 q-20 0 -34 14.5 q-14 14.5 -14 36.5 q0 23 16 39.5 q16 16.5 39 16.5 q27 0 45 -20.5 q18 -20.5 18 -54.5 q0 -76 -67 -135 q-8 -6 -16 -6 q-10 0 -17.5 7 q-7.5 7 -7.5 17 Z" /><glyph glyph-name="Ldot" unicode="&#x13f;" d="M71 62 l0 552 q0 24 17 41.5 q17 17.5 42 17.5 q24 0 41 -17.5 q17 -17.5 17 -41.5 l0 -511 l248 0 q21 0 36.5 -15 q15.5 -15 15.5 -36 q0 -22 -15.5 -37 q-15.5 -15 -36.5 -15 l-303 0 q-62 0 -62 62 ZM315 341 q0 29 21 49.5 q21 20.5 49 20.5 q29 0 49.5 -20.5 q20.5 -20.5 20.5 -49.5 q0 -28 -21 -48.5 q-21 -20.5 -49 -20.5 q-28 0 -49 20.5 q-21 20.5 -21 48.5 Z" /><glyph glyph-name="ldot" unicode="&#x140;" d="M68 47 l0 573 q0 22 15.5 37.5 q15.5 15.5 37.5 15.5 q21 0 36.5 -15.5 q15.5 -15.5 15.5 -37.5 l0 -573 q0 -22 -15.5 -37.5 q-15.5 -15.5 -36.5 -15.5 q-22 0 -37.5 15.5 q-15.5 15.5 -15.5 37.5 ZM225 244 q0 29 21 49.5 q21 20.5 49 20.5 q29 0 49.5 -20.5 q20.5 -20.5 20.5 -49.5 q0 -28 -21 -48.5 q-21 -20.5 -49 -20.5 q-28 0 -49 20.5 q-21 20.5 -21 48.5 Z" /><glyph glyph-name="Lslash" unicode="&#x141;" d="M504 52 q0 -22 -15.5 -37 q-15.5 -15 -36.5 -15 l-303 0 q-62 0 -62 62 l0 187 l-21 -12 q-9 -6 -21 -6 q-17 0 -29.5 12.5 q-12.5 12.5 -12.5 29.5 q0 25 21 37 l63 36 l0 268 q0 24 17 41.5 q17 17.5 42 17.5 q24 0 41 -17.5 q17 -17.5 17 -41.5 l0 -200 l28 16 q9 6 21 6 q17 0 29.5 -12.5 q12.5 -12.5 12.5 -29.5 q0 -25 -21 -37 l-70 -40 l0 -214 l248 0 q21 0 36.5 -15 q15.5 -15 15.5 -36 Z" /><glyph glyph-name="lslash" unicode="&#x142;" d="M295 398 q0 -18 -17 -29 l-76 -44 l0 -278 q0 -22 -15.5 -37.5 q-15.5 -15.5 -36.5 -15.5 q-22 0 -37.5 15.5 q-15.5 15.5 -15.5 37.5 l0 218 l-43 -25 q-7 -4 -17 -4 q-14 0 -24 10 q-10 10 -10 24 q0 18 17 29 l77 44 l0 277 q0 22 15.5 37.5 q15.5 15.5 37.5 15.5 q21 0 36.5 -15.5 q15.5 -15.5 15.5 -37.5 l0 -216 l42 24 q7 4 17 4 q14 0 24 -10 q10 -10 10 -24 Z" /><glyph glyph-name="Nacute" unicode="&#x143;" d="M519 24 l-331 462 l0 -433 q0 -24 -17 -41.5 q-17 -17.5 -41 -17.5 q-25 0 -42 17.5 q-17 17.5 -17 41.5 l0 543 q0 32 22.5 54.5 q22.5 22.5 54.5 22.5 q38 0 62 -32 l322 -447 l0 420 q0 24 17 41.5 q17 17.5 41 17.5 q25 0 42 -17.5 q17 -17.5 17 -41.5 l0 -548 q0 -29 -21 -50.5 q-21 -21.5 -51 -21.5 q-37 0 -58 30 ZM385 724 q-7 -7 -18 -7 q-11 0 -19 8 q-8 8 -8 19 q0 8 8 19 l97 100 q10 10 24 10 q13 0 22.5 -9.5 q9.5 -9.5 9.5 -23.5 q0 -15 -11 -24 l-105 -92 Z" /><glyph glyph-name="nacute" unicode="&#x144;" d="M499 340 l0 -293 q0 -22 -15.5 -37.5 q-15.5 -15.5 -37.5 -15.5 q-21 0 -36.5 15.5 q-15.5 15.5 -15.5 37.5 l0 255 q0 53 -24 76.5 q-24 23.5 -73 23.5 q-75 0 -124 -65 l0 -290 q0 -22 -15.5 -37.5 q-15.5 -15.5 -36.5 -15.5 q-22 0 -37.5 15.5 q-15.5 15.5 -15.5 37.5 l0 389 q0 22 15.5 37.5 q15.5 15.5 36.5 15.5 q22 0 37.5 -15.5 q15.5 -15.5 15.5 -37.5 l0 -19 q29 34 74 56 q45 22 96 22 q77 0 116.5 -40 q39.5 -40 39.5 -115 ZM309 577 q-7 -7 -18 -7 q-11 0 -19 8 q-8 8 -8 19 q0 8 8 19 l97 100 q10 10 24 10 q13 0 22.5 -9.5 q9.5 -9.5 9.5 -23.5 q0 -15 -11 -24 l-105 -92 Z" /><glyph glyph-name="uni0145" unicode="&#x145;" d="M519 24 l-331 462 l0 -433 q0 -24 -17 -41.5 q-17 -17.5 -41 -17.5 q-25 0 -42 17.5 q-17 17.5 -17 41.5 l0 543 q0 32 22.5 54.5 q22.5 22.5 54.5 22.5 q38 0 62 -32 l322 -447 l0 420 q0 24 17 41.5 q17 17.5 41 17.5 q25 0 42 -17.5 q17 -17.5 17 -41.5 l0 -548 q0 -29 -21 -50.5 q-21 -21.5 -51 -21.5 q-37 0 -58 30 ZM315 -255 q0 9 13 22 q33 33 39 65 q-6 -2 -14 -2 q-20 0 -34 14.5 q-14 14.5 -14 36.5 q0 23 16 39.5 q16 16.5 39 16.5 q27 0 45 -20.5 q18 -20.5 18 -54.5 q0 -76 -67 -135 q-8 -6 -16 -6 q-10 0 -17.5 7 q-7.5 7 -7.5 17 Z" /><glyph glyph-name="uni0146" unicode="&#x146;" d="M499 340 l0 -293 q0 -22 -15.5 -37.5 q-15.5 -15.5 -37.5 -15.5 q-21 0 -36.5 15.5 q-15.5 15.5 -15.5 37.5 l0 255 q0 53 -24 76.5 q-24 23.5 -73 23.5 q-75 0 -124 -65 l0 -290 q0 -22 -15.5 -37.5 q-15.5 -15.5 -36.5 -15.5 q-22 0 -37.5 15.5 q-15.5 15.5 -15.5 37.5 l0 389 q0 22 15.5 37.5 q15.5 15.5 36.5 15.5 q22 0 37.5 -15.5 q15.5 -15.5 15.5 -37.5 l0 -19 q29 34 74 56 q45 22 96 22 q77 0 116.5 -40 q39.5 -40 39.5 -115 ZM239 -255 q0 9 13 22 q33 33 39 65 q-6 -2 -14 -2 q-20 0 -34 14.5 q-14 14.5 -14 36.5 q0 23 16 39.5 q16 16.5 39 16.5 q27 0 45 -20.5 q18 -20.5 18 -54.5 q0 -76 -67 -135 q-8 -6 -16 -6 q-10 0 -17.5 7 q-7.5 7 -7.5 17 Z" /><glyph glyph-name="Ncaron" unicode="&#x147;" d="M519 24 l-331 462 l0 -433 q0 -24 -17 -41.5 q-17 -17.5 -41 -17.5 q-25 0 -42 17.5 q-17 17.5 -17 41.5 l0 543 q0 32 22.5 54.5 q22.5 22.5 54.5 22.5 q38 0 62 -32 l322 -447 l0 420 q0 24 17 41.5 q17 17.5 41 17.5 q25 0 42 -17.5 q17 -17.5 17 -41.5 l0 -548 q0 -29 -21 -50.5 q-21 -21.5 -51 -21.5 q-37 0 -58 30 ZM480 844 q0 -10 -4 -14 l-57 -88 q-15 -25 -47 -25 l-28 0 q-32 0 -47 25 l-57 88 q-4 4 -4 14 q0 13 8.5 21 q8.5 8 20.5 8 q14 0 21 -10 l72 -92 l72 92 q7 10 21 10 q12 0 20.5 -8 q8.5 -8 8.5 -21 Z" /><glyph glyph-name="ncaron" unicode="&#x148;" d="M499 340 l0 -293 q0 -22 -15.5 -37.5 q-15.5 -15.5 -37.5 -15.5 q-21 0 -36.5 15.5 q-15.5 15.5 -15.5 37.5 l0 255 q0 53 -24 76.5 q-24 23.5 -73 23.5 q-75 0 -124 -65 l0 -290 q0 -22 -15.5 -37.5 q-15.5 -15.5 -36.5 -15.5 q-22 0 -37.5 15.5 q-15.5 15.5 -15.5 37.5 l0 389 q0 22 15.5 37.5 q15.5 15.5 36.5 15.5 q22 0 37.5 -15.5 q15.5 -15.5 15.5 -37.5 l0 -19 q29 34 74 56 q45 22 96 22 q77 0 116.5 -40 q39.5 -40 39.5 -115 ZM404 697 q0 -10 -4 -14 l-57 -88 q-15 -25 -47 -25 l-28 0 q-32 0 -47 25 l-57 88 q-4 4 -4 14 q0 13 8.5 21 q8.5 8 20.5 8 q14 0 21 -10 l72 -92 l72 92 q7 10 21 10 q12 0 20.5 -8 q8.5 -8 8.5 -21 Z" /><glyph glyph-name="napostrophe" unicode="&#x149;" d="M499 340 l0 -293 q0 -22 -15.5 -37.5 q-15.5 -15.5 -37.5 -15.5 q-21 0 -36.5 15.5 q-15.5 15.5 -15.5 37.5 l0 255 q0 53 -24 76.5 q-24 23.5 -73 23.5 q-75 0 -124 -65 l0 -290 q0 -22 -15.5 -37.5 q-15.5 -15.5 -36.5 -15.5 q-22 0 -37.5 15.5 q-15.5 15.5 -15.5 37.5 l0 389 q0 22 15.5 37.5 q15.5 15.5 36.5 15.5 q22 0 37.5 -15.5 q15.5 -15.5 15.5 -37.5 l0 -19 q29 34 74 56 q45 22 96 22 q77 0 116.5 -40 q39.5 -40 39.5 -115 ZM61 563 q0 9 13 22 q33 33 39 65 q-6 -2 -14 -2 q-20 0 -34 14.5 q-14 14.5 -14 36.5 q0 23 16 39.5 q16 16.5 39 16.5 q27 0 45 -20.5 q18 -20.5 18 -54.5 q0 -76 -67 -135 q-7 -6 -16 -6 q-10 0 -17.5 7 q-7.5 7 -7.5 17 Z" /><glyph glyph-name="Eng" unicode="&#x14a;" d="M649 614 l0 -588 q0 -108 -60.5 -165 q-60.5 -57 -164.5 -57 q-83 0 -145 41 q-23 17 -23 43 q0 22 15.5 37 q15.5 15 36.5 15 q15 0 29 -8 q35 -24 78 -24 q50 0 79 28.5 q29 28.5 32 79.5 l-338 470 l0 -433 q0 -24 -17 -41.5 q-17 -17.5 -41 -17.5 q-25 0 -42 17.5 q-17 17.5 -17 41.5 l0 543 q0 32 22.5 54.5 q22.5 22.5 54.5 22.5 q38 0 62 -32 l322 -447 l0 420 q0 24 17 41.5 q17 17.5 41 17.5 q25 0 42 -17.5 q17 -17.5 17 -41.5 Z" /><glyph glyph-name="eng" unicode="&#x14b;" d="M499 340 l0 -368 q0 -80 -41.5 -124 q-41.5 -44 -118.5 -44 l-12 0 q-17 0 -30 13 q-13 13 -13 31 q0 18 11.5 31.5 q11.5 13.5 27.5 13.5 l3 0 q68 0 68 79 l0 330 q0 53 -24 76.5 q-24 23.5 -73 23.5 q-75 0 -124 -65 l0 -290 q0 -22 -15.5 -37.5 q-15.5 -15.5 -36.5 -15.5 q-22 0 -37.5 15.5 q-15.5 15.5 -15.5 37.5 l0 389 q0 22 15.5 37.5 q15.5 15.5 36.5 15.5 q22 0 37.5 -15.5 q15.5 -15.5 15.5 -37.5 l0 -19 q29 34 74 56 q45 22 96 22 q77 0 116.5 -40 q39.5 -40 39.5 -115 Z" /><glyph glyph-name="Omacron" unicode="&#x14c;" d="M382 678 q147 2 245 -98 q98 -100 96 -247 q2 -147 -96 -247.5 q-98 -100.5 -245 -97.5 q-147 -3 -245 97.5 q-98 100.5 -96 247.5 q-2 147 96 247 q98 100 245 98 ZM541.5 506 q-61.5 68 -159.5 68 q-98 0 -159.5 -68 q-61.5 -68 -61.5 -173 q0 -104 61.5 -172.5 q61.5 -68.5 159.5 -68.5 q98 0 159.5 68.5 q61.5 68.5 61.5 172.5 q0 105 -61.5 173 ZM222 742 q-9 9 -9 22 q0 13 9 22 q9 9 22 9 l273 0 q13 0 22 -9 q9 -9 9 -22 q0 -13 -9 -22 q-9 -9 -22 -9 l-273 0 q-13 0 -22 9 Z" /><glyph glyph-name="omacron" unicode="&#x14d;" d="M38 242 q0 107 69 180 q69 73 179 73 q111 0 180 -73 q69 -73 69 -180 q0 -108 -69 -181 q-69 -73 -180 -73 q-110 0 -179 73 q-69 73 -69 181 ZM426 242 q0 66 -38 113 q-38 47 -102 47 q-64 0 -102 -47 q-37 -46 -37 -113 q0 -69 37 -115 q37 -46 102 -46 q65 0 102 46 q38 47 38 115 ZM127 595 q-9 9 -9 22 q0 13 9 22 q9 9 22 9 l273 0 q13 0 22 -9 q9 -9 9 -22 q0 -13 -9 -22 q-9 -9 -22 -9 l-273 0 q-13 0 -22 9 Z" /><glyph glyph-name="Obreve" unicode="&#x14e;" d="M382 678 q147 2 245 -98 q98 -100 96 -247 q2 -147 -96 -247.5 q-98 -100.5 -245 -97.5 q-147 -3 -245 97.5 q-98 100.5 -96 247.5 q-2 147 96 247 q98 100 245 98 ZM541.5 506 q-61.5 68 -159.5 68 q-98 0 -159.5 -68 q-61.5 -68 -61.5 -173 q0 -104 61.5 -172.5 q61.5 -68.5 159.5 -68.5 q98 0 159.5 68.5 q61.5 68.5 61.5 172.5 q0 105 -61.5 173 ZM223 788 q-9 9 -9 22 q0 13 9 22 q9 9 22 9 q15 0 23 -9 q46 -49 113 -49 q65 0 112 48 q7 10 23 10 q13 0 22 -9 q9 -9 9 -22 q0 -11 -9 -22 q-64 -67 -157 -67 q-91 0 -158 67 Z" /><glyph glyph-name="obreve" unicode="&#x14f;" d="M38 242 q0 107 69 180 q69 73 179 73 q111 0 180 -73 q69 -73 69 -180 q0 -108 -69 -181 q-69 -73 -180 -73 q-110 0 -179 73 q-69 73 -69 181 ZM426 242 q0 66 -38 113 q-38 47 -102 47 q-64 0 -102 -47 q-37 -46 -37 -113 q0 -69 37 -115 q37 -46 102 -46 q65 0 102 46 q38 47 38 115 ZM128 641 q-9 9 -9 22 q0 13 9 22 q9 9 22 9 q16 0 23 -9 q46 -49 113 -49 q66 0 112 48 q7 10 23 10 q13 0 22 -9 q9 -9 9 -22 q0 -11 -9 -22 q-64 -67 -157 -67 q-91 0 -158 67 Z" /><glyph glyph-name="Ohungarumlaut" unicode="&#x150;" d="M382 678 q147 2 245 -98 q98 -100 96 -247 q2 -147 -96 -247.5 q-98 -100.5 -245 -97.5 q-147 -3 -245 97.5 q-98 100.5 -96 247.5 q-2 147 96 247 q98 100 245 98 ZM541.5 506 q-61.5 68 -159.5 68 q-98 0 -159.5 -68 q-61.5 -68 -61.5 -173 q0 -104 61.5 -172.5 q61.5 -68.5 159.5 -68.5 q98 0 159.5 68.5 q61.5 68.5 61.5 172.5 q0 105 -61.5 173 ZM290 743 q0 10 4 14 l64 101 q9 16 28 16 q13 0 23 -10.5 q10 -10.5 10 -24.5 q0 -13 -7 -20 l-74 -93 q-7 -10 -20 -10 q-11 0 -19.5 8 q-8.5 8 -8.5 19 ZM436 743 q0 10 4 14 l64 101 q9 16 28 16 q13 0 23 -10.5 q10 -10.5 10 -24.5 q0 -13 -7 -20 l-74 -93 q-7 -10 -20 -10 q-11 0 -19.5 8 q-8.5 8 -8.5 19 Z" /><glyph glyph-name="ohungarumlaut" unicode="&#x151;" d="M38 242 q0 107 69 180 q69 73 179 73 q111 0 180 -73 q69 -73 69 -180 q0 -108 -69 -181 q-69 -73 -180 -73 q-110 0 -179 73 q-69 73 -69 181 ZM426 242 q0 66 -38 113 q-38 47 -102 47 q-64 0 -102 -47 q-37 -46 -37 -113 q0 -69 37 -115 q37 -46 102 -46 q65 0 102 46 q38 47 38 115 ZM195 596 q0 10 4 14 l64 101 q9 16 28 16 q13 0 23 -10.5 q10 -10.5 10 -24.5 q0 -13 -7 -20 l-74 -93 q-7 -10 -20 -10 q-11 0 -19.5 8 q-8.5 8 -8.5 19 ZM341 596 q0 10 4 14 l64 101 q9 16 28 16 q13 0 23 -10.5 q10 -10.5 10 -24.5 q0 -13 -7 -20 l-74 -93 q-7 -10 -20 -10 q-11 0 -19.5 8 q-8.5 8 -8.5 19 Z" /><glyph glyph-name="OE" unicode="&#x152;" d="M1051 52 q0 -22 -15.5 -37 q-15.5 -15 -36.5 -15 l-349 0 q-62 0 -62 62 l0 34 q-33 -51 -92.5 -79.5 q-59.5 -28.5 -124.5 -28.5 q-144 0 -237 97.5 q-93 97.5 -93 247.5 q-2 148 92.5 247 q94.5 99 237.5 97 q65 0 124.5 -28.5 q59.5 -28.5 92.5 -78.5 l0 35 q0 62 62 62 l349 0 q21 0 36.5 -15 q15.5 -15 15.5 -37 q0 -21 -15.5 -36 q-15.5 -15 -36.5 -15 l-294 0 l0 -173 l287 0 q21 0 36.5 -15 q15.5 -15 15.5 -36 q0 -22 -15.5 -37 q-15.5 -15 -36.5 -15 l-287 0 l0 -185 l294 0 q21 0 36.5 -15 q15.5 -15 15.5 -36 ZM588 227 l0 212 q-26 65 -79 99.5 q-53 34.5 -123 34.5 q-101 0 -163 -67.5 q-62 -67.5 -62 -172.5 q0 -106 62 -173.5 q62 -67.5 163 -67.5 q70 0 123 35 q53 35 79 100 Z" /><glyph glyph-name="oe" unicode="&#x153;" d="M689 74 q58 0 111 32 q9 6 22 6 q18 0 30.5 -12 q12.5 -12 12.5 -30 q0 -22 -20 -35 q-71 -47 -166 -47 q-129 0 -200 120 q-69 -120 -193 -120 q-110 0 -179 73 q-69 73 -69 181 q0 107 69 180 q69 73 179 73 q124 0 194 -121 q67 121 191 121 q107 0 172 -74 q65 -74 65 -189 q0 -25 -62 -25 l-310 0 q6 -59 47 -96 q41 -37 106 -37 ZM670 409 q-62 0 -97 -39 q-35 -40 -38 -89 l272 0 q-3 49 -38 89 q-35 39 -99 39 ZM147 242 q0 -71 38.5 -116.5 q38.5 -45.5 100.5 -45.5 q63 0 101.5 45.5 q38.5 45.5 38.5 116.5 q0 70 -38.5 115 q-38.5 45 -101.5 45 q-62 0 -100.5 -45 q-38.5 -45 -38.5 -115 Z" /><glyph glyph-name="Racute" unicode="&#x154;" d="M574 84 q11 -17 11 -37 q0 -20 -16.5 -36.5 q-16.5 -16.5 -38.5 -16.5 q-31 0 -49 25 l-157 230 l-136 0 l0 -196 q0 -24 -17 -41.5 q-17 -17.5 -41 -17.5 q-25 0 -42 17.5 q-17 17.5 -17 41.5 l0 552 q0 62 62 62 l231 0 q98 0 158 -58 q60 -58 60 -151 q0 -75 -38 -125.5 q-38 -50.5 -100 -66.5 l130 -182 ZM188 564 l0 -212 l160 0 q51 0 82.5 29 q31.5 29 31.5 77 q0 48 -31.5 77 q-31.5 29 -82.5 29 l-160 0 ZM339 724 q-7 -7 -18 -7 q-11 0 -19 8 q-8 8 -8 19 q0 8 8 19 l97 100 q10 10 24 10 q13 0 22.5 -9.5 q9.5 -9.5 9.5 -23.5 q0 -15 -11 -24 l-105 -92 Z" /><glyph glyph-name="racute" unicode="&#x155;" d="M337 442 q0 -19 -14 -32.5 q-14 -13.5 -40 -17.5 q-31 -4 -63 -22 q-32 -18 -47 -41 l0 -282 q0 -22 -15.5 -37.5 q-15.5 -15.5 -36.5 -15.5 q-22 0 -37.5 15.5 q-15.5 15.5 -15.5 37.5 l0 389 q0 22 15.5 37.5 q15.5 15.5 36.5 15.5 q22 0 37.5 -15.5 q15.5 -15.5 15.5 -37.5 l0 -24 q46 59 93 73 q18 6 28 6 q20 0 31.5 -13.5 q11.5 -13.5 11.5 -35.5 ZM220 577 q-7 -7 -18 -7 q-11 0 -19 8 q-8 8 -8 19 q0 8 8 19 l97 100 q10 10 24 10 q13 0 22.5 -9.5 q9.5 -9.5 9.5 -23.5 q0 -15 -11 -24 l-105 -92 Z" /><glyph glyph-name="uni0156" unicode="&#x156;" d="M574 84 q11 -17 11 -37 q0 -20 -16.5 -36.5 q-16.5 -16.5 -38.5 -16.5 q-31 0 -49 25 l-157 230 l-136 0 l0 -196 q0 -24 -17 -41.5 q-17 -17.5 -41 -17.5 q-25 0 -42 17.5 q-17 17.5 -17 41.5 l0 552 q0 62 62 62 l231 0 q98 0 158 -58 q60 -58 60 -151 q0 -75 -38 -125.5 q-38 -50.5 -100 -66.5 l130 -182 ZM188 564 l0 -212 l160 0 q51 0 82.5 29 q31.5 29 31.5 77 q0 48 -31.5 77 q-31.5 29 -82.5 29 l-160 0 ZM269 -255 q0 9 13 22 q33 33 39 65 q-6 -2 -14 -2 q-20 0 -34 14.5 q-14 14.5 -14 36.5 q0 23 16 39.5 q16 16.5 39 16.5 q27 0 45 -20.5 q18 -20.5 18 -54.5 q0 -76 -67 -135 q-8 -6 -16 -6 q-10 0 -17.5 7 q-7.5 7 -7.5 17 Z" /><glyph glyph-name="uni0157" unicode="&#x157;" d="M337 442 q0 -19 -14 -32.5 q-14 -13.5 -40 -17.5 q-31 -4 -63 -22 q-32 -18 -47 -41 l0 -282 q0 -22 -15.5 -37.5 q-15.5 -15.5 -36.5 -15.5 q-22 0 -37.5 15.5 q-15.5 15.5 -15.5 37.5 l0 389 q0 22 15.5 37.5 q15.5 15.5 36.5 15.5 q22 0 37.5 -15.5 q15.5 -15.5 15.5 -37.5 l0 -24 q46 59 93 73 q18 6 28 6 q20 0 31.5 -13.5 q11.5 -13.5 11.5 -35.5 ZM78 -255 q0 9 13 22 q33 33 39 65 q-6 -2 -14 -2 q-20 0 -34 14.5 q-14 14.5 -14 36.5 q0 23 16 39.5 q16 16.5 39 16.5 q27 0 45 -20.5 q18 -20.5 18 -54.5 q0 -76 -67 -135 q-8 -6 -16 -6 q-10 0 -17.5 7 q-7.5 7 -7.5 17 Z" /><glyph glyph-name="Rcaron" unicode="&#x158;" d="M574 84 q11 -17 11 -37 q0 -20 -16.5 -36.5 q-16.5 -16.5 -38.5 -16.5 q-31 0 -49 25 l-157 230 l-136 0 l0 -196 q0 -24 -17 -41.5 q-17 -17.5 -41 -17.5 q-25 0 -42 17.5 q-17 17.5 -17 41.5 l0 552 q0 62 62 62 l231 0 q98 0 158 -58 q60 -58 60 -151 q0 -75 -38 -125.5 q-38 -50.5 -100 -66.5 l130 -182 ZM188 564 l0 -212 l160 0 q51 0 82.5 29 q31.5 29 31.5 77 q0 48 -31.5 77 q-31.5 29 -82.5 29 l-160 0 ZM434 844 q0 -10 -4 -14 l-57 -88 q-15 -25 -47 -25 l-28 0 q-32 0 -47 25 l-57 88 q-4 4 -4 14 q0 13 8.5 21 q8.5 8 20.5 8 q14 0 21 -10 l72 -92 l72 92 q7 10 21 10 q12 0 20.5 -8 q8.5 -8 8.5 -21 Z" /><glyph glyph-name="rcaron" unicode="&#x159;" d="M337 442 q0 -19 -14 -32.5 q-14 -13.5 -40 -17.5 q-31 -4 -63 -22 q-32 -18 -47 -41 l0 -282 q0 -22 -15.5 -37.5 q-15.5 -15.5 -36.5 -15.5 q-22 0 -37.5 15.5 q-15.5 15.5 -15.5 37.5 l0 389 q0 22 15.5 37.5 q15.5 15.5 36.5 15.5 q22 0 37.5 -15.5 q15.5 -15.5 15.5 -37.5 l0 -24 q46 59 93 73 q18 6 28 6 q20 0 31.5 -13.5 q11.5 -13.5 11.5 -35.5 ZM315 697 q0 -10 -4 -14 l-57 -88 q-15 -25 -47 -25 l-28 0 q-32 0 -47 25 l-57 88 q-4 4 -4 14 q0 13 8.5 21 q8.5 8 20.5 8 q14 0 21 -10 l72 -92 l72 92 q7 10 21 10 q12 0 20.5 -8 q8.5 -8 8.5 -21 Z" /><glyph glyph-name="Sacute" unicode="&#x15a;" d="M42 105 q0 23 16 39.5 q16 16.5 39 16.5 q20 0 34 -11 q77 -58 173 -58 q64 0 99 26 q35 26 35 65 q-4 41 -35 58.5 q-31 17.5 -117 40.5 q-79 19 -122 37 q-115 46 -115 163 q0 84 70 139.5 q70 55.5 183 55.5 q106 0 206 -61 q25 -15 25 -45 q0 -22 -16 -38.5 q-16 -16.5 -39 -16.5 q-18 0 -31 10 q-71 47 -155 47 q-57 0 -90 -22.5 q-33 -22.5 -33 -60.5 q0 -24 19 -40 q29 -25 128 -49 q75 -19 123 -39 q118 -49 118 -168 q0 -91 -66.5 -148.5 q-66.5 -57.5 -191.5 -57.5 q-140 0 -235 73 q-22 16 -22 44 ZM317 724 q-7 -7 -18 -7 q-11 0 -19 8 q-8 8 -8 19 q0 8 8 19 l97 100 q10 10 24 10 q13 0 22.5 -9.5 q9.5 -9.5 9.5 -23.5 q0 -15 -11 -24 l-105 -92 Z" /><glyph glyph-name="sacute" unicode="&#x15b;" d="M35 76 q0 19 13 32 q13 13 32 13 q14 0 25 -7 q64 -43 133 -43 q45 0 70 15.5 q25 15.5 25 43.5 q0 28 -25.5 42.5 q-25.5 14.5 -84.5 27.5 q-59 12 -94 25 q-88 35 -88 123 q0 62 51.5 104.5 q51.5 42.5 138.5 42.5 q90 0 161 -47 q19 -13 19 -35 q0 -17 -12.5 -29.5 q-12.5 -12.5 -29.5 -12.5 q-13 0 -23 7 q-51 33 -114 33 q-42 0 -66 -14.5 q-24 -14.5 -24 -39.5 q0 -24 24 -37 q24 -13 81 -26 q58 -12 95 -27 q92 -34 92 -129 q0 -67 -53.5 -108.5 q-53.5 -41.5 -147.5 -41.5 q-103 0 -178 51 q-20 13 -20 37 ZM256 577 q-7 -7 -18 -7 q-11 0 -19 8 q-8 8 -8 19 q0 8 8 19 l97 100 q10 10 24 10 q13 0 22.5 -9.5 q9.5 -9.5 9.5 -23.5 q0 -15 -11 -24 l-105 -92 Z" /><glyph glyph-name="Scircumflex" unicode="&#x15c;" d="M42 105 q0 23 16 39.5 q16 16.5 39 16.5 q20 0 34 -11 q77 -58 173 -58 q64 0 99 26 q35 26 35 65 q-4 41 -35 58.5 q-31 17.5 -117 40.5 q-79 19 -122 37 q-115 46 -115 163 q0 84 70 139.5 q70 55.5 183 55.5 q106 0 206 -61 q25 -15 25 -45 q0 -22 -16 -38.5 q-16 -16.5 -39 -16.5 q-18 0 -31 10 q-71 47 -155 47 q-57 0 -90 -22.5 q-33 -22.5 -33 -60.5 q0 -24 19 -40 q29 -25 128 -49 q75 -19 123 -39 q118 -49 118 -168 q0 -91 -66.5 -148.5 q-66.5 -57.5 -191.5 -57.5 q-140 0 -235 73 q-22 16 -22 44 ZM365 727 l-72 92 l-72 -92 q-7 -10 -21 -10 q-12 0 -20.5 8 q-8.5 8 -8.5 21 q0 10 4 14 l57 88 q15 25 47 25 l28 0 q32 0 47 -25 l57 -88 q4 -4 4 -14 q0 -13 -8.5 -21 q-8.5 -8 -20.5 -8 q-14 0 -21 10 Z" /><glyph glyph-name="scircumflex" unicode="&#x15d;" d="M35 76 q0 19 13 32 q13 13 32 13 q14 0 25 -7 q64 -43 133 -43 q45 0 70 15.5 q25 15.5 25 43.5 q0 28 -25.5 42.5 q-25.5 14.5 -84.5 27.5 q-59 12 -94 25 q-88 35 -88 123 q0 62 51.5 104.5 q51.5 42.5 138.5 42.5 q90 0 161 -47 q19 -13 19 -35 q0 -17 -12.5 -29.5 q-12.5 -12.5 -29.5 -12.5 q-13 0 -23 7 q-51 33 -114 33 q-42 0 -66 -14.5 q-24 -14.5 -24 -39.5 q0 -24 24 -37 q24 -13 81 -26 q58 -12 95 -27 q92 -34 92 -129 q0 -67 -53.5 -108.5 q-53.5 -41.5 -147.5 -41.5 q-103 0 -178 51 q-20 13 -20 37 ZM304 580 l-72 92 l-72 -92 q-7 -10 -21 -10 q-12 0 -20.5 8 q-8.5 8 -8.5 21 q0 10 4 14 l57 88 q15 25 47 25 l28 0 q32 0 47 -25 l57 -88 q4 -4 4 -14 q0 -13 -8.5 -21 q-8.5 -8 -20.5 -8 q-14 0 -21 10 Z" /><glyph glyph-name="Scedilla" unicode="&#x15e;" d="M318 -12 l-17 -41 q17 11 36 11 q29 0 48 -19.5 q19 -19.5 19 -49.5 q0 -36 -31 -59.5 q-31 -23.5 -77 -23.5 q-52 0 -92 22 q-14 8 -14 22 q0 11 7.5 18.5 q7.5 7.5 17.5 7.5 q6 0 13 -4 q32 -18 65 -18 q24 0 40 9.5 q16 9.5 16 26.5 q0 30 -33 30 q-16 0 -27 -9 q-8 -5 -16 -5 q-12 0 -20 8 q-8 8 -8 20 q0 2 2 10 l17 45 q-117 9 -200 72 q-22 16 -22 44 q0 23 16 39.5 q16 16.5 39 16.5 q20 0 34 -11 q77 -58 173 -58 q64 0 99 26 q35 26 35 65 q-4 41 -35 58.5 q-31 17.5 -117 40.5 q-79 19 -122 37 q-115 46 -115 163 q0 84 70 139.5 q70 55.5 183 55.5 q106 0 206 -61 q25 -15 25 -45 q0 -22 -16 -38.5 q-16 -16.5 -39 -16.5 q-18 0 -31 10 q-71 47 -155 47 q-57 0 -90 -22.5 q-33 -22.5 -33 -60.5 q0 -24 19 -40 q29 -25 128 -49 q75 -19 123 -39 q118 -49 118 -168 q0 -89 -62 -145 q-62 -56 -177 -61 Z" /><glyph glyph-name="scedilla" unicode="&#x15f;" d="M257 -11 l-17 -42 q17 11 36 11 q29 0 48 -19.5 q19 -19.5 19 -49.5 q0 -36 -31 -59.5 q-31 -23.5 -77 -23.5 q-52 0 -92 22 q-14 8 -14 22 q0 11 7.5 18.5 q7.5 7.5 17.5 7.5 q6 0 13 -4 q31 -18 65 -18 q24 0 40 9.5 q16 9.5 16 26.5 q0 30 -33 30 q-17 0 -27 -9 q-8 -5 -16 -5 q-12 0 -20 8 q-8 8 -8 20 q0 2 2 10 l17 45 q-86 7 -148 50 q-20 13 -20 37 q0 19 13 32 q13 13 32 13 q14 0 25 -7 q64 -43 133 -43 q45 0 70 15.5 q25 15.5 25 43.5 q0 28 -25.5 42.5 q-25.5 14.5 -84.5 27.5 q-59 12 -94 25 q-88 35 -88 123 q0 62 51.5 104.5 q51.5 42.5 138.5 42.5 q90 0 161 -47 q19 -13 19 -35 q0 -17 -12.5 -29.5 q-12.5 -12.5 -29.5 -12.5 q-13 0 -23 7 q-51 33 -114 33 q-42 0 -66 -14.5 q-24 -14.5 -24 -39.5 q0 -24 24 -37 q24 -13 81 -26 q58 -12 95 -27 q92 -34 92 -129 q0 -63 -47 -103.5 q-47 -40.5 -130 -45.5 Z" /><glyph glyph-name="Scaron" unicode="&#x160;" d="M42 105 q0 23 16 39.5 q16 16.5 39 16.5 q20 0 34 -11 q77 -58 173 -58 q64 0 99 26 q35 26 35 65 q-4 41 -35 58.5 q-31 17.5 -117 40.5 q-79 19 -122 37 q-115 46 -115 163 q0 84 70 139.5 q70 55.5 183 55.5 q106 0 206 -61 q25 -15 25 -45 q0 -22 -16 -38.5 q-16 -16.5 -39 -16.5 q-18 0 -31 10 q-71 47 -155 47 q-57 0 -90 -22.5 q-33 -22.5 -33 -60.5 q0 -24 19 -40 q29 -25 128 -49 q75 -19 123 -39 q118 -49 118 -168 q0 -91 -66.5 -148.5 q-66.5 -57.5 -191.5 -57.5 q-140 0 -235 73 q-22 16 -22 44 ZM412 844 q0 -10 -4 -14 l-57 -88 q-15 -25 -47 -25 l-28 0 q-32 0 -47 25 l-57 88 q-4 4 -4 14 q0 13 8.5 21 q8.5 8 20.5 8 q14 0 21 -10 l72 -92 l72 92 q7 10 21 10 q12 0 20.5 -8 q8.5 -8 8.5 -21 Z" /><glyph glyph-name="scaron" unicode="&#x161;" d="M35 76 q0 19 13 32 q13 13 32 13 q14 0 25 -7 q64 -43 133 -43 q45 0 70 15.5 q25 15.5 25 43.5 q0 28 -25.5 42.5 q-25.5 14.5 -84.5 27.5 q-59 12 -94 25 q-88 35 -88 123 q0 62 51.5 104.5 q51.5 42.5 138.5 42.5 q90 0 161 -47 q19 -13 19 -35 q0 -17 -12.5 -29.5 q-12.5 -12.5 -29.5 -12.5 q-13 0 -23 7 q-51 33 -114 33 q-42 0 -66 -14.5 q-24 -14.5 -24 -39.5 q0 -24 24 -37 q24 -13 81 -26 q58 -12 95 -27 q92 -34 92 -129 q0 -67 -53.5 -108.5 q-53.5 -41.5 -147.5 -41.5 q-103 0 -178 51 q-20 13 -20 37 ZM351 697 q0 -10 -4 -14 l-57 -88 q-15 -25 -47 -25 l-28 0 q-32 0 -47 25 l-57 88 q-4 4 -4 14 q0 13 8.5 21 q8.5 8 20.5 8 q14 0 21 -10 l72 -92 l72 92 q7 10 21 10 q12 0 20.5 -8 q8.5 -8 8.5 -21 Z" /><glyph glyph-name="uni0162" unicode="&#x162;" d="M230 53 l0 511 l-156 0 q-21 0 -36.5 15 q-15.5 15 -15.5 36 q0 22 15.5 37 q15.5 15 36.5 15 l429 0 q21 0 36.5 -15 q15.5 -15 15.5 -37 q0 -21 -15.5 -36 q-15.5 -15 -36.5 -15 l-156 0 l0 -511 q0 -24 -17 -41.5 q-17 -17.5 -41 -17.5 q-25 0 -42 17.5 q-17 17.5 -17 41.5 ZM244 -255 q0 9 13 22 q33 33 39 65 q-6 -2 -14 -2 q-20 0 -34 14.5 q-14 14.5 -14 36.5 q0 23 16 39.5 q16 16.5 39 16.5 q27 0 45 -20.5 q18 -20.5 18 -54.5 q0 -76 -67 -135 q-7 -6 -16 -6 q-10 0 -17.5 7 q-7.5 7 -7.5 17 Z" /><glyph glyph-name="uni0163" unicode="&#x163;" d="M310 40 q0 -28 -28 -40 q-28 -12 -69 -12 q-61 0 -92.5 32 q-31.5 32 -31.5 92 l0 279 l-40 0 q-19 0 -32.5 13.5 q-13.5 13.5 -13.5 32.5 q0 19 13.5 32.5 q13.5 13.5 32.5 13.5 l40 0 l0 85 q0 22 15.5 37.5 q15.5 15.5 37.5 15.5 q21 0 36.5 -15.5 q15.5 -15.5 15.5 -37.5 l0 -85 l58 0 q19 0 32.5 -13.5 q13.5 -13.5 13.5 -32.5 q0 -19 -13.5 -32.5 q-13.5 -13.5 -32.5 -13.5 l-58 0 l0 -253 q0 -26 12 -41.5 q12 -15.5 34 -15.5 q5 0 14 1.5 q9 1.5 12 1.5 q20 0 32 -12.5 q12 -12.5 12 -31.5 ZM116 -255 q0 9 13 22 q33 33 39 65 q-6 -2 -14 -2 q-20 0 -34 14.5 q-14 14.5 -14 36.5 q0 23 16 39.5 q16 16.5 39 16.5 q27 0 45 -20.5 q18 -20.5 18 -54.5 q0 -76 -67 -135 q-7 -6 -16 -6 q-10 0 -17.5 7 q-7.5 7 -7.5 17 Z" /><glyph glyph-name="Tcaron" unicode="&#x164;" d="M230 53 l0 511 l-156 0 q-21 0 -36.5 15 q-15.5 15 -15.5 36 q0 22 15.5 37 q15.5 15 36.5 15 l429 0 q21 0 36.5 -15 q15.5 -15 15.5 -37 q0 -21 -15.5 -36 q-15.5 -15 -36.5 -15 l-156 0 l0 -511 q0 -24 -17 -41.5 q-17 -17.5 -41 -17.5 q-25 0 -42 17.5 q-17 17.5 -17 41.5 ZM409 844 q0 -10 -4 -14 l-57 -88 q-15 -25 -47 -25 l-28 0 q-32 0 -47 25 l-57 88 q-4 4 -4 14 q0 13 8.5 21 q8.5 8 20.5 8 q14 0 21 -10 l72 -92 l72 92 q7 10 21 10 q12 0 20.5 -8 q8.5 -8 8.5 -21 Z" /><glyph glyph-name="tcaron" unicode="&#x165;" d="M310 40 q0 -28 -28 -40 q-28 -12 -69 -12 q-61 0 -92.5 32 q-31.5 32 -31.5 92 l0 279 l-40 0 q-19 0 -32.5 13.5 q-13.5 13.5 -13.5 32.5 q0 19 13.5 32.5 q13.5 13.5 32.5 13.5 l40 0 l0 85 q0 22 15.5 37.5 q15.5 15.5 37.5 15.5 q21 0 36.5 -15.5 q15.5 -15.5 15.5 -37.5 l0 -85 l58 0 q19 0 32.5 -13.5 q13.5 -13.5 13.5 -32.5 q0 -19 -13.5 -32.5 q-13.5 -13.5 -32.5 -13.5 l-58 0 l0 -253 q0 -26 12 -41.5 q12 -15.5 34 -15.5 q5 0 14 1.5 q9 1.5 12 1.5 q20 0 32 -12.5 q12 -12.5 12 -31.5 ZM261 563 q0 9 13 22 q33 33 39 65 q-6 -2 -14 -2 q-20 0 -34 14.5 q-14 14.5 -14 36.5 q0 23 16 39.5 q16 16.5 39 16.5 q27 0 45 -20.5 q18 -20.5 18 -54.5 q0 -76 -67 -135 q-8 -6 -16 -6 q-10 0 -17.5 7 q-7.5 7 -7.5 17 Z" /><glyph glyph-name="Tbar" unicode="&#x166;" d="M555 615 q0 -21 -15.5 -36 q-15.5 -15 -36.5 -15 l-156 0 l0 -226 l116 0 q13 0 22 -9 q9 -9 9 -22 q0 -13 -9 -22 q-9 -9 -22 -9 l-116 0 l0 -223 q0 -24 -17 -41.5 q-17 -17.5 -41 -17.5 q-25 0 -42 17.5 q-17 17.5 -17 41.5 l0 223 l-116 0 q-13 0 -22 9 q-9 9 -9 22 q0 13 9 22 q9 9 22 9 l116 0 l0 226 l-156 0 q-21 0 -36.5 15 q-15.5 15 -15.5 36 q0 22 15.5 37 q15.5 15 36.5 15 l429 0 q21 0 36.5 -15 q15.5 -15 15.5 -37 Z" /><glyph glyph-name="tbar" unicode="&#x167;" d="M310 40 q0 -28 -28 -40 q-28 -12 -69 -12 q-61 0 -92.5 32 q-31.5 32 -31.5 92 l0 104 l-55 0 q-13 0 -22 9 q-9 9 -9 22 q0 13 9 22 q9 9 22 9 l55 0 l0 113 l-40 0 q-19 0 -32.5 13.5 q-13.5 13.5 -13.5 32.5 q0 19 13.5 32.5 q13.5 13.5 32.5 13.5 l40 0 l0 85 q0 22 15.5 37.5 q15.5 15.5 37.5 15.5 q21 0 36.5 -15.5 q15.5 -15.5 15.5 -37.5 l0 -85 l58 0 q19 0 32.5 -13.5 q13.5 -13.5 13.5 -32.5 q0 -19 -13.5 -32.5 q-13.5 -13.5 -32.5 -13.5 l-58 0 l0 -113 l44 0 q13 0 22 -9 q9 -9 9 -22 q0 -13 -9 -22 q-9 -9 -22 -9 l-44 0 l0 -78 q0 -26 12 -41.5 q12 -15.5 34 -15.5 q5 0 14 1.5 q9 1.5 12 1.5 q20 0 32 -12.5 q12 -12.5 12 -31.5 Z" /><glyph glyph-name="Utilde" unicode="&#x168;" d="M71 263 l0 351 q0 24 17 41.5 q17 17.5 42 17.5 q25 0 42 -17.5 q17 -17.5 17 -41.5 l0 -347 q0 -82 45 -128.5 q45 -46.5 126 -46.5 q81 0 125.5 46.5 q44.5 46.5 44.5 128.5 l0 347 q0 24 17 41.5 q17 17.5 42 17.5 q25 0 42 -17.5 q17 -17.5 17 -41.5 l0 -350 q0 -130 -74.5 -203 q-74.5 -73 -213.5 -73 q-140 0 -214.5 73 q-74.5 73 -74.5 202 ZM342 767 q-24 32 -43 32 q-34 0 -41 -53 q-5 -25 -28 -25 q-13 0 -21.5 10 q-8.5 10 -6.5 22 q6 52 32 80 q26 28 69 28 q24 0 39.5 -10.5 q15.5 -10.5 35.5 -35.5 q26 -32 44 -32 q33 0 40 53 q2 25 28 25 q13 0 21.5 -9.5 q8.5 -9.5 7.5 -22.5 q-6 -52 -32 -80 q-26 -28 -69 -28 q-24 0 -40.5 11 q-16.5 11 -35.5 35 Z" /><glyph glyph-name="utilde" unicode="&#x169;" d="M499 436 l0 -389 q0 -22 -15.5 -37.5 q-15.5 -15.5 -36.5 -15.5 q-22 0 -37.5 15.5 q-15.5 15.5 -15.5 37.5 l0 16 q-70 -75 -171 -75 q-155 0 -155 153 l0 295 q0 22 15.5 37.5 q15.5 15.5 37.5 15.5 q21 0 36.5 -15.5 q15.5 -15.5 15.5 -37.5 l0 -257 q0 -52 24 -75 q24 -23 73 -23 q77 0 124 63 l0 292 q0 22 15.5 37.5 q15.5 15.5 36.5 15.5 q22 0 37.5 -15.5 q15.5 -15.5 15.5 -37.5 ZM265 620 q-24 32 -43 32 q-34 0 -41 -53 q-5 -25 -28 -25 q-13 0 -21.5 10 q-8.5 10 -6.5 22 q6 52 32 80 q26 28 69 28 q24 0 39.5 -10.5 q15.5 -10.5 35.5 -35.5 q26 -32 44 -32 q33 0 40 53 q2 25 28 25 q13 0 21.5 -9.5 q8.5 -9.5 7.5 -22.5 q-6 -52 -32 -80 q-26 -28 -69 -28 q-24 0 -40.5 11 q-16.5 11 -35.5 35 Z" /><glyph glyph-name="Umacron" unicode="&#x16a;" d="M71 263 l0 351 q0 24 17 41.5 q17 17.5 42 17.5 q25 0 42 -17.5 q17 -17.5 17 -41.5 l0 -347 q0 -82 45 -128.5 q45 -46.5 126 -46.5 q81 0 125.5 46.5 q44.5 46.5 44.5 128.5 l0 347 q0 24 17 41.5 q17 17.5 42 17.5 q25 0 42 -17.5 q17 -17.5 17 -41.5 l0 -350 q0 -130 -74.5 -203 q-74.5 -73 -213.5 -73 q-140 0 -214.5 73 q-74.5 73 -74.5 202 ZM201 742 q-9 9 -9 22 q0 13 9 22 q9 9 22 9 l273 0 q13 0 22 -9 q9 -9 9 -22 q0 -13 -9 -22 q-9 -9 -22 -9 l-273 0 q-13 0 -22 9 Z" /><glyph glyph-name="umacron" unicode="&#x16b;" d="M499 436 l0 -389 q0 -22 -15.5 -37.5 q-15.5 -15.5 -36.5 -15.5 q-22 0 -37.5 15.5 q-15.5 15.5 -15.5 37.5 l0 16 q-70 -75 -171 -75 q-155 0 -155 153 l0 295 q0 22 15.5 37.5 q15.5 15.5 37.5 15.5 q21 0 36.5 -15.5 q15.5 -15.5 15.5 -37.5 l0 -257 q0 -52 24 -75 q24 -23 73 -23 q77 0 124 63 l0 292 q0 22 15.5 37.5 q15.5 15.5 36.5 15.5 q22 0 37.5 -15.5 q15.5 -15.5 15.5 -37.5 ZM124 595 q-9 9 -9 22 q0 13 9 22 q9 9 22 9 l273 0 q13 0 22 -9 q9 -9 9 -22 q0 -13 -9 -22 q-9 -9 -22 -9 l-273 0 q-13 0 -22 9 Z" /><glyph glyph-name="Ubreve" unicode="&#x16c;" d="M71 263 l0 351 q0 24 17 41.5 q17 17.5 42 17.5 q25 0 42 -17.5 q17 -17.5 17 -41.5 l0 -347 q0 -82 45 -128.5 q45 -46.5 126 -46.5 q81 0 125.5 46.5 q44.5 46.5 44.5 128.5 l0 347 q0 24 17 41.5 q17 17.5 42 17.5 q25 0 42 -17.5 q17 -17.5 17 -41.5 l0 -350 q0 -130 -74.5 -203 q-74.5 -73 -213.5 -73 q-140 0 -214.5 73 q-74.5 73 -74.5 202 ZM202 788 q-9 9 -9 22 q0 13 9 22 q9 9 22 9 q16 0 23 -9 q46 -49 113 -49 q66 0 112 48 q7 10 23 10 q13 0 22 -9 q9 -9 9 -22 q0 -11 -9 -22 q-64 -67 -157 -67 q-91 0 -158 67 Z" /><glyph glyph-name="ubreve" unicode="&#x16d;" d="M499 436 l0 -389 q0 -22 -15.5 -37.5 q-15.5 -15.5 -36.5 -15.5 q-22 0 -37.5 15.5 q-15.5 15.5 -15.5 37.5 l0 16 q-70 -75 -171 -75 q-155 0 -155 153 l0 295 q0 22 15.5 37.5 q15.5 15.5 37.5 15.5 q21 0 36.5 -15.5 q15.5 -15.5 15.5 -37.5 l0 -257 q0 -52 24 -75 q24 -23 73 -23 q77 0 124 63 l0 292 q0 22 15.5 37.5 q15.5 15.5 36.5 15.5 q22 0 37.5 -15.5 q15.5 -15.5 15.5 -37.5 ZM125 641 q-9 9 -9 22 q0 13 9 22 q9 9 22 9 q15 0 23 -9 q46 -49 113 -49 q65 0 112 48 q7 10 23 10 q13 0 22 -9 q9 -9 9 -22 q0 -11 -9 -22 q-64 -67 -157 -67 q-91 0 -158 67 Z" /><glyph glyph-name="Uring" unicode="&#x16e;" d="M71 263 l0 351 q0 24 17 41.5 q17 17.5 42 17.5 q25 0 42 -17.5 q17 -17.5 17 -41.5 l0 -347 q0 -82 45 -128.5 q45 -46.5 126 -46.5 q81 0 125.5 46.5 q44.5 46.5 44.5 128.5 l0 347 q0 24 17 41.5 q17 17.5 42 17.5 q25 0 42 -17.5 q17 -17.5 17 -41.5 l0 -350 q0 -130 -74.5 -203 q-74.5 -73 -213.5 -73 q-140 0 -214.5 73 q-74.5 73 -74.5 202 ZM289 877.5 q30 30.5 72 30.5 q42 0 71.5 -30.5 q29.5 -30.5 29.5 -72.5 q0 -42 -29.5 -72 q-29.5 -30 -71.5 -30 q-42 0 -72 30 q-30 30 -30 72 q0 42 30 72.5 ZM361 857 q-21 0 -36.5 -15 q-15.5 -15 -15.5 -37 q0 -21 15.5 -36.5 q15.5 -15.5 36.5 -15.5 q21 0 36 15.5 q15 15.5 15 36.5 q0 22 -14.5 37 q-14.5 15 -36.5 15 Z" /><glyph glyph-name="uring" unicode="&#x16f;" d="M499 436 l0 -389 q0 -22 -15.5 -37.5 q-15.5 -15.5 -36.5 -15.5 q-22 0 -37.5 15.5 q-15.5 15.5 -15.5 37.5 l0 16 q-70 -75 -171 -75 q-155 0 -155 153 l0 295 q0 22 15.5 37.5 q15.5 15.5 37.5 15.5 q21 0 36.5 -15.5 q15.5 -15.5 15.5 -37.5 l0 -257 q0 -52 24 -75 q24 -23 73 -23 q77 0 124 63 l0 292 q0 22 15.5 37.5 q15.5 15.5 36.5 15.5 q22 0 37.5 -15.5 q15.5 -15.5 15.5 -37.5 ZM212 730.5 q30 30.5 72 30.5 q42 0 71.5 -30.5 q29.5 -30.5 29.5 -72.5 q0 -42 -29.5 -72 q-29.5 -30 -71.5 -30 q-42 0 -72 30 q-30 30 -30 72 q0 42 30 72.5 ZM284 710 q-21 0 -36.5 -15 q-15.5 -15 -15.5 -37 q0 -21 15.5 -36.5 q15.5 -15.5 36.5 -15.5 q21 0 36 15.5 q15 15.5 15 36.5 q0 22 -14.5 37 q-14.5 15 -36.5 15 Z" /><glyph glyph-name="Uhungarumlaut" unicode="&#x170;" d="M71 263 l0 351 q0 24 17 41.5 q17 17.5 42 17.5 q25 0 42 -17.5 q17 -17.5 17 -41.5 l0 -347 q0 -82 45 -128.5 q45 -46.5 126 -46.5 q81 0 125.5 46.5 q44.5 46.5 44.5 128.5 l0 347 q0 24 17 41.5 q17 17.5 42 17.5 q25 0 42 -17.5 q17 -17.5 17 -41.5 l0 -350 q0 -130 -74.5 -203 q-74.5 -73 -213.5 -73 q-140 0 -214.5 73 q-74.5 73 -74.5 202 ZM269 743 q0 10 4 14 l64 101 q9 16 28 16 q13 0 23 -10.5 q10 -10.5 10 -24.5 q0 -13 -7 -20 l-74 -93 q-7 -10 -20 -10 q-11 0 -19.5 8 q-8.5 8 -8.5 19 ZM415 743 q0 10 4 14 l64 101 q9 16 28 16 q13 0 23 -10.5 q10 -10.5 10 -24.5 q0 -13 -7 -20 l-74 -93 q-7 -10 -20 -10 q-11 0 -19.5 8 q-8.5 8 -8.5 19 Z" /><glyph glyph-name="uhungarumlaut" unicode="&#x171;" d="M499 436 l0 -389 q0 -22 -15.5 -37.5 q-15.5 -15.5 -36.5 -15.5 q-22 0 -37.5 15.5 q-15.5 15.5 -15.5 37.5 l0 16 q-70 -75 -171 -75 q-155 0 -155 153 l0 295 q0 22 15.5 37.5 q15.5 15.5 37.5 15.5 q21 0 36.5 -15.5 q15.5 -15.5 15.5 -37.5 l0 -257 q0 -52 24 -75 q24 -23 73 -23 q77 0 124 63 l0 292 q0 22 15.5 37.5 q15.5 15.5 36.5 15.5 q22 0 37.5 -15.5 q15.5 -15.5 15.5 -37.5 ZM192 596 q0 10 4 14 l64 101 q9 16 28 16 q13 0 23 -10.5 q10 -10.5 10 -24.5 q0 -13 -7 -20 l-74 -93 q-7 -10 -20 -10 q-11 0 -19.5 8 q-8.5 8 -8.5 19 ZM338 596 q0 10 4 14 l64 101 q9 16 28 16 q13 0 23 -10.5 q10 -10.5 10 -24.5 q0 -13 -7 -20 l-74 -93 q-7 -10 -20 -10 q-11 0 -19.5 8 q-8.5 8 -8.5 19 Z" /><glyph glyph-name="Uogonek" unicode="&#x172;" d="M71 263 l0 351 q0 24 17 41.5 q17 17.5 42 17.5 q25 0 42 -17.5 q17 -17.5 17 -41.5 l0 -347 q0 -82 45 -128.5 q45 -46.5 126 -46.5 q81 0 125.5 46.5 q44.5 46.5 44.5 128.5 l0 347 q0 24 17 41.5 q17 17.5 42 17.5 q25 0 42 -17.5 q17 -17.5 17 -41.5 l0 -350 q0 -100 -43.5 -166.5 q-43.5 -66.5 -126.5 -92.5 q-50 -16 -77.5 -39 q-27.5 -23 -27.5 -50 q0 -14 10 -22.5 q10 -8.5 25 -8.5 q8 0 10 1 q15 2 27.5 -8 q12.5 -10 12.5 -26 q0 -26 -26 -33 q-30 -5 -50 -5 q-46 0 -76 20.5 q-30 20.5 -30 56.5 q0 59 87 97 l-3 0 q-140 0 -214.5 73 q-74.5 73 -74.5 202 Z" /><glyph glyph-name="uogonek" unicode="&#x173;" d="M410 -84 q0 -14 10 -22.5 q10 -8.5 25 -8.5 q4 0 11 1 q7 1 10 1 q13 0 23 -9.5 q10 -9.5 10 -24.5 q0 -24 -23 -32 q-22 -7 -57 -7 q-46 0 -76 20.5 q-30 20.5 -30 56.5 q0 34 31.5 62.5 q31.5 28.5 79.5 45.5 q-30 16 -30 48 l0 16 q-70 -75 -171 -75 q-155 0 -155 153 l0 295 q0 22 15.5 37.5 q15.5 15.5 37.5 15.5 q21 0 36.5 -15.5 q15.5 -15.5 15.5 -37.5 l0 -257 q0 -52 24 -75 q24 -23 73 -23 q77 0 124 63 l0 292 q0 22 15.5 37.5 q15.5 15.5 36.5 15.5 q22 0 37.5 -15.5 q15.5 -15.5 15.5 -37.5 l0 -389 q0 -35 -31 -48 q-58 -49 -58 -83 Z" /><glyph glyph-name="Wcircumflex" unicode="&#x174;" d="M567 54 l-116 438 l-115 -438 q-7 -26 -28 -43 q-21 -17 -49 -17 q-27 0 -48.5 16.5 q-21.5 16.5 -28.5 41.5 l-155 541 q-2 14 -2 18 q0 26 18.5 44 q18.5 18 43.5 18 q21 0 38 -13 q17 -13 22 -34 l120 -473 l128 477 q5 19 20.5 31 q15.5 12 36.5 12 q20 0 35.5 -12 q15.5 -12 20.5 -31 l128 -477 l119 473 q5 21 22 34 q17 13 38 13 q26 0 44 -18 q18 -18 18 -44 q0 -4 -2 -18 l-154 -541 q-7 -25 -28.5 -41.5 q-21.5 -16.5 -48.5 -16.5 q-28 0 -49 17 q-21 17 -28 43 ZM524 727 l-72 92 l-72 -92 q-7 -10 -21 -10 q-12 0 -20.5 8 q-8.5 8 -8.5 21 q0 10 4 14 l57 88 q15 25 47 25 l28 0 q32 0 47 -25 l57 -88 q4 -4 4 -14 q0 -13 -8.5 -21 q-8.5 -8 -20.5 -8 q-14 0 -21 10 Z" /><glyph glyph-name="wcircumflex" unicode="&#x175;" d="M475 45 l-98 309 l-98 -309 q-7 -23 -26 -37 q-19 -14 -43 -14 q-24 0 -43 14 q-19 14 -26 37 l-117 377 q-2 10 -2 15 q0 22 15 37 q15 15 36 15 q18 0 31.5 -10.5 q13.5 -10.5 18.5 -26.5 l93 -320 l103 315 q6 19 22 30.5 q16 11.5 36 11.5 q20 0 36 -11.5 q16 -11.5 22 -30.5 l103 -315 l93 320 q5 16 18.5 26.5 q13.5 10.5 31.5 10.5 q21 0 36 -15 q15 -15 15 -37 q0 -5 -2 -15 l-117 -377 q-7 -23 -26 -37 q-19 -14 -43 -14 q-24 0 -43 14 q-19 14 -26 37 ZM450 560 l-72 92 l-72 -92 q-7 -10 -21 -10 q-12 0 -20.5 8 q-8.5 8 -8.5 21 q0 10 4 14 l57 88 q15 25 47 25 l28 0 q32 0 47 -25 l57 -88 q4 -4 4 -14 q0 -13 -8.5 -21 q-8.5 -8 -20.5 -8 q-14 0 -21 10 Z" /><glyph glyph-name="Ycircumflex" unicode="&#x176;" d="M582 587 l-205 -310 l0 -224 q0 -24 -17 -41.5 q-17 -17.5 -41 -17.5 q-25 0 -42 17.5 q-17 17.5 -17 41.5 l0 224 l-206 309 q-9 12 -9 31 q0 23 16.5 39.5 q16.5 16.5 39.5 16.5 q29 0 47 -26 l171 -266 l169 266 q18 26 47 26 q23 0 39.5 -16.5 q16.5 -16.5 16.5 -39.5 q0 -18 -9 -30 ZM392 727 l-72 92 l-72 -92 q-7 -10 -21 -10 q-12 0 -20.5 8 q-8.5 8 -8.5 21 q0 10 4 14 l57 88 q15 25 47 25 l28 0 q32 0 47 -25 l57 -88 q4 -4 4 -14 q0 -13 -8.5 -21 q-8.5 -8 -20.5 -8 q-14 0 -21 10 Z" /><glyph glyph-name="ycircumflex" unicode="&#x177;" d="M98 -103 l5 0 q51 0 69 42 l24 55 l-172 424 q-3 9 -3 19 q0 22 15 37 q15 15 36 15 q16 0 30 -9.5 q14 -9.5 19 -23.5 l130 -335 l130 335 q5 14 19 23.5 q14 9.5 30 9.5 q22 0 37 -15 q15 -15 15 -37 q0 -9 -4 -20 l-206 -504 q-23 -58 -63.5 -83 q-40.5 -25 -102.5 -26 q-11 0 -15 1 q-18 2 -30.5 15 q-12.5 13 -12.5 31 q0 19 15 32.5 q15 13.5 35 13.5 ZM324 580 l-72 92 l-72 -92 q-7 -10 -21 -10 q-12 0 -20.5 8 q-8.5 8 -8.5 21 q0 10 4 14 l57 88 q15 25 47 25 l28 0 q32 0 47 -25 l57 -88 q4 -4 4 -14 q0 -13 -8.5 -21 q-8.5 -8 -20.5 -8 q-14 0 -21 10 Z" /><glyph glyph-name="Ydieresis" unicode="&#x178;" d="M582 587 l-205 -310 l0 -224 q0 -24 -17 -41.5 q-17 -17.5 -41 -17.5 q-25 0 -42 17.5 q-17 17.5 -17 41.5 l0 224 l-206 309 q-9 12 -9 31 q0 23 16.5 39.5 q16.5 16.5 39.5 16.5 q29 0 47 -26 l171 -266 l169 266 q18 26 47 26 q23 0 39.5 -16.5 q16.5 -16.5 16.5 -39.5 q0 -18 -9 -30 ZM156 790 q0 24 17 41 q17 17 42 17 q24 0 41 -17 q17 -17 17 -41 q0 -25 -17 -42 q-17 -17 -41 -17 q-25 0 -42 17 q-17 17 -17 42 ZM365 790 q0 24 17.5 41 q17.5 17 41.5 17 q24 0 41.5 -17 q17.5 -17 17.5 -41 q0 -25 -17.5 -42 q-17.5 -17 -41.5 -17 q-24 0 -41.5 17 q-17.5 17 -17.5 42 Z" /><glyph glyph-name="Zacute" unicode="&#x179;" d="M38 66 q0 22 13 38 l334 460 l-295 0 q-21 0 -36.5 15 q-15.5 15 -15.5 36 q0 22 15.5 37 q15.5 15 36.5 15 l387 0 q27 0 46.5 -19 q19.5 -19 19.5 -47 q0 -22 -13 -38 l-334 -460 l302 0 q21 0 36.5 -15 q15.5 -15 15.5 -36 q0 -22 -15.5 -37 q-15.5 -15 -36.5 -15 l-394 0 q-27 0 -46.5 19 q-19.5 19 -19.5 47 ZM320 724 q-7 -7 -18 -7 q-11 0 -19 8 q-8 8 -8 19 q0 8 8 19 l97 100 q10 10 24 10 q13 0 22.5 -9.5 q9.5 -9.5 9.5 -23.5 q0 -15 -11 -24 l-105 -92 Z" /><glyph glyph-name="zacute" unicode="&#x17a;" d="M40 53 q0 19 11 33 l234 305 l-199 0 q-19 0 -32.5 13.5 q-13.5 13.5 -13.5 32.5 q0 19 13.5 32.5 q13.5 13.5 32.5 13.5 l293 0 q21 0 36.5 -15 q15.5 -15 15.5 -37 q0 -15 -11 -31 l-236 -309 l205 0 q19 0 32.5 -13 q13.5 -13 13.5 -32 q0 -19 -13.5 -32.5 q-13.5 -13.5 -32.5 -13.5 l-296 0 q-22 0 -37.5 15.5 q-15.5 15.5 -15.5 37.5 ZM263 577 q-7 -7 -18 -7 q-11 0 -19 8 q-8 8 -8 19 q0 8 8 19 l97 100 q10 10 24 10 q13 0 22.5 -9.5 q9.5 -9.5 9.5 -23.5 q0 -15 -11 -24 l-105 -92 Z" /><glyph glyph-name="Zdotaccent" unicode="&#x17b;" d="M38 66 q0 22 13 38 l334 460 l-295 0 q-21 0 -36.5 15 q-15.5 15 -15.5 36 q0 22 15.5 37 q15.5 15 36.5 15 l387 0 q27 0 46.5 -19 q19.5 -19 19.5 -47 q0 -22 -13 -38 l-334 -460 l302 0 q21 0 36.5 -15 q15.5 -15 15.5 -36 q0 -22 -15.5 -37 q-15.5 -15 -36.5 -15 l-394 0 q-27 0 -46.5 19 q-19.5 19 -19.5 47 ZM253.5 830.5 q17.5 17.5 41.5 17.5 q24 0 41 -17.5 q17 -17.5 17 -41.5 q0 -25 -17 -42 q-17 -17 -41 -17 q-24 0 -41.5 17 q-17.5 17 -17.5 42 q0 24 17.5 41.5 Z" /><glyph glyph-name="zdotaccent" unicode="&#x17c;" d="M40 53 q0 19 11 33 l234 305 l-199 0 q-19 0 -32.5 13.5 q-13.5 13.5 -13.5 32.5 q0 19 13.5 32.5 q13.5 13.5 32.5 13.5 l293 0 q21 0 36.5 -15 q15.5 -15 15.5 -37 q0 -15 -11 -31 l-236 -309 l205 0 q19 0 32.5 -13 q13.5 -13 13.5 -32 q0 -19 -13.5 -32.5 q-13.5 -13.5 -32.5 -13.5 l-296 0 q-22 0 -37.5 15.5 q-15.5 15.5 -15.5 37.5 ZM196.5 683.5 q17.5 17.5 41.5 17.5 q24 0 41 -17.5 q17 -17.5 17 -41.5 q0 -25 -17 -42 q-17 -17 -41 -17 q-24 0 -41.5 17 q-17.5 17 -17.5 42 q0 24 17.5 41.5 Z" /><glyph glyph-name="Zcaron" unicode="&#x17d;" d="M38 66 q0 22 13 38 l334 460 l-295 0 q-21 0 -36.5 15 q-15.5 15 -15.5 36 q0 22 15.5 37 q15.5 15 36.5 15 l387 0 q27 0 46.5 -19 q19.5 -19 19.5 -47 q0 -22 -13 -38 l-334 -460 l302 0 q21 0 36.5 -15 q15.5 -15 15.5 -36 q0 -22 -15.5 -37 q-15.5 -15 -36.5 -15 l-394 0 q-27 0 -46.5 19 q-19.5 19 -19.5 47 ZM415 844 q0 -10 -4 -14 l-57 -88 q-15 -25 -47 -25 l-28 0 q-32 0 -47 25 l-57 88 q-4 4 -4 14 q0 13 8.5 21 q8.5 8 20.5 8 q14 0 21 -10 l72 -92 l72 92 q7 10 21 10 q12 0 20.5 -8 q8.5 -8 8.5 -21 Z" /><glyph glyph-name="zcaron" unicode="&#x17e;" d="M40 53 q0 19 11 33 l234 305 l-199 0 q-19 0 -32.5 13.5 q-13.5 13.5 -13.5 32.5 q0 19 13.5 32.5 q13.5 13.5 32.5 13.5 l293 0 q21 0 36.5 -15 q15.5 -15 15.5 -37 q0 -15 -11 -31 l-236 -309 l205 0 q19 0 32.5 -13 q13.5 -13 13.5 -32 q0 -19 -13.5 -32.5 q-13.5 -13.5 -32.5 -13.5 l-296 0 q-22 0 -37.5 15.5 q-15.5 15.5 -15.5 37.5 ZM358 697 q0 -10 -4 -14 l-57 -88 q-15 -25 -47 -25 l-28 0 q-32 0 -47 25 l-57 88 q-4 4 -4 14 q0 13 8.5 21 q8.5 8 20.5 8 q14 0 21 -10 l72 -92 l72 92 q7 10 21 10 q12 0 20.5 -8 q8.5 -8 8.5 -21 Z" /><glyph glyph-name="longs" unicode="&#x17f;" d="M327 631 q0 -42 -41 -42 q-4 0 -11.5 1 q-7.5 1 -9.5 1 q-31 0 -49 -21 q-18 -21 -18 -60 l0 -463 q0 -22 -15.5 -37.5 q-15.5 -15.5 -36.5 -15.5 q-22 0 -37.5 15.5 q-15.5 15.5 -15.5 37.5 l0 344 l-40 0 q-19 0 -32.5 13.5 q-13.5 13.5 -13.5 32.5 q0 19 13.5 32.5 q13.5 13.5 32.5 13.5 l40 0 l0 27 q0 78 41.5 122.5 q41.5 44.5 111.5 44.5 q26 0 49 -6 q32 -8 32 -40 Z" /><glyph glyph-name="uni018F" unicode="&#x18f;" d="M704 333 q2 -150 -97 -249 q-99 -99 -238 -97 q-142 -2 -238 91 q-96 93 -94 236 q0 54 58 54 l487 0 q-11 91 -74.5 148.5 q-63.5 57.5 -153.5 57.5 q-87 0 -150 -63 q-16 -16 -39 -16 q-22 0 -38 16 q-16 16 -16 38 q0 23 16 39 q90 90 227 90 q146 2 249 -96.5 q103 -98.5 101 -248.5 ZM576 265 l-417 0 q13 -78 66.5 -126 q53.5 -48 133.5 -48 q81 0 139.5 47.5 q58.5 47.5 77.5 126.5 Z" /><glyph glyph-name="florin" unicode="&#x192;" d="M453 619 q0 -21 -15 -36 q-15 -15 -36 -15 q-3 0 -15 3 q-11 3 -21 3 q-31 0 -54.5 -21 q-23.5 -21 -31.5 -57 l-35 -158 l83 0 q19 0 33 -14 q14 -14 14 -33 q0 -19 -14 -32.5 q-14 -13.5 -33 -13.5 l-104 0 l-81 -366 q-5 -21 -20.5 -33.5 q-15.5 -12.5 -36.5 -12.5 q-24 0 -41 17 q-17 17 -17 40 l2 17 l74 338 l-18 0 q-19 0 -33 14 q-14 14 -14 33 q0 19 14 32.5 q14 13.5 33 13.5 l39 0 l40 182 q16 71 67.5 114 q51.5 43 120.5 43 q43 0 69 -13 q31 -13 31 -45 Z" /><glyph glyph-name="uni019D" unicode="&#x19d;" d="M590 673 q25 0 42 -17.5 q17 -17.5 17 -41.5 l0 -548 q0 -29 -21 -50.5 q-21 -21.5 -51 -21.5 q-37 0 -58 30 l-331 462 l0 -459 q0 -108 -60.5 -165.5 q-60.5 -57.5 -164.5 -57.5 l-1 0 q-22 0 -37.5 14.5 q-15.5 14.5 -15.5 36.5 q0 21 13.5 37 q13.5 16 31.5 16 l2 0 q52 1 83.5 34 q31.5 33 31.5 87 l0 567 q0 32 22.5 54.5 q22.5 22.5 54.5 22.5 q38 0 62 -32 l322 -447 l0 420 q0 24 17 41.5 q17 17.5 41 17.5 Z" /><glyph glyph-name="Ohorn" unicode="&#x1a0;" d="M664 535 q59 -88 59 -202 q2 -147 -96 -247.5 q-98 -100.5 -245 -97.5 q-147 -3 -245 97.5 q-98 100.5 -96 247.5 q-2 147 96 247 q98 100 245 98 q158 0 255 -108 q38 28 45 68 q-6 -2 -13 -2 q-19 0 -31.5 13.5 q-12.5 13.5 -12.5 33.5 q0 21 14.5 36 q14.5 15 35.5 15 q25 0 41 -18.5 q16 -18.5 16 -50.5 q0 -79 -68 -130 ZM603 333 q0 105 -61.5 173 q-61.5 68 -159.5 68 q-98 0 -159.5 -68 q-61.5 -68 -61.5 -173 q0 -104 61.5 -172.5 q61.5 -68.5 159.5 -68.5 q98 0 159.5 68.5 q61.5 68.5 61.5 172.5 Z" /><glyph glyph-name="ohorn" unicode="&#x1a1;" d="M480 407 q55 -67 55 -165 q0 -108 -69 -181 q-69 -73 -180 -73 q-110 0 -179 73 q-69 73 -69 181 q0 107 69 180 q69 73 179 73 q96 0 163 -56 q36 33 42 66 q-6 -2 -13 -2 q-19 0 -31.5 13 q-12.5 13 -12.5 34 q0 20 14.5 35 q14.5 15 35.5 15 q25 0 41 -18.5 q16 -18.5 16 -50.5 q0 -73 -61 -124 ZM426 242 q0 66 -38 113 q-38 47 -102 47 q-64 0 -102 -47 q-37 -46 -37 -113 q0 -69 37 -115 q37 -46 102 -46 q65 0 102 46 q38 47 38 115 Z" /><glyph glyph-name="Uhorn" unicode="&#x1af;" d="M648 572 l0 -308 q0 -130 -74.5 -203 q-74.5 -73 -213.5 -73 q-140 0 -214.5 73 q-74.5 73 -74.5 202 l0 351 q0 24 17 41.5 q17 17.5 42 17.5 q25 0 42 -17.5 q17 -17.5 17 -41.5 l0 -347 q0 -82 45 -128.5 q45 -46.5 126 -46.5 q81 0 125.5 46.5 q44.5 46.5 44.5 128.5 l0 347 q0 24 17 41.5 q17 17.5 42 17.5 q23 0 40 -15.5 q17 -15.5 19 -38.5 q25 15 42 37 q17 22 20 45 q-6 -2 -13 -2 q-19 0 -31.5 13 q-12.5 13 -12.5 34 q0 20 14.5 35 q14.5 15 35.5 15 q25 0 41 -18.5 q16 -18.5 16 -50.5 q0 -48 -30 -90 q-30 -42 -82 -65 Z" /><glyph glyph-name="uhorn" unicode="&#x1b0;" d="M499 400 l0 -353 q0 -22 -15.5 -37.5 q-15.5 -15.5 -36.5 -15.5 q-22 0 -37.5 15.5 q-15.5 15.5 -15.5 37.5 l0 16 q-70 -75 -171 -75 q-155 0 -155 153 l0 295 q0 22 15.5 37.5 q15.5 15.5 37.5 15.5 q21 0 36.5 -15.5 q15.5 -15.5 15.5 -37.5 l0 -257 q0 -52 24 -75 q24 -23 73 -23 q77 0 124 63 l0 292 q0 22 15.5 37.5 q15.5 15.5 36.5 15.5 q39 0 51 -39 q37 33 38 65 q-2 -2 -12 -2 q-20 0 -32.5 13 q-12.5 13 -12.5 34 q0 20 14.5 35 q14.5 15 35.5 15 q25 0 41.5 -19 q16.5 -19 16.5 -50 q0 -40 -23 -78.5 q-23 -38.5 -64 -62.5 Z" /><glyph glyph-name="Gcaron" unicode="&#x1e6;" d="M666 296 l0 -143 q0 -48 -32 -76 q-104 -90 -243 -90 q-146 -2 -249 97 q-103 99 -101 249 q-2 150 101 248.5 q103 98.5 249 96.5 q137 0 227 -90 q16 -16 16 -39 q0 -22 -15.5 -38 q-15.5 -16 -38.5 -16 q-23 0 -39 16 q-63 63 -150 63 q-99 0 -164.5 -68.5 q-65.5 -68.5 -65.5 -172.5 q0 -103 66 -172.5 q66 -69.5 164 -69.5 q92 0 158 60 l0 104 l-153 0 q-21 0 -36.5 15 q-15.5 15 -15.5 37 q0 21 15.5 36 q15.5 15 36.5 15 l208 0 q62 0 62 -62 ZM511 844 q0 -10 -4 -14 l-57 -88 q-15 -25 -47 -25 l-28 0 q-32 0 -47 25 l-57 88 q-4 4 -4 14 q0 13 8.5 21 q8.5 8 20.5 8 q14 0 21 -10 l72 -92 l72 92 q7 10 21 10 q12 0 20.5 -8 q8.5 -8 8.5 -21 Z" /><glyph glyph-name="gcaron" unicode="&#x1e7;" d="M512 436 l0 -411 q0 -119 -72 -170 q-70 -51 -176 -51 q-105 0 -174 49 q-19 13 -19 36 q0 18 13 31 q13 13 31 13 q14 0 25 -8 q50 -35 124 -35 q64 0 103.5 33 q39.5 33 39.5 98 l0 58 q-64 -80 -155 -80 q-95 0 -154.5 66.5 q-59.5 66.5 -59.5 181.5 q0 114 59.5 181 q59.5 67 154.5 67 q95 0 155 -79 l0 20 q0 22 15.5 37.5 q15.5 15.5 37.5 15.5 q21 0 36.5 -15.5 q15.5 -15.5 15.5 -37.5 ZM407 157 l0 180 q-18 27 -53.5 46 q-35.5 19 -70.5 19 q-62 0 -99 -42.5 q-37 -42.5 -37 -112.5 q0 -70 37 -112.5 q37 -42.5 99 -42.5 q35 0 70.5 19 q35.5 19 53.5 46 ZM413 697 q0 -10 -4 -14 l-57 -88 q-15 -25 -47 -25 l-28 0 q-32 0 -47 25 l-57 88 q-4 4 -4 14 q0 13 8.5 21 q8.5 8 20.5 8 q14 0 21 -10 l72 -92 l72 92 q7 10 21 10 q12 0 20.5 -8 q8.5 -8 8.5 -21 Z" /><glyph glyph-name="uni01EA" unicode="&#x1ea;" d="M384 -84 q0 -14 10 -22.5 q10 -8.5 25 -8.5 q4 0 11 1 q7 1 10 1 q13 0 23 -9.5 q10 -9.5 10 -24.5 q0 -24 -23 -32 q-22 -7 -57 -7 q-46 0 -76 20.5 q-30 20.5 -30 56.5 q0 58 84 97 q-142 1 -237 101 q-95 100 -93 244 q-2 147 96 247 q98 100 245 98 q147 2 245 -98 q98 -100 96 -247 q0 -135 -80.5 -230.5 q-80.5 -95.5 -208.5 -111.5 q-50 -42 -50 -75 ZM222.5 160.5 q61.5 -68.5 159.5 -68.5 q98 0 159.5 68.5 q61.5 68.5 61.5 172.5 q0 105 -61.5 173 q-61.5 68 -159.5 68 q-98 0 -159.5 -68 q-61.5 -68 -61.5 -173 q0 -104 61.5 -172.5 Z" /><glyph glyph-name="uni01EB" unicode="&#x1eb;" d="M276 -84 q0 -14 10 -22.5 q10 -8.5 25 -8.5 q4 0 11 1 q7 1 10 1 q13 0 23 -9.5 q10 -9.5 10 -24.5 q0 -24 -23 -32 q-22 -7 -57 -7 q-46 0 -76 20.5 q-30 20.5 -30 56.5 q0 59 86 98 q-102 7 -164.5 79 q-62.5 72 -62.5 174 q0 107 69 180 q69 73 179 73 q111 0 180 -73 q69 -73 69 -180 q0 -98 -57.5 -168.5 q-57.5 -70.5 -152.5 -83.5 q-49 -42 -49 -74 ZM184 127 q37 -46 102 -46 q65 0 102 46 q38 47 38 115 q0 66 -38 113 q-38 47 -102 47 q-64 0 -102 -47 q-37 -46 -37 -113 q0 -69 37 -115 Z" /><glyph glyph-name="Aringacute" unicode="&#x1fa;" d="M646 54 q0 -25 -17.5 -42.5 q-17.5 -17.5 -42.5 -17.5 q-19 0 -34 10.5 q-15 10.5 -21 27.5 l-35 96 l-320 0 l-35 -96 q-6 -17 -21 -27.5 q-15 -10.5 -34 -10.5 q-25 0 -42.5 17.5 q-17.5 17.5 -17.5 42.5 q0 4 5 21 l209 532 q12 30 38 48 q26 18 58 18 q32 0 58 -18 q26 -18 38 -48 l209 -532 q5 -17 5 -21 ZM213 231 l246 0 l-123 337 l-123 -337 ZM265 877.5 q30 30.5 72 30.5 q42 0 71.5 -30.5 q29.5 -30.5 29.5 -72.5 q0 -42 -29.5 -72 q-29.5 -30 -71.5 -30 q-42 0 -72 30 q-30 30 -30 72 q0 42 30 72.5 ZM337 857 q-21 0 -36.5 -15 q-15.5 -15 -15.5 -37 q0 -21 15.5 -36.5 q15.5 -15.5 36.5 -15.5 q21 0 36 15.5 q15 15.5 15 36.5 q0 22 -14.5 37 q-14.5 15 -36.5 15 ZM361 936 q-7 -7 -18 -7 q-11 0 -19 8 q-8 8 -8 19 q0 8 8 19 l97 100 q10 10 24 10 q13 0 22.5 -9.5 q9.5 -9.5 9.5 -23.5 q0 -15 -11 -24 l-105 -92 Z" /><glyph glyph-name="aringacute" unicode="&#x1fb;" d="M468 320 l0 -273 q0 -22 -15.5 -37.5 q-15.5 -15.5 -37.5 -15.5 q-21 0 -36.5 15.5 q-15.5 15.5 -15.5 37.5 l0 5 q-56 -64 -156 -64 q-67 0 -117.5 43.5 q-50.5 43.5 -50.5 116.5 q0 75 49.5 116 q49.5 41 118.5 41 q102 0 156 -62 l0 72 q0 42 -31 66 q-31 24 -82 24 q-60 0 -113 -36 q-10 -7 -24 -7 q-17 0 -29.5 12.5 q-12.5 12.5 -12.5 29.5 q0 23 18 34 q77 57 178 57 q93 0 147 -43.5 q54 -43.5 54 -131.5 ZM363 110 l0 73 q-37 50 -115 50 q-45 0 -74 -24 q-29 -24 -29 -63 q0 -39 29 -62.5 q29 -23.5 74 -23.5 q78 0 115 50 ZM197 730.5 q30 30.5 72 30.5 q42 0 71.5 -30.5 q29.5 -30.5 29.5 -72.5 q0 -42 -29.5 -72 q-29.5 -30 -71.5 -30 q-42 0 -72 30 q-30 30 -30 72 q0 42 30 72.5 ZM269 710 q-21 0 -36.5 -15 q-15.5 -15 -15.5 -37 q0 -21 15.5 -36.5 q15.5 -15.5 36.5 -15.5 q21 0 36 15.5 q15 15.5 15 36.5 q0 22 -14.5 37 q-14.5 15 -36.5 15 ZM293 789 q-7 -7 -18 -7 q-11 0 -19 8 q-8 8 -8 19 q0 8 8 19 l97 100 q10 10 24 10 q13 0 22.5 -9.5 q9.5 -9.5 9.5 -23.5 q0 -15 -11 -24 l-105 -92 Z" /><glyph glyph-name="AEacute" unicode="&#x1fc;" d="M918 52 q0 -22 -15.5 -37 q-15.5 -15 -36.5 -15 l-349 0 q-62 0 -62 62 l0 66 l-255 0 l-62 -108 q-16 -26 -46 -26 q-23 0 -39 16 q-16 16 -16 39 q0 14 8 28 l337 548 q28 42 75 42 l409 0 q21 0 36.5 -15 q15.5 -15 15.5 -37 q0 -21 -15.5 -36 q-15.5 -15 -36.5 -15 l-294 0 l0 -173 l287 0 q21 0 36.5 -15 q15.5 -15 15.5 -36 q0 -22 -15.5 -37 q-15.5 -15 -36.5 -15 l-287 0 l0 -185 l294 0 q21 0 36.5 -15 q15.5 -15 15.5 -36 ZM260 231 l195 0 l0 338 l-195 -338 ZM537 724 q-7 -7 -18 -7 q-11 0 -19 8 q-8 8 -8 19 q0 8 8 19 l97 100 q10 10 24 10 q13 0 22.5 -9.5 q9.5 -9.5 9.5 -23.5 q0 -15 -11 -24 l-105 -92 Z" /><glyph glyph-name="aeacute" unicode="&#x1fd;" d="M633 76 q53 0 100 30 q10 7 23 7 q17 0 29.5 -12.5 q12.5 -12.5 12.5 -30.5 q0 -22 -19 -35 q-68 -47 -151 -47 q-131 0 -190 98 q-30 -45 -84 -71.5 q-54 -26.5 -119 -26.5 q-83 0 -139.5 42.5 q-56.5 42.5 -56.5 116.5 q0 76 51 116 q51 42 126 42 q110 0 170 -60 l0 71 q0 41 -34 65 q-34 24 -89 24 q-70 0 -126 -37 q-10 -7 -23 -7 q-17 0 -29.5 12.5 q-12.5 12.5 -12.5 30.5 q0 24 18 35 q80 56 182 56 q137 0 174 -93 q63 93 177 93 q97 0 158 -69.5 q61 -69.5 61 -169.5 q0 -49 -62 -49 l-289 0 q6 -58 44 -94.5 q38 -36.5 98 -36.5 ZM615 409 q-57 0 -90 -39 q-32 -40 -35 -89 l250 0 q-1 49 -34 89 q-32 39 -91 39 ZM258 233 q-51 0 -82 -20.5 q-31 -20.5 -31 -58.5 q0 -38 30.5 -58 q30.5 -20 82.5 -20 q50 0 89 31.5 q39 31.5 39 67.5 l0 7 q-45 51 -128 51 ZM466 577 q-7 -7 -18 -7 q-11 0 -19 8 q-8 8 -8 19 q0 8 8 19 l97 100 q10 10 24 10 q13 0 22.5 -9.5 q9.5 -9.5 9.5 -23.5 q0 -15 -11 -24 l-105 -92 Z" /><glyph glyph-name="Oslashacute" unicode="&#x1fe;" d="M723 333 q2 -147 -96 -247.5 q-98 -100.5 -245 -97.5 q-102 0 -184 49 l-52 -71 q-11 -14 -25 -14 q-11 0 -19.5 8 q-8.5 8 -8.5 20 q0 10 7 20 l52 71 q-111 98 -111 262 q-2 147 96 247 q98 100 245 98 q98 0 176 -45 l49 68 q11 14 25 14 q11 0 19.5 -8 q8.5 -8 8.5 -20 q0 -10 -7 -20 l-48 -66 q118 -99 118 -268 ZM218 164 l276 381 q-50 29 -112 29 q-98 0 -159.5 -68 q-61.5 -68 -61.5 -173 q0 -99 57 -169 ZM603 333 q0 109 -64 176 l-277 -383 q50 -34 120 -34 q98 0 159.5 68.5 q61.5 68.5 61.5 172.5 ZM406 724 q-7 -7 -18 -7 q-11 0 -19 8 q-8 8 -8 19 q0 8 8 19 l97 100 q10 10 24 10 q13 0 22.5 -9.5 q9.5 -9.5 9.5 -23.5 q0 -15 -11 -24 l-105 -92 Z" /><glyph glyph-name="oslashacute" unicode="&#x1ff;" d="M535 242 q0 -108 -69 -181 q-69 -73 -180 -73 q-73 0 -126 31 l-40 -55 q-8 -12 -22 -12 q-9 0 -16.5 7 q-7.5 7 -7.5 17 q0 7 6 16 l40 56 q-82 74 -82 194 q0 107 69 180 q69 73 179 73 q76 0 132 -34 l41 57 q9 13 23 13 q9 0 16 -6.5 q7 -6.5 7 -15.5 q0 -8 -6 -17 l-43 -59 q79 -73 79 -191 ZM181 132 l179 249 q-32 21 -74 21 q-64 0 -102 -47 q-37 -46 -37 -113 q0 -66 34 -110 ZM426 242 q0 61 -31 105 l-178 -248 q31 -18 69 -18 q65 0 102 46 q38 47 38 115 ZM311 577 q-7 -7 -18 -7 q-11 0 -19 8 q-8 8 -8 19 q0 8 8 19 l97 100 q10 10 24 10 q13 0 22.5 -9.5 q9.5 -9.5 9.5 -23.5 q0 -15 -11 -24 l-105 -92 Z" /><glyph glyph-name="uni0218" unicode="&#x218;" d="M42 105 q0 23 16 39.5 q16 16.5 39 16.5 q20 0 34 -11 q77 -58 173 -58 q64 0 99 26 q35 26 35 65 q-4 41 -35 58.5 q-31 17.5 -117 40.5 q-79 19 -122 37 q-115 46 -115 163 q0 84 70 139.5 q70 55.5 183 55.5 q106 0 206 -61 q25 -15 25 -45 q0 -22 -16 -38.5 q-16 -16.5 -39 -16.5 q-18 0 -31 10 q-71 47 -155 47 q-57 0 -90 -22.5 q-33 -22.5 -33 -60.5 q0 -24 19 -40 q29 -25 128 -49 q75 -19 123 -39 q118 -49 118 -168 q0 -91 -66.5 -148.5 q-66.5 -57.5 -191.5 -57.5 q-140 0 -235 73 q-22 16 -22 44 ZM247 -255 q0 9 13 22 q33 33 39 65 q-6 -2 -14 -2 q-20 0 -34 14.5 q-14 14.5 -14 36.5 q0 23 16 39.5 q16 16.5 39 16.5 q27 0 45 -20.5 q18 -20.5 18 -54.5 q0 -76 -67 -135 q-8 -6 -16 -6 q-10 0 -17.5 7 q-7.5 7 -7.5 17 Z" /><glyph glyph-name="uni0219" unicode="&#x219;" d="M35 76 q0 19 13 32 q13 13 32 13 q14 0 25 -7 q64 -43 133 -43 q45 0 70 15.5 q25 15.5 25 43.5 q0 28 -25.5 42.5 q-25.5 14.5 -84.5 27.5 q-59 12 -94 25 q-88 35 -88 123 q0 62 51.5 104.5 q51.5 42.5 138.5 42.5 q90 0 161 -47 q19 -13 19 -35 q0 -17 -12.5 -29.5 q-12.5 -12.5 -29.5 -12.5 q-13 0 -23 7 q-51 33 -114 33 q-42 0 -66 -14.5 q-24 -14.5 -24 -39.5 q0 -24 24 -37 q24 -13 81 -26 q58 -12 95 -27 q92 -34 92 -129 q0 -67 -53.5 -108.5 q-53.5 -41.5 -147.5 -41.5 q-103 0 -178 51 q-20 13 -20 37 ZM186 -255 q0 9 13 22 q33 33 39 65 q-6 -2 -14 -2 q-20 0 -34 14.5 q-14 14.5 -14 36.5 q0 23 16 39.5 q16 16.5 39 16.5 q27 0 45 -20.5 q18 -20.5 18 -54.5 q0 -76 -67 -135 q-7 -6 -16 -6 q-10 0 -17.5 7 q-7.5 7 -7.5 17 Z" /><glyph glyph-name="uni021A" unicode="&#x21a;" d="M230 53 l0 511 l-156 0 q-21 0 -36.5 15 q-15.5 15 -15.5 36 q0 22 15.5 37 q15.5 15 36.5 15 l429 0 q21 0 36.5 -15 q15.5 -15 15.5 -37 q0 -21 -15.5 -36 q-15.5 -15 -36.5 -15 l-156 0 l0 -511 q0 -24 -17 -41.5 q-17 -17.5 -41 -17.5 q-25 0 -42 17.5 q-17 17.5 -17 41.5 ZM244 -255 q0 9 13 22 q33 33 39 65 q-6 -2 -14 -2 q-20 0 -34 14.5 q-14 14.5 -14 36.5 q0 23 16 39.5 q16 16.5 39 16.5 q27 0 45 -20.5 q18 -20.5 18 -54.5 q0 -76 -67 -135 q-7 -6 -16 -6 q-10 0 -17.5 7 q-7.5 7 -7.5 17 Z" /><glyph glyph-name="uni021B" unicode="&#x21b;" d="M310 40 q0 -28 -28 -40 q-28 -12 -69 -12 q-61 0 -92.5 32 q-31.5 32 -31.5 92 l0 279 l-40 0 q-19 0 -32.5 13.5 q-13.5 13.5 -13.5 32.5 q0 19 13.5 32.5 q13.5 13.5 32.5 13.5 l40 0 l0 85 q0 22 15.5 37.5 q15.5 15.5 37.5 15.5 q21 0 36.5 -15.5 q15.5 -15.5 15.5 -37.5 l0 -85 l58 0 q19 0 32.5 -13.5 q13.5 -13.5 13.5 -32.5 q0 -19 -13.5 -32.5 q-13.5 -13.5 -32.5 -13.5 l-58 0 l0 -253 q0 -26 12 -41.5 q12 -15.5 34 -15.5 q5 0 14 1.5 q9 1.5 12 1.5 q20 0 32 -12.5 q12 -12.5 12 -31.5 ZM116 -255 q0 9 13 22 q33 33 39 65 q-6 -2 -14 -2 q-20 0 -34 14.5 q-14 14.5 -14 36.5 q0 23 16 39.5 q16 16.5 39 16.5 q27 0 45 -20.5 q18 -20.5 18 -54.5 q0 -76 -67 -135 q-7 -6 -16 -6 q-10 0 -17.5 7 q-7.5 7 -7.5 17 Z" /><glyph glyph-name="uni0232" unicode="&#x232;" d="M582 587 l-205 -310 l0 -224 q0 -24 -17 -41.5 q-17 -17.5 -41 -17.5 q-25 0 -42 17.5 q-17 17.5 -17 41.5 l0 224 l-206 309 q-9 12 -9 31 q0 23 16.5 39.5 q16.5 16.5 39.5 16.5 q29 0 47 -26 l171 -266 l169 266 q18 26 47 26 q23 0 39.5 -16.5 q16.5 -16.5 16.5 -39.5 q0 -18 -9 -30 ZM160 742 q-9 9 -9 22 q0 13 9 22 q9 9 22 9 l273 0 q13 0 22 -9 q9 -9 9 -22 q0 -13 -9 -22 q-9 -9 -22 -9 l-273 0 q-13 0 -22 9 Z" /><glyph glyph-name="uni0233" unicode="&#x233;" d="M98 -103 l5 0 q51 0 69 42 l24 55 l-172 424 q-3 9 -3 19 q0 22 15 37 q15 15 36 15 q16 0 30 -9.5 q14 -9.5 19 -23.5 l130 -335 l130 335 q5 14 19 23.5 q14 9.5 30 9.5 q22 0 37 -15 q15 -15 15 -37 q0 -9 -4 -20 l-206 -504 q-23 -58 -63.5 -83 q-40.5 -25 -102.5 -26 q-11 0 -15 1 q-18 2 -30.5 15 q-12.5 13 -12.5 31 q0 19 15 32.5 q15 13.5 35 13.5 ZM92 595 q-9 9 -9 22 q0 13 9 22 q9 9 22 9 l273 0 q13 0 22 -9 q9 -9 9 -22 q0 -13 -9 -22 q-9 -9 -22 -9 l-273 0 q-13 0 -22 9 Z" /><glyph glyph-name="uni0237" unicode="&#x237;" d="M13 -196 l-12 0 q-17 0 -30 13 q-13 13 -13 31 q0 18 11.5 31.5 q11.5 13.5 27.5 13.5 l3 0 q68 0 68 79 l0 464 q0 22 15.5 37.5 q15.5 15.5 37.5 15.5 q21 0 36.5 -15.5 q15.5 -15.5 15.5 -37.5 l0 -464 q0 -80 -41.5 -124 q-41.5 -44 -118.5 -44 Z" /><glyph glyph-name="uni0259" unicode="&#x259;" d="M274 -12 q-103 0 -167.5 68 q-64.5 68 -64.5 165 q0 32 12 43.5 q12 11.5 44 11.5 l311 0 q-6 58 -47.5 95.5 q-41.5 37.5 -106.5 37.5 q-57 0 -110 -32 q-9 -6 -23 -6 q-17 0 -29.5 12.5 q-12.5 12.5 -12.5 29.5 q0 22 19 35 q71 47 167 47 q109 0 181 -70.5 q72 -70.5 72 -183.5 q0 -106 -70 -179.5 q-70 -73.5 -175 -73.5 ZM410 202 l-272 0 q2 -51 37.5 -89.5 q35.5 -38.5 98.5 -38.5 q60 0 96 37 q36 37 40 91 Z" /><glyph glyph-name="uni0272" unicode="&#x272;" d="M499 340 l0 -293 q0 -22 -15.5 -37.5 q-15.5 -15.5 -37.5 -15.5 q-21 0 -36.5 15.5 q-15.5 15.5 -15.5 37.5 l0 255 q0 53 -24 76.5 q-24 23.5 -73 23.5 q-75 0 -124 -65 l0 -365 q0 -80 -41.5 -124 q-41.5 -44 -118.5 -44 l-12 0 q-18 1 -30.5 13.5 q-12.5 12.5 -12.5 30.5 q0 18 12.5 31.5 q12.5 13.5 29.5 13.5 l2 0 q66 2 66 79 l0 464 q0 22 15.5 37.5 q15.5 15.5 37.5 15.5 q21 0 36.5 -15.5 q15.5 -15.5 15.5 -37.5 l0 -19 q29 34 74 56 q45 22 96 22 q77 0 116.5 -40 q39.5 -40 39.5 -115 Z" /><glyph glyph-name="uni02B0" unicode="&#x2b0;" d="M273 359 l0 161 q0 63 -63 63 q-44 0 -79 -39 l0 -185 q0 -16 -11.5 -27.5 q-11.5 -11.5 -27.5 -11.5 q-16 0 -27 11.5 q-11 11.5 -11 27.5 l0 368 q0 16 11.5 27.5 q11.5 11.5 27.5 11.5 q16 0 27 -11.5 q11 -11.5 11 -27.5 l0 -129 q43 50 114 50 q106 0 106 -105 l0 -184 q0 -16 -11.5 -27.5 q-11.5 -11.5 -27.5 -11.5 q-16 0 -27.5 11.5 q-11.5 11.5 -11.5 27.5 Z" /><glyph glyph-name="uni02BC" unicode="&#x2bc;" d="M120 427 q-8 -8 -20 -8 q-12 0 -20.5 8.5 q-8.5 8.5 -8.5 21.5 q0 13 9 22 q41 40 49 77 q-9 -3 -17 -3 q-26 0 -43 17.5 q-17 17.5 -17 45.5 q0 28 20 48.5 q20 20.5 48 20.5 q33 0 55.5 -25 q22.5 -25 22.5 -66 q0 -91 -78 -159 Z" /><glyph glyph-name="circumflex" unicode="&#x2c6;" d="M214 560 l-72 92 l-72 -92 q-7 -10 -21 -10 q-12 0 -20.5 8 q-8.5 8 -8.5 21 q0 10 4 14 l57 88 q15 25 47 25 l28 0 q32 0 47 -25 l57 -88 q4 -4 4 -14 q0 -13 -8.5 -21 q-8.5 -8 -20.5 -8 q-14 0 -21 10 Z" /><glyph glyph-name="caron" unicode="&#x2c7;" d="M264 677 q0 -10 -4 -14 l-57 -88 q-15 -25 -47 -25 l-28 0 q-32 0 -47 25 l-57 88 q-4 4 -4 14 q0 13 8.5 21 q8.5 8 20.5 8 q14 0 21 -10 l72 -92 l72 92 q7 10 21 10 q12 0 20.5 -8 q8.5 -8 8.5 -21 Z" /><glyph glyph-name="uni02C9" unicode="&#x2c9;" d="M23 600 q-9 9 -9 22 q0 13 9 22 q9 9 22 9 l273 0 q13 0 22 -9 q9 -9 9 -22 q0 -13 -9 -22 q-9 -9 -22 -9 l-273 0 q-13 0 -22 9 Z" /><glyph glyph-name="uni02CB" unicode="&#x2cb;" d="M164 557 l-105 92 q-11 9 -11 24 q0 14 9.5 23.5 q9.5 9.5 22.5 9.5 q14 0 24 -10 l97 -100 q8 -11 8 -19 q0 -11 -8 -19 q-8 -8 -19 -8 q-11 0 -18 7 Z" /><glyph glyph-name="breve" unicode="&#x2d8;" d="M18 621 q-9 9 -9 22 q0 13 9 22 q9 9 22 9 q16 0 23 -9 q46 -49 113 -49 q65 0 112 48 q7 10 23 10 q13 0 22 -9 q9 -9 9 -22 q0 -11 -9 -22 q-64 -67 -157 -67 q-91 0 -158 67 Z" /><glyph glyph-name="dotaccent" unicode="&#x2d9;" d="M32.5 663.5 q17.5 17.5 41.5 17.5 q24 0 41 -17.5 q17 -17.5 17 -41.5 q0 -25 -17 -42 q-17 -17 -41 -17 q-24 0 -41.5 17 q-17.5 17 -17.5 42 q0 24 17.5 41.5 Z" /><glyph glyph-name="ring" unicode="&#x2da;" d="M50 710.5 q30 30.5 72 30.5 q42 0 71.5 -30.5 q29.5 -30.5 29.5 -72.5 q0 -42 -29.5 -72 q-29.5 -30 -71.5 -30 q-42 0 -72 30 q-30 30 -30 72 q0 42 30 72.5 ZM122 690 q-21 0 -36.5 -15 q-15.5 -15 -15.5 -37 q0 -21 15.5 -36.5 q15.5 -15.5 36.5 -15.5 q21 0 36 15.5 q15 15.5 15 36.5 q0 22 -14.5 37 q-14.5 15 -36.5 15 Z" /><glyph glyph-name="ogonek" unicode="&#x2db;" d="M10 -109 q0 35 32 63.5 q32 28.5 82 45.5 q48 16 52 10 q1 -2 -2 -4 q-38 -31 -52.5 -50 q-14.5 -19 -14.5 -40 q0 -14 10 -22.5 q10 -8.5 25 -8.5 q4 0 11 1 q7 1 10 1 q13 0 23 -9.5 q10 -9.5 10 -24.5 q0 -24 -23 -32 q-22 -7 -57 -7 q-46 0 -76 20.5 q-30 20.5 -30 56.5 Z" /><glyph glyph-name="tilde" unicode="&#x2dc;" d="M142 600 q-24 32 -43 32 q-34 0 -41 -53 q-5 -25 -28 -25 q-13 0 -21.5 10 q-8.5 10 -6.5 22 q6 52 32 80 q26 28 69 28 q24 0 39.5 -10.5 q15.5 -10.5 35.5 -35.5 q26 -32 44 -32 q33 0 40 53 q2 25 28 25 q13 0 21.5 -9.5 q8.5 -9.5 7.5 -22.5 q-6 -52 -32 -80 q-26 -28 -69 -28 q-24 0 -40.5 11 q-16.5 11 -35.5 35 Z" /><glyph glyph-name="hungarumlaut" unicode="&#x2dd;" d="M17 576 q0 10 4 14 l64 101 q9 16 28 16 q13 0 23 -10.5 q10 -10.5 10 -24.5 q0 -13 -7 -20 l-74 -93 q-7 -10 -20 -10 q-11 0 -19.5 8 q-8.5 8 -8.5 19 ZM163 576 q0 10 4 14 l64 101 q9 16 28 16 q13 0 23 -10.5 q10 -10.5 10 -24.5 q0 -13 -7 -20 l-74 -93 q-7 -10 -20 -10 q-11 0 -19.5 8 q-8.5 8 -8.5 19 Z" /><glyph glyph-name="gravecomb" unicode="&#x300;" d="M-76 557 l-105 92 q-11 9 -11 24 q0 14 9.5 23.5 q9.5 9.5 22.5 9.5 q14 0 24 -10 l97 -100 q8 -11 8 -19 q0 -11 -8 -19 q-8 -8 -19 -8 q-11 0 -18 7 Z" /><glyph glyph-name="acutecomb" unicode="&#x301;" d="M-164 557 q-7 -7 -18 -7 q-11 0 -19 8 q-8 8 -8 19 q0 8 8 19 l97 100 q10 10 24 10 q13 0 22.5 -9.5 q9.5 -9.5 9.5 -23.5 q0 -15 -11 -24 l-105 -92 Z" /><glyph glyph-name="uni0302" unicode="&#x302;" d="M-71 560 l-72 92 l-72 -92 q-7 -10 -21 -10 q-12 0 -20.5 8 q-8.5 8 -8.5 21 q0 10 4 14 l57 88 q15 25 47 25 l28 0 q32 0 47 -25 l57 -88 q4 -4 4 -14 q0 -13 -8.5 -21 q-8.5 -8 -20.5 -8 q-14 0 -21 10 Z" /><glyph glyph-name="tildecomb" unicode="&#x303;" d="M-179 600 q-24 32 -43 32 q-34 0 -41 -53 q-5 -25 -28 -25 q-13 0 -21.5 10 q-8.5 10 -6.5 22 q6 52 32 80 q26 28 69 28 q24 0 39.5 -10.5 q15.5 -10.5 35.5 -35.5 q26 -32 44 -32 q33 0 40 53 q2 25 28 25 q13 0 21.5 -9.5 q8.5 -9.5 7.5 -22.5 q-6 -52 -32 -80 q-26 -28 -69 -28 q-24 0 -40.5 11 q-16.5 11 -35.5 35 Z" /><glyph glyph-name="uni0304" unicode="&#x304;" d="M-340 575 q-9 9 -9 22 q0 13 9 22 q9 9 22 9 l273 0 q13 0 22 -9 q9 -9 9 -22 q0 -13 -9 -22 q-9 -9 -22 -9 l-273 0 q-13 0 -22 9 Z" /><glyph glyph-name="uni0306" unicode="&#x306;" d="M-333 621 q-9 9 -9 22 q0 13 9 22 q9 9 22 9 q15 0 23 -9 q46 -49 113 -49 q65 0 112 48 q7 10 23 10 q13 0 22 -9 q9 -9 9 -22 q0 -11 -9 -22 q-64 -67 -157 -67 q-91 0 -158 67 Z" /><glyph glyph-name="uni0307" unicode="&#x307;" d="M-114.5 663.5 q17.5 17.5 41.5 17.5 q24 0 41 -17.5 q17 -17.5 17 -41.5 q0 -25 -17 -42 q-17 -17 -41 -17 q-24 0 -41.5 17 q-17.5 17 -17.5 42 q0 24 17.5 41.5 Z" /><glyph glyph-name="uni0308" unicode="&#x308;" d="M-373 623 q0 24 17 41 q17 17 42 17 q24 0 41 -17 q17 -17 17 -41 q0 -25 -17 -42 q-17 -17 -41 -17 q-25 0 -42 17 q-17 17 -17 42 ZM-164 623 q0 24 17.5 41 q17.5 17 41.5 17 q24 0 41.5 -17 q17.5 -17 17.5 -41 q0 -25 -17.5 -42 q-17.5 -17 -41.5 -17 q-24 0 -41.5 17 q-17.5 17 -17.5 42 Z" /><glyph glyph-name="uni0309" unicode="&#x309;" d="M-64 574 q0 10 4 19 q5 13 5 29 q0 21 -11.5 33 q-11.5 12 -29.5 12 q-28 0 -42 -26 q-7 -13 -23 -13 q-11 0 -19 8 q-8 8 -8 19 q0 7 4 14 q29 47 88 47 q44 0 71 -24 q27 -24 27 -68 q0 -29 -17 -58 q-7 -15 -24 -15 q-10 0 -17.5 7 q-7.5 7 -7.5 16 Z" /><glyph glyph-name="uni030A" unicode="&#x30a;" d="M-193 710.5 q30 30.5 72 30.5 q42 0 71.5 -30.5 q29.5 -30.5 29.5 -72.5 q0 -42 -29.5 -72 q-29.5 -30 -71.5 -30 q-42 0 -72 30 q-30 30 -30 72 q0 42 30 72.5 ZM-121 690 q-21 0 -36.5 -15 q-15.5 -15 -15.5 -37 q0 -21 15.5 -36.5 q15.5 -15.5 36.5 -15.5 q21 0 36 15.5 q15 15.5 15 36.5 q0 22 -14.5 37 q-14.5 15 -36.5 15 Z" /><glyph glyph-name="uni030B" unicode="&#x30b;" d="M-307 576 q0 10 4 14 l64 101 q9 16 28 16 q13 0 23 -10.5 q10 -10.5 10 -24.5 q0 -13 -7 -20 l-74 -93 q-7 -10 -20 -10 q-11 0 -19.5 8 q-8.5 8 -8.5 19 ZM-161 576 q0 10 4 14 l64 101 q9 16 28 16 q13 0 23 -10.5 q10 -10.5 10 -24.5 q0 -13 -7 -20 l-74 -93 q-7 -10 -20 -10 q-11 0 -19.5 8 q-8.5 8 -8.5 19 Z" /><glyph glyph-name="uni030C" unicode="&#x30c;" d="M-21 677 q0 -10 -4 -14 l-57 -88 q-15 -25 -47 -25 l-28 0 q-32 0 -47 25 l-57 88 q-4 4 -4 14 q0 13 8.5 21 q8.5 8 20.5 8 q14 0 21 -10 l72 -92 l72 92 q7 10 21 10 q12 0 20.5 -8 q8.5 -8 8.5 -21 Z" /><glyph glyph-name="dotbelowcomb" unicode="&#x323;" d="M-114.5 -76.5 q17.5 17.5 41.5 17.5 q24 0 41 -17.5 q17 -17.5 17 -41.5 q0 -25 -17 -42 q-17 -17 -41 -17 q-24 0 -41.5 17 q-17.5 17 -17.5 42 q0 24 17.5 41.5 Z" /><glyph glyph-name="uni0326" unicode="&#x326;" d="M-168 -255 q0 9 13 22 q33 33 39 65 q-6 -2 -14 -2 q-20 0 -34 14.5 q-14 14.5 -14 36.5 q0 23 16 39.5 q16 16.5 39 16.5 q27 0 45 -20.5 q18 -20.5 18 -54.5 q0 -76 -67 -135 q-8 -6 -16 -6 q-10 0 -17.5 7 q-7.5 7 -7.5 17 Z" /><glyph glyph-name="uni0327" unicode="&#x327;" d="M-200 -172 q-14 8 -14 22 q0 11 7.5 18.5 q7.5 7.5 17.5 7.5 q6 0 13 -4 q32 -18 65 -18 q24 0 40 9.5 q16 9.5 16 26.5 q0 30 -33 30 q-16 0 -27 -9 q-8 -5 -16 -5 q-12 0 -20 8 q-8 8 -8 20 q0 2 2 10 l25 67 l55 0 l-26 -64 q17 11 36 11 q29 0 48 -19.5 q19 -19.5 19 -49.5 q0 -36 -31 -59.5 q-31 -23.5 -77 -23.5 q-52 0 -92 22 Z" /><glyph glyph-name="uni0328" unicode="&#x328;" d="M-196 -109 q0 35 32 63.5 q32 28.5 82 45.5 q48 16 52 10 q1 -2 -2 -4 q-38 -31 -52.5 -50 q-14.5 -19 -14.5 -40 q0 -14 10 -22.5 q10 -8.5 25 -8.5 q4 0 11 1 q7 1 10 1 q13 0 23 -9.5 q10 -9.5 10 -24.5 q0 -24 -23 -32 q-22 -7 -57 -7 q-46 0 -76 20.5 q-30 20.5 -30 56.5 Z" /><glyph glyph-name="uni037E" unicode="&#x37e;" d="M52 420 q0 29 21 49.5 q21 20.5 49 20.5 q29 0 49.5 -20.5 q20.5 -20.5 20.5 -49.5 q0 -28 -21 -49 q-21 -21 -49 -21 q-28 0 -49 21 q-21 21 -21 49 ZM120 -121 q-8 -8 -20 -8 q-12 0 -20.5 8.5 q-8.5 8.5 -8.5 21.5 q0 13 9 22 q41 40 49 77 q-9 -3 -17 -3 q-26 0 -43 17.5 q-17 17.5 -17 45.5 q0 28 20 48.5 q20 20.5 48 20.5 q33 0 55.5 -25 q22.5 -25 22.5 -66 q0 -91 -78 -159 Z" /><glyph glyph-name="tonos" unicode="&#x384;" d="M12 592 l15 153 q2 16 13.5 27 q11.5 11 27.5 11 q17 0 29.5 -12.5 q12.5 -12.5 12.5 -29.5 q0 -2 -2 -12 l-46 -147 q-5 -18 -25 -18 q-10 0 -18 8.5 q-8 8.5 -7 19.5 Z" /><glyph glyph-name="dieresistonos" unicode="&#x385;" d="M174 593 l15 152 q1 16 13 27 q12 11 28 11 q17 0 29.5 -12.5 q12.5 -12.5 12.5 -29.5 q0 -4 -2 -12 l-45 -147 q-5 -18 -25 -18 q-11 0 -19 9 q-8 9 -7 20 ZM10 623 q0 24 17 41 q17 17 42 17 q24 0 41 -17 q17 -17 17 -41 q0 -25 -17 -42 q-17 -17 -41 -17 q-25 0 -42 17 q-17 17 -17 42 ZM297 623 q0 24 17 41 q17 17 41 17 q25 0 42 -17 q17 -17 17 -41 q0 -25 -17 -42 q-17 -17 -42 -17 q-24 0 -41 17 q-17 17 -17 42 Z" /><glyph glyph-name="Alphatonos" unicode="&#x386;" d="M646 54 q0 -25 -17.5 -42.5 q-17.5 -17.5 -42.5 -17.5 q-19 0 -34 10.5 q-15 10.5 -21 27.5 l-35 96 l-320 0 l-35 -96 q-6 -17 -21 -27.5 q-15 -10.5 -34 -10.5 q-25 0 -42.5 17.5 q-17.5 17.5 -17.5 42.5 q0 4 5 21 l209 532 q12 30 38 48 q26 18 58 18 q32 0 58 -18 q26 -18 38 -48 l209 -532 q5 -17 5 -21 ZM213 231 l246 0 l-123 337 l-123 -337 ZM76 485 l15 153 q2 16 13.5 27 q11.5 11 27.5 11 q17 0 29.5 -12.5 q12.5 -12.5 12.5 -29.5 q0 -2 -2 -12 l-46 -147 q-5 -18 -25 -18 q-10 0 -18 8.5 q-8 8.5 -7 19.5 Z" /><glyph glyph-name="Epsilontonos" unicode="&#x388;" d="M123 62 l0 543 q0 62 62 62 l349 0 q21 0 36.5 -15 q15.5 -15 15.5 -37 q0 -21 -15.5 -36 q-15.5 -15 -36.5 -15 l-294 0 l0 -173 l287 0 q21 0 36.5 -15 q15.5 -15 15.5 -36 q0 -22 -15.5 -37 q-15.5 -15 -36.5 -15 l-287 0 l0 -185 l294 0 q21 0 36.5 -15 q15.5 -15 15.5 -36 q0 -22 -15.5 -37 q-15.5 -15 -36.5 -15 l-349 0 q-62 0 -62 62 ZM-14 485 l15 153 q2 16 13.5 27 q11.5 11 27.5 11 q17 0 29.5 -12.5 q12.5 -12.5 12.5 -29.5 q0 -2 -2 -12 l-46 -147 q-5 -18 -25 -18 q-10 0 -18 8.5 q-8 8.5 -7 19.5 Z" /><glyph glyph-name="Etatonos" unicode="&#x389;" d="M587 53 l0 238 l-347 0 l0 -238 q0 -24 -17 -41.5 q-17 -17.5 -41 -17.5 q-25 0 -42 17.5 q-17 17.5 -17 41.5 l0 561 q0 24 17 41.5 q17 17.5 41 17.5 q25 0 42 -17.5 q17 -17.5 17 -41.5 l0 -220 l347 0 l0 220 q0 24 17 41.5 q17 17.5 42 17.5 q24 0 41 -17.5 q17 -17.5 17 -41.5 l0 -561 q0 -24 -17 -41.5 q-17 -17.5 -42 -17.5 q-24 0 -41 17.5 q-17 17.5 -17 41.5 ZM-14 485 l15 153 q2 16 13.5 27 q11.5 11 27.5 11 q17 0 29.5 -12.5 q12.5 -12.5 12.5 -29.5 q0 -2 -2 -12 l-46 -147 q-5 -18 -25 -18 q-10 0 -18 8.5 q-8 8.5 -7 19.5 Z" /><glyph glyph-name="Iotatonos" unicode="&#x38a;" d="M123 53 l0 561 q0 24 17 41.5 q17 17.5 42 17.5 q24 0 41 -17.5 q17 -17.5 17 -41.5 l0 -561 q0 -24 -17 -41.5 q-17 -17.5 -41 -17.5 q-25 0 -42 17.5 q-17 17.5 -17 41.5 ZM-14 485 l15 153 q2 16 13.5 27 q11.5 11 27.5 11 q17 0 29.5 -12.5 q12.5 -12.5 12.5 -29.5 q0 -2 -2 -12 l-46 -147 q-5 -18 -25 -18 q-10 0 -18 8.5 q-8 8.5 -7 19.5 Z" /><glyph glyph-name="Omicrontonos" unicode="&#x38c;" d="M403 678 q147 2 245 -98 q98 -100 96 -247 q2 -147 -96 -247.5 q-98 -100.5 -245 -97.5 q-147 -3 -245 97.5 q-98 100.5 -96 247.5 q-2 147 96 247 q98 100 245 98 ZM562.5 506 q-61.5 68 -159.5 68 q-98 0 -159.5 -68 q-61.5 -68 -61.5 -173 q0 -104 61.5 -172.5 q61.5 -68.5 159.5 -68.5 q98 0 159.5 68.5 q61.5 68.5 61.5 172.5 q0 105 -61.5 173 ZM-14 485 l15 153 q2 16 13.5 27 q11.5 11 27.5 11 q17 0 29.5 -12.5 q12.5 -12.5 12.5 -29.5 q0 -2 -2 -12 l-46 -147 q-5 -18 -25 -18 q-10 0 -18 8.5 q-8 8.5 -7 19.5 Z" /><glyph glyph-name="Upsilontonos" unicode="&#x38e;" d="M648 587 l-205 -310 l0 -224 q0 -24 -17 -41.5 q-17 -17.5 -41 -17.5 q-25 0 -42 17.5 q-17 17.5 -17 41.5 l0 224 l-206 309 q-9 12 -9 31 q0 23 16.5 39.5 q16.5 16.5 39.5 16.5 q29 0 47 -26 l171 -266 l169 266 q18 26 47 26 q23 0 39.5 -16.5 q16.5 -16.5 16.5 -39.5 q0 -18 -9 -30 ZM-14 485 l15 153 q2 16 13.5 27 q11.5 11 27.5 11 q17 0 29.5 -12.5 q12.5 -12.5 12.5 -29.5 q0 -2 -2 -12 l-46 -147 q-5 -18 -25 -18 q-10 0 -18 8.5 q-8 8.5 -7 19.5 Z" /><glyph glyph-name="Omegatonos" unicode="&#x38f;" d="M73 358 q-2 140 95.5 231 q97.5 91 245.5 89 q148 2 245.5 -89 q97.5 -91 95.5 -231 q0 -163 -142 -255 l79 0 q21 0 36.5 -15 q15.5 -15 15.5 -37 q0 -21 -15.5 -36 q-15.5 -15 -36.5 -15 l-157 0 q-25 0 -42.5 17.5 q-17.5 17.5 -17.5 42.5 q0 39 35 55 q58 27 91.5 85 q33.5 58 33.5 134 q0 101 -58.5 170 q-58.5 69 -162.5 69 q-104 0 -162.5 -69 q-58.5 -69 -58.5 -170 q0 -76 34 -134 q34 -58 92 -85 q35 -16 35 -55 q0 -25 -17.5 -42.5 q-17.5 -17.5 -42.5 -17.5 l-157 0 q-21 0 -36.5 15 q-15.5 15 -15.5 37 q0 21 15.5 36 q15.5 15 36.5 15 l80 0 q-67 43 -105.5 108 q-38.5 65 -38.5 147 ZM-14 485 l15 153 q2 16 13.5 27 q11.5 11 27.5 11 q17 0 29.5 -12.5 q12.5 -12.5 12.5 -29.5 q0 -2 -2 -12 l-46 -147 q-5 -18 -25 -18 q-10 0 -18 8.5 q-8 8.5 -7 19.5 Z" /><glyph glyph-name="iotadieresistonos" unicode="&#x390;" d="M68 112 l0 324 q0 22 15.5 37.5 q15.5 15.5 37.5 15.5 q21 0 36.5 -15.5 q15.5 -15.5 15.5 -37.5 l0 -305 q0 -20 8.5 -34 q8.5 -14 21.5 -16 l6 -1 q17 -3 26.5 -16 q9.5 -13 9.5 -30 q0 -19 -13 -32 q-13 -13 -31 -14 l-9 0 q-61 0 -92.5 32 q-31.5 32 -31.5 92 ZM99 613 l15 152 q1 16 13 27 q12 11 28 11 q17 0 29.5 -12.5 q12.5 -12.5 12.5 -29.5 q0 -4 -2 -12 l-45 -147 q-5 -18 -25 -18 q-11 0 -19 9 q-8 9 -7 20 ZM-65 643 q0 24 17 41 q17 17 42 17 q24 0 41 -17 q17 -17 17 -41 q0 -25 -17 -42 q-17 -17 -41 -17 q-25 0 -42 17 q-17 17 -17 42 ZM222 643 q0 24 17 41 q17 17 41 17 q25 0 42 -17 q17 -17 17 -41 q0 -25 -17 -42 q-17 -17 -42 -17 q-24 0 -41 17 q-17 17 -17 42 Z" /><glyph glyph-name="Alpha" unicode="&#x391;" d="M646 54 q0 -25 -17.5 -42.5 q-17.5 -17.5 -42.5 -17.5 q-19 0 -34 10.5 q-15 10.5 -21 27.5 l-35 96 l-320 0 l-35 -96 q-6 -17 -21 -27.5 q-15 -10.5 -34 -10.5 q-25 0 -42.5 17.5 q-17.5 17.5 -17.5 42.5 q0 4 5 21 l209 532 q12 30 38 48 q26 18 58 18 q32 0 58 -18 q26 -18 38 -48 l209 -532 q5 -17 5 -21 ZM213 231 l246 0 l-123 337 l-123 -337 Z" /><glyph glyph-name="Beta" unicode="&#x392;" d="M71 62 l0 543 q0 62 62 62 l266 0 q87 0 138.5 -48 q51.5 -48 51.5 -122 q0 -59 -33 -101 q-33 -42 -83 -52 q53 -8 91 -56 q38 -48 38 -108 q0 -81 -52 -130.5 q-52 -49.5 -142 -49.5 l-275 0 q-62 0 -62 62 ZM188 391 l187 0 q44 0 69 23.5 q25 23.5 25 62.5 q0 39 -25 63 q-25 24 -69 24 l-187 0 l0 -173 ZM188 103 l192 0 q48 0 75 24.5 q27 24.5 27 68.5 q0 40 -27.5 66 q-27.5 26 -74.5 26 l-192 0 l0 -185 Z" /><glyph glyph-name="Gamma" unicode="&#x393;" d="M71 53 l0 552 q0 62 62 62 l349 0 q21 0 36.5 -15 q15.5 -15 15.5 -37 q0 -21 -15.5 -36 q-15.5 -15 -36.5 -15 l-294 0 l0 -511 q0 -24 -17 -41.5 q-17 -17.5 -41 -17.5 q-25 0 -42 17.5 q-17 17.5 -17 41.5 Z" /><glyph glyph-name="uni0394" unicode="&#x394;" d="M23 43 q0 14 6 29 l210 535 q11 29 38 47.5 q27 18.5 59 18.5 q32 0 59 -18.5 q27 -18.5 38 -47.5 l210 -535 q6 -15 6 -29 q0 -43 -55 -43 l-516 0 q-55 0 -55 43 ZM336 549 l-169 -446 l339 0 l-170 446 Z" /><glyph glyph-name="Epsilon" unicode="&#x395;" d="M71 62 l0 543 q0 62 62 62 l349 0 q21 0 36.5 -15 q15.5 -15 15.5 -37 q0 -21 -15.5 -36 q-15.5 -15 -36.5 -15 l-294 0 l0 -173 l287 0 q21 0 36.5 -15 q15.5 -15 15.5 -36 q0 -22 -15.5 -37 q-15.5 -15 -36.5 -15 l-287 0 l0 -185 l294 0 q21 0 36.5 -15 q15.5 -15 15.5 -36 q0 -22 -15.5 -37 q-15.5 -15 -36.5 -15 l-349 0 q-62 0 -62 62 Z" /><glyph glyph-name="Zeta" unicode="&#x396;" d="M38 66 q0 22 13 38 l334 460 l-295 0 q-21 0 -36.5 15 q-15.5 15 -15.5 36 q0 22 15.5 37 q15.5 15 36.5 15 l387 0 q27 0 46.5 -19 q19.5 -19 19.5 -47 q0 -22 -13 -38 l-334 -460 l302 0 q21 0 36.5 -15 q15.5 -15 15.5 -36 q0 -22 -15.5 -37 q-15.5 -15 -36.5 -15 l-394 0 q-27 0 -46.5 19 q-19.5 19 -19.5 47 Z" /><glyph glyph-name="Eta" unicode="&#x397;" d="M535 53 l0 238 l-347 0 l0 -238 q0 -24 -17 -41.5 q-17 -17.5 -41 -17.5 q-25 0 -42 17.5 q-17 17.5 -17 41.5 l0 561 q0 24 17 41.5 q17 17.5 41 17.5 q25 0 42 -17.5 q17 -17.5 17 -41.5 l0 -220 l347 0 l0 220 q0 24 17 41.5 q17 17.5 42 17.5 q24 0 41 -17.5 q17 -17.5 17 -41.5 l0 -561 q0 -24 -17 -41.5 q-17 -17.5 -42 -17.5 q-24 0 -41 17.5 q-17 17.5 -17 41.5 Z" /><glyph glyph-name="Theta" unicode="&#x398;" d="M382 678 q147 2 245 -98 q98 -100 96 -247 q2 -147 -96 -247.5 q-98 -100.5 -245 -97.5 q-147 -3 -245 97.5 q-98 100.5 -96 247.5 q-2 147 96 247 q98 100 245 98 ZM541.5 506 q-61.5 68 -159.5 68 q-98 0 -159.5 -68 q-61.5 -68 -61.5 -173 q0 -104 61.5 -172.5 q61.5 -68.5 159.5 -68.5 q98 0 159.5 68.5 q61.5 68.5 61.5 172.5 q0 105 -61.5 173 ZM209 340 q0 21 15.5 36 q15.5 15 36.5 15 l243 0 q21 0 36.5 -15 q15.5 -15 15.5 -36 q0 -22 -15.5 -37 q-15.5 -15 -36.5 -15 l-243 0 q-21 0 -36.5 15 q-15.5 15 -15.5 37 Z" /><glyph glyph-name="Iota" unicode="&#x399;" d="M71 53 l0 561 q0 24 17 41.5 q17 17.5 42 17.5 q24 0 41 -17.5 q17 -17.5 17 -41.5 l0 -561 q0 -24 -17 -41.5 q-17 -17.5 -41 -17.5 q-25 0 -42 17.5 q-17 17.5 -17 41.5 Z" /><glyph glyph-name="Kappa" unicode="&#x39a;" d="M586 50 q0 -23 -15.5 -39.5 q-15.5 -16.5 -38.5 -16.5 q-24 0 -41 17 l-244 267 l-59 -63 l0 -162 q0 -24 -17 -41.5 q-17 -17.5 -42 -17.5 q-24 0 -41 17.5 q-17 17.5 -17 41.5 l0 561 q0 24 17 41.5 q17 17.5 41 17.5 q25 0 42 -17.5 q17 -17.5 17 -41.5 l0 -267 l281 308 q17 18 41 18 q22 0 38.5 -16 q16.5 -16 16.5 -38 q0 -22 -15 -37 l-224 -235 l245 -260 q15 -16 15 -37 Z" /><glyph glyph-name="Lambda" unicode="&#x39b;" d="M525 34 l-189 515 l-189 -515 q-7 -18 -23 -29 q-16 -11 -35 -11 q-25 0 -43.5 18.5 q-18.5 18.5 -18.5 43.5 q0 9 5 22 l208 529 q12 30 38 48 q26 18 58 18 q32 0 58 -18 q26 -18 38 -48 l208 -529 q5 -13 5 -22 q0 -25 -18 -43.5 q-18 -18.5 -44 -18.5 q-19 0 -35 11 q-16 11 -23 29 Z" /><glyph glyph-name="Mu" unicode="&#x39c;" d="M647 53 l0 452 l-199 -490 q-8 -21 -31 -21 q-23 0 -31 21 l-198 490 l0 -452 q0 -24 -17 -41.5 q-17 -17.5 -41 -17.5 q-25 0 -42 17.5 q-17 17.5 -17 41.5 l0 523 q0 40 28.5 68.5 q28.5 28.5 68.5 28.5 q30 0 54.5 -17 q24.5 -17 35.5 -44 l159 -394 l160 394 q11 27 35.5 44 q24.5 17 54.5 17 q40 0 68.5 -28.5 q28.5 -28.5 28.5 -68.5 l0 -523 q0 -24 -17 -41.5 q-17 -17.5 -42 -17.5 q-24 0 -41 17.5 q-17 17.5 -17 41.5 Z" /><glyph glyph-name="Nu" unicode="&#x39d;" d="M519 24 l-331 462 l0 -433 q0 -24 -17 -41.5 q-17 -17.5 -41 -17.5 q-25 0 -42 17.5 q-17 17.5 -17 41.5 l0 543 q0 32 22.5 54.5 q22.5 22.5 54.5 22.5 q38 0 62 -32 l322 -447 l0 420 q0 24 17 41.5 q17 17.5 41 17.5 q25 0 42 -17.5 q17 -17.5 17 -41.5 l0 -548 q0 -29 -21 -50.5 q-21 -21.5 -51 -21.5 q-37 0 -58 30 Z" /><glyph glyph-name="Xi" unicode="&#x39e;" d="M43 616 q0 21 15.5 36 q15.5 15 36.5 15 l429 0 q21 0 36.5 -15 q15.5 -15 15.5 -36 q0 -22 -15.5 -37 q-15.5 -15 -36.5 -15 l-429 0 q-21 0 -36.5 15 q-15.5 15 -15.5 37 ZM50 339 q0 22 15.5 37 q15.5 15 36.5 15 l416 0 q21 0 36.5 -15 q15.5 -15 15.5 -36 q0 -22 -15.5 -37 q-15.5 -15 -36.5 -15 l-416 0 q-21 0 -36.5 15 q-15.5 15 -15.5 36 ZM43 51 q0 22 15.5 37 q15.5 15 36.5 15 l429 0 q21 0 36.5 -15 q15.5 -15 15.5 -37 q0 -21 -15.5 -36 q-15.5 -15 -36.5 -15 l-429 0 q-21 0 -36.5 15 q-15.5 15 -15.5 36 Z" /><glyph glyph-name="Omicron" unicode="&#x39f;" d="M382 678 q147 2 245 -98 q98 -100 96 -247 q2 -147 -96 -247.5 q-98 -100.5 -245 -97.5 q-147 -3 -245 97.5 q-98 100.5 -96 247.5 q-2 147 96 247 q98 100 245 98 ZM541.5 506 q-61.5 68 -159.5 68 q-98 0 -159.5 -68 q-61.5 -68 -61.5 -173 q0 -104 61.5 -172.5 q61.5 -68.5 159.5 -68.5 q98 0 159.5 68.5 q61.5 68.5 61.5 172.5 q0 105 -61.5 173 Z" /><glyph glyph-name="Pi" unicode="&#x3a0;" d="M535 53 l0 511 l-347 0 l0 -511 q0 -24 -17 -41.5 q-17 -17.5 -41 -17.5 q-25 0 -42 17.5 q-17 17.5 -17 41.5 l0 552 q0 62 62 62 l457 0 q62 0 62 -62 l0 -552 q0 -24 -17 -41.5 q-17 -17.5 -42 -17.5 q-24 0 -41 17.5 q-17 17.5 -17 41.5 Z" /><glyph glyph-name="Rho" unicode="&#x3a1;" d="M71 53 l0 552 q0 62 62 62 l231 0 q99 0 158.5 -60 q59.5 -60 59.5 -149 q0 -89 -59.5 -149 q-59.5 -60 -158.5 -60 l-176 0 l0 -196 q0 -24 -17 -41.5 q-17 -17.5 -41 -17.5 q-25 0 -42 17.5 q-17 17.5 -17 41.5 ZM348 564 l-160 0 l0 -212 l160 0 q51 0 82.5 29 q31.5 29 31.5 77 q0 48 -31.5 77 q-31.5 29 -82.5 29 Z" /><glyph glyph-name="Sigma" unicode="&#x3a3;" d="M190 103 l296 0 q21 0 36.5 -15 q15.5 -15 15.5 -36 q0 -22 -15.5 -37 q-15.5 -15 -36.5 -15 l-373 0 q-29 0 -49.5 20.5 q-20.5 20.5 -20.5 49.5 q0 25 18 46 l203 225 l-201 209 q-19 20 -19 48 q0 29 20.5 49 q20.5 20 48.5 20 l373 0 q21 0 36.5 -15 q15.5 -15 15.5 -37 q0 -21 -15.5 -36 q-15.5 -15 -36.5 -15 l-291 0 l171 -179 q20 -22 20 -44 q0 -24 -19 -43 l-177 -195 Z" /><glyph glyph-name="Tau" unicode="&#x3a4;" d="M230 53 l0 511 l-156 0 q-21 0 -36.5 15 q-15.5 15 -15.5 36 q0 22 15.5 37 q15.5 15 36.5 15 l429 0 q21 0 36.5 -15 q15.5 -15 15.5 -37 q0 -21 -15.5 -36 q-15.5 -15 -36.5 -15 l-156 0 l0 -511 q0 -24 -17 -41.5 q-17 -17.5 -41 -17.5 q-25 0 -42 17.5 q-17 17.5 -17 41.5 Z" /><glyph glyph-name="Upsilon" unicode="&#x3a5;" d="M582 587 l-205 -310 l0 -224 q0 -24 -17 -41.5 q-17 -17.5 -41 -17.5 q-25 0 -42 17.5 q-17 17.5 -17 41.5 l0 224 l-206 309 q-9 12 -9 31 q0 23 16.5 39.5 q16.5 16.5 39.5 16.5 q29 0 47 -26 l171 -266 l169 266 q18 26 47 26 q23 0 39.5 -16.5 q16.5 -16.5 16.5 -39.5 q0 -18 -9 -30 Z" /><glyph glyph-name="Phi" unicode="&#x3a6;" d="M475 66 l0 -13 q0 -24 -17 -41.5 q-17 -17.5 -41 -17.5 q-25 0 -42 17.5 q-17 17.5 -17 41.5 l0 13 q-149 12 -233 82.5 q-84 70.5 -84 184.5 q0 113 84 184 q84 71 233 83 l0 14 q0 24 17 41.5 q17 17.5 42 17.5 q24 0 41 -17.5 q17 -17.5 17 -41.5 l0 -14 q149 -12 233 -82.5 q84 -70.5 84 -184.5 q0 -114 -84 -184.5 q-84 -70.5 -233 -82.5 ZM358 171 l0 324 q-94 -10 -145.5 -52.5 q-51.5 -42.5 -51.5 -109.5 q0 -67 51.5 -109.5 q51.5 -42.5 145.5 -52.5 ZM620.5 223.5 q51.5 42.5 51.5 109.5 q0 67 -51.5 109.5 q-51.5 42.5 -145.5 52.5 l0 -324 q94 10 145.5 52.5 Z" /></font>
</defs>
</svg>
